URWGroteskGPL-Bold.ufo
<glyph name="exclam" format="2">
  <advance width="325"/>
  <unicode hex="0021"/>
  <outline>
    <contour>
      <point x="62" y="667" type="line"/>
      <point x="62" y="467" type="line"/>
      <point x="100" y="235" type="line"/>
      <point x="224" y="235" type="line"/>
      <point x="262" y="467" type="line"/>
      <point x="262" y="667" type="line"/>
    </contour>
    <contour>
      <point x="162" y="183" type="curve" smooth="yes"/>
      <point x="104" y="183"/>
      <point x="60" y="141"/>
      <point x="60" y="85" type="curve" smooth="yes"/>
      <point x="60" y="29"/>
      <point x="103" y="-13"/>
      <point x="162" y="-13" type="curve" smooth="yes"/>
      <point x="222" y="-13"/>
      <point x="265" y="28"/>
      <point x="265" y="85" type="curve" smooth="yes"/>
      <point x="265" y="142"/>
      <point x="222" y="183"/>
    </contour>
  </outline>
</glyph>
<glyph name="quotedbl" format="2">
  <advance width="413"/>
  <unicode hex="0022"/>
  <outline>
    <contour>
      <point x="161" y="399" type="line"/>
      <point x="185" y="667" type="line"/>
      <point x="41" y="667" type="line"/>
      <point x="65" y="399" type="line"/>
    </contour>
    <contour>
      <point x="348" y="399" type="line"/>
      <point x="373" y="667" type="line"/>
      <point x="228" y="667" type="line"/>
      <point x="252" y="399" type="line"/>
    </contour>
  </outline>
</glyph>
<glyph name="numbersign" format="2">
  <advance width="507"/>
  <unicode hex="0023"/>
  <outline>
    <contour>
      <point x="416" y="667" type="line"/>
      <point x="355" y="667" type="line"/>
      <point x="338" y="567" type="line"/>
      <point x="246" y="567" type="line"/>
      <point x="263" y="667" type="line"/>
      <point x="205" y="667" type="line"/>
      <point x="187" y="567" type="line"/>
      <point x="97" y="567" type="line"/>
      <point x="78" y="458" type="line"/>
      <point x="167" y="458" type="line"/>
      <point x="125" y="210" type="line"/>
      <point x="34" y="210" type="line"/>
      <point x="15" y="102" type="line"/>
      <point x="105" y="102" type="line"/>
      <point x="87" y="0" type="line"/>
      <point x="146" y="0" type="line"/>
      <point x="164" y="102" type="line"/>
      <point x="256" y="102" type="line"/>
      <point x="238" y="0" type="line"/>
      <point x="299" y="0" type="line"/>
      <point x="317" y="102" type="line"/>
      <point x="413" y="102" type="line"/>
      <point x="429" y="210" type="line"/>
      <point x="337" y="210" type="line"/>
      <point x="379" y="458" type="line"/>
      <point x="473" y="458" type="line"/>
      <point x="492" y="567" type="line"/>
      <point x="399" y="567" type="line"/>
    </contour>
    <contour>
      <point x="318" y="458" type="line"/>
      <point x="274" y="210" type="line"/>
      <point x="183" y="210" type="line"/>
      <point x="227" y="458" type="line"/>
    </contour>
  </outline>
</glyph>
<glyph name="dollar" format="2">
  <advance width="667"/>
  <unicode hex="0024"/>
  <outline>
    <contour>
      <point x="293" y="759" type="line"/>
      <point x="293" y="673" type="line"/>
      <point x="228" y="668"/>
      <point x="197" y="661"/>
      <point x="160" y="644" type="curve" smooth="yes"/>
      <point x="77" y="604"/>
      <point x="40" y="544"/>
      <point x="40" y="453" type="curve" smooth="yes"/>
      <point x="40" y="393"/>
      <point x="59" y="347"/>
      <point x="98" y="312" type="curve" smooth="yes"/>
      <point x="133" y="280"/>
      <point x="167" y="269"/>
      <point x="293" y="244" type="curve"/>
      <point x="293" y="131" type="line"/>
      <point x="230" y="144"/>
      <point x="206" y="167"/>
      <point x="197" y="222" type="curve"/>
      <point x="10" y="165" type="line"/>
      <point x="26" y="95"/>
      <point x="54" y="54"/>
      <point x="109" y="23" type="curve" smooth="yes"/>
      <point x="158" y="-5"/>
      <point x="199" y="-13"/>
      <point x="293" y="-13" type="curve"/>
      <point x="293" y="-133" type="line"/>
      <point x="360" y="-133" type="line"/>
      <point x="360" y="-13" type="line"/>
      <point x="535" y="-13"/>
      <point x="638" y="66"/>
      <point x="638" y="201" type="curve" smooth="yes"/>
      <point x="638" y="326"/>
      <point x="567" y="379"/>
      <point x="360" y="409" type="curve"/>
      <point x="360" y="529" type="line"/>
      <point x="409" y="526"/>
      <point x="426" y="510"/>
      <point x="431" y="461" type="curve"/>
      <point x="615" y="497" type="line"/>
      <point x="609" y="561"/>
      <point x="585" y="597"/>
      <point x="528" y="633" type="curve" smooth="yes"/>
      <point x="481" y="664"/>
      <point x="454" y="670"/>
      <point x="360" y="673" type="curve"/>
      <point x="360" y="759" type="line"/>
    </contour>
    <contour>
      <point x="293" y="530" type="line"/>
      <point x="293" y="421" type="line"/>
      <point x="247" y="429"/>
      <point x="221" y="450"/>
      <point x="221" y="479" type="curve" smooth="yes"/>
      <point x="221" y="513"/>
      <point x="243" y="529"/>
      <point x="286" y="530" type="curve"/>
    </contour>
    <contour>
      <point x="360" y="125" type="line"/>
      <point x="360" y="235" type="line"/>
      <point x="424" y="221"/>
      <point x="438" y="211"/>
      <point x="438" y="176" type="curve" smooth="yes"/>
      <point x="438" y="143"/>
      <point x="417" y="125"/>
      <point x="381" y="125" type="curve" smooth="yes"/>
    </contour>
  </outline>
</glyph>
<glyph name="percent" format="2">
  <advance width="752"/>
  <unicode hex="0025"/>
  <outline>
    <contour>
      <point x="193" y="667" type="curve" smooth="yes"/>
      <point x="97" y="667"/>
      <point x="42" y="606"/>
      <point x="42" y="501" type="curve" smooth="yes"/>
      <point x="42" y="402"/>
      <point x="97" y="346"/>
      <point x="193" y="346" type="curve" smooth="yes"/>
      <point x="289" y="346"/>
      <point x="344" y="402"/>
      <point x="344" y="501" type="curve" smooth="yes"/>
      <point x="344" y="607"/>
      <point x="289" y="667"/>
    </contour>
    <contour>
      <point x="193" y="591" type="curve" smooth="yes"/>
      <point x="226" y="591"/>
      <point x="247" y="559"/>
      <point x="247" y="508" type="curve" smooth="yes"/>
      <point x="247" y="456"/>
      <point x="226" y="424"/>
      <point x="193" y="424" type="curve" smooth="yes"/>
      <point x="159" y="424"/>
      <point x="139" y="456"/>
      <point x="139" y="508" type="curve" smooth="yes"/>
      <point x="139" y="559"/>
      <point x="159" y="591"/>
    </contour>
    <contour>
      <point x="656" y="697" type="line"/>
      <point x="589" y="709" type="line"/>
      <point x="61" y="-96" type="line"/>
      <point x="130" y="-108" type="line"/>
    </contour>
    <contour>
      <point x="560" y="321" type="curve" smooth="yes"/>
      <point x="464" y="321"/>
      <point x="409" y="260"/>
      <point x="409" y="155" type="curve" smooth="yes"/>
      <point x="409" y="56"/>
      <point x="464" y="0"/>
      <point x="560" y="0" type="curve" smooth="yes"/>
      <point x="656" y="0"/>
      <point x="711" y="56"/>
      <point x="711" y="155" type="curve" smooth="yes"/>
      <point x="711" y="261"/>
      <point x="656" y="321"/>
    </contour>
    <contour>
      <point x="560" y="245" type="curve" smooth="yes"/>
      <point x="594" y="245"/>
      <point x="614" y="213"/>
      <point x="614" y="162" type="curve" smooth="yes"/>
      <point x="614" y="110"/>
      <point x="594" y="78"/>
      <point x="560" y="78" type="curve" smooth="yes"/>
      <point x="526" y="78"/>
      <point x="506" y="110"/>
      <point x="506" y="162" type="curve" smooth="yes"/>
      <point x="506" y="213"/>
      <point x="526" y="245"/>
    </contour>
  </outline>
</glyph>
<glyph name="ampersand" format="2">
  <advance width="768"/>
  <unicode hex="0026"/>
  <outline>
    <contour>
      <point x="531" y="399" type="line"/>
      <point x="530" y="348"/>
      <point x="524" y="325"/>
      <point x="500" y="285" type="curve"/>
      <point x="493" y="291"/>
      <point x="488" y="295"/>
      <point x="484" y="298" type="curve" smooth="yes"/>
      <point x="463" y="315"/>
      <point x="463" y="315"/>
      <point x="444" y="334" type="curve" smooth="yes"/>
      <point x="430" y="348" type="line"/>
      <point x="522" y="390"/>
      <point x="560" y="439" name="hr01"/>
      <point x="560" y="518" type="curve" smooth="yes"/>
      <point x="560" y="625"/>
      <point x="492" y="679"/>
      <point x="356" y="679" type="curve" smooth="yes"/>
      <point x="221" y="679"/>
      <point x="141" y="613"/>
      <point x="141" y="502" type="curve" smooth="yes"/>
      <point x="141" y="460"/>
      <point x="153" y="423"/>
      <point x="180" y="379" type="curve"/>
      <point x="69" y="344"/>
      <point x="23" y="292" name="hr02"/>
      <point x="23" y="199" type="curve" smooth="yes"/>
      <point x="23" y="67"/>
      <point x="123" y="-13"/>
      <point x="289" y="-13" type="curve" smooth="yes"/>
      <point x="377" y="-13"/>
      <point x="444" y="10"/>
      <point x="503" y="59" type="curve"/>
      <point x="566" y="19"/>
      <point x="587" y="9"/>
      <point x="653" y="-13" type="curve"/>
      <point x="761" y="151" type="line"/>
      <point x="701" y="167"/>
      <point x="686" y="173"/>
      <point x="647" y="195" type="curve"/>
      <point x="704" y="279"/>
      <point x="720" y="321"/>
      <point x="725" y="399" type="curve"/>
    </contour>
    <contour>
      <point x="337" y="446" type="curve"/>
      <point x="336" y="446"/>
      <point x="333" y="450"/>
      <point x="326" y="458" type="curve" smooth="yes"/>
      <point x="321" y="465"/>
      <point x="318" y="468"/>
      <point x="316" y="472" type="curve" smooth="yes"/>
      <point x="307" y="487"/>
      <point x="301" y="505" name="hr03"/>
      <point x="301" y="519" type="curve" smooth="yes"/>
      <point x="301" y="551"/>
      <point x="320" y="570"/>
      <point x="353" y="570" type="curve" smooth="yes"/>
      <point x="384" y="570"/>
      <point x="402" y="553"/>
      <point x="402" y="525" type="curve" smooth="yes"/>
      <point x="402" y="494"/>
      <point x="380" y="467"/>
    </contour>
    <contour>
      <point x="260" y="274" type="curve"/>
      <point x="296" y="228"/>
      <point x="318" y="207"/>
      <point x="367" y="169" type="curve"/>
      <point x="345" y="151"/>
      <point x="324" y="144"/>
      <point x="296" y="144" type="curve" smooth="yes"/>
      <point x="251" y="144"/>
      <point x="222" y="171"/>
      <point x="222" y="213" type="curve" smooth="yes"/>
      <point x="222" y="237"/>
      <point x="232" y="253"/>
    </contour>
  </outline>
</glyph>
<glyph name="quotesingle" format="2">
  <advance width="225"/>
  <unicode hex="0027"/>
  <outline>
    <contour>
      <point x="161" y="399" type="line"/>
      <point x="185" y="667" type="line"/>
      <point x="41" y="667" type="line"/>
      <point x="65" y="399" type="line"/>
    </contour>
  </outline>
</glyph>
<glyph name="parenleft" format="2">
  <advance width="342"/>
  <unicode hex="0028"/>
  <outline>
    <contour>
      <point x="177" y="707" type="line"/>
      <point x="74" y="560"/>
      <point x="33" y="432"/>
      <point x="33" y="252" type="curve" smooth="yes"/>
      <point x="33" y="150"/>
      <point x="49" y="49"/>
      <point x="81" y="-40" type="curve"/>
      <point x="106" y="-113"/>
      <point x="129" y="-154"/>
      <point x="182" y="-220" type="curve"/>
      <point x="309" y="-205" type="line"/>
      <point x="271" y="-136"/>
      <point x="255" y="-95"/>
      <point x="238" y="-25" type="curve" smooth="yes"/>
      <point x="215" y="71"/>
      <point x="203" y="174"/>
      <point x="203" y="284" type="curve" smooth="yes"/>
      <point x="203" y="443"/>
      <point x="228" y="547"/>
      <point x="304" y="695" type="curve"/>
    </contour>
  </outline>
</glyph>
<glyph name="parenright" format="2">
  <advance width="342"/>
  <unicode hex="0029"/>
  <outline>
    <contour>
      <point x="165" y="-220" type="line"/>
      <point x="268" y="-72"/>
      <point x="309" y="55"/>
      <point x="309" y="235" type="curve" smooth="yes"/>
      <point x="309" y="338"/>
      <point x="293" y="438"/>
      <point x="261" y="527" type="curve"/>
      <point x="236" y="600"/>
      <point x="213" y="641"/>
      <point x="160" y="707" type="curve"/>
      <point x="33" y="693" type="line"/>
      <point x="71" y="623"/>
      <point x="87" y="583"/>
      <point x="104" y="512" type="curve" smooth="yes"/>
      <point x="127" y="416"/>
      <point x="139" y="313"/>
      <point x="139" y="204" type="curve" smooth="yes"/>
      <point x="139" y="44"/>
      <point x="114" y="-59"/>
      <point x="38" y="-208" type="curve"/>
    </contour>
  </outline>
</glyph>
<glyph name="asterisk" format="2">
  <advance width="420"/>
  <unicode hex="002A"/>
  <outline>
    <contour>
      <point x="210" y="477" type="line"/>
      <point x="307" y="375" type="line"/>
      <point x="331" y="394" type="line"/>
      <point x="270" y="504" type="line"/>
      <point x="380" y="568" type="line"/>
      <point x="369" y="596" type="line"/>
      <point x="247" y="580" type="line"/>
      <point x="225" y="709" type="line"/>
      <point x="195" y="709" type="line"/>
      <point x="173" y="580" type="line"/>
      <point x="50" y="596" type="line"/>
      <point x="40" y="568" type="line"/>
      <point x="150" y="504" type="line"/>
      <point x="89" y="394" type="line"/>
      <point x="112" y="375" type="line"/>
    </contour>
  </outline>
</glyph>
<glyph name="plus" format="2">
  <advance width="607"/>
  <unicode hex="002B"/>
  <outline>
    <contour>
      <point x="53" y="428" type="line"/>
      <point x="53" y="251" type="line"/>
      <point x="211" y="251" type="line"/>
      <point x="211" y="82" type="line"/>
      <point x="394" y="82" type="line"/>
      <point x="394" y="251" type="line"/>
      <point x="553" y="251" type="line"/>
      <point x="553" y="428" type="line"/>
      <point x="394" y="428" type="line"/>
      <point x="394" y="598" type="line"/>
      <point x="211" y="598" type="line"/>
      <point x="211" y="428" type="line"/>
    </contour>
  </outline>
</glyph>
<glyph name="comma" format="2">
  <advance width="298"/>
  <unicode hex="002C"/>
  <outline>
    <contour>
      <point x="229" y="197" type="line"/>
      <point x="72" y="197" type="line"/>
      <point x="72" y="103" type="line" smooth="yes"/>
      <point x="72" y="88"/>
      <point x="69" y="55"/>
      <point x="65" y="32" type="curve" smooth="yes"/>
      <point x="62" y="12"/>
      <point x="62" y="12"/>
      <point x="50" y="-29" type="curve" smooth="yes"/>
      <point x="17" y="-146" type="line"/>
      <point x="121" y="-132" type="line"/>
      <point x="229" y="57" type="line"/>
    </contour>
  </outline>
</glyph>
<glyph name="hyphen" format="2">
  <advance width="272"/>
  <unicode hex="002D"/>
  <outline>
    <contour>
      <point x="0" y="305" type="line"/>
      <point x="0" y="182" type="line"/>
      <point x="272" y="182" type="line"/>
      <point x="272" y="305" type="line"/>
    </contour>
  </outline>
</glyph>
<glyph name="period" format="2">
  <advance width="298"/>
  <unicode hex="002E"/>
  <outline>
    <contour>
      <point x="149" y="183" type="curve" smooth="yes"/>
      <point x="91" y="183"/>
      <point x="47" y="141"/>
      <point x="47" y="85" type="curve" smooth="yes"/>
      <point x="47" y="29"/>
      <point x="90" y="-13"/>
      <point x="149" y="-13" type="curve" smooth="yes"/>
      <point x="209" y="-13"/>
      <point x="252" y="28"/>
      <point x="252" y="85" type="curve" smooth="yes"/>
      <point x="252" y="142"/>
      <point x="209" y="183"/>
    </contour>
  </outline>
</glyph>
<glyph name="slash" format="2">
  <advance width="461"/>
  <unicode hex="002F"/>
  <outline>
    <contour>
      <point x="402" y="695" type="line"/>
      <point x="304" y="707" type="line"/>
      <point x="20" y="-206" type="line"/>
      <point x="119" y="-220" type="line"/>
    </contour>
  </outline>
</glyph>
<glyph name="zero" format="2">
  <advance width="607"/>
  <unicode hex="0030"/>
  <outline>
    <contour>
      <point x="304" y="680" type="curve" smooth="yes"/>
      <point x="210" y="680"/>
      <point x="150" y="654"/>
      <point x="102" y="593" type="curve" smooth="yes"/>
      <point x="55" y="532"/>
      <point x="36" y="459"/>
      <point x="36" y="334" type="curve" smooth="yes"/>
      <point x="36" y="209"/>
      <point x="55" y="136"/>
      <point x="102" y="74" type="curve" smooth="yes"/>
      <point x="149" y="14"/>
      <point x="210" y="-13"/>
      <point x="304" y="-13" type="curve" smooth="yes"/>
      <point x="485" y="-13"/>
      <point x="571" y="99"/>
      <point x="571" y="334" type="curve" smooth="yes"/>
      <point x="571" y="458"/>
      <point x="552" y="531"/>
      <point x="505" y="593" type="curve" smooth="yes"/>
      <point x="458" y="654"/>
      <point x="398" y="680"/>
    </contour>
    <contour>
      <point x="304" y="534" type="curve" smooth="yes"/>
      <point x="354" y="534"/>
      <point x="380" y="466"/>
      <point x="380" y="333" type="curve" smooth="yes"/>
      <point x="380" y="201"/>
      <point x="354" y="133"/>
      <point x="304" y="133" type="curve" smooth="yes"/>
      <point x="253" y="133"/>
      <point x="227" y="201"/>
      <point x="227" y="333" type="curve" smooth="yes"/>
      <point x="227" y="466"/>
      <point x="253" y="534"/>
    </contour>
  </outline>
</glyph>
<glyph name="one" format="2">
  <advance width="607"/>
  <unicode hex="0031"/>
  <outline>
    <contour>
      <point x="465" y="667" type="line"/>
      <point x="297" y="667" type="line"/>
      <point x="264" y="586"/>
      <point x="210" y="558"/>
      <point x="76" y="551" type="curve"/>
      <point x="76" y="414" type="line"/>
      <point x="272" y="430" type="line"/>
      <point x="272" y="0" type="line"/>
      <point x="465" y="0" type="line"/>
    </contour>
  </outline>
</glyph>
<glyph name="two" format="2">
  <advance width="607"/>
  <unicode hex="0032"/>
  <outline>
    <contour>
      <point x="571" y="166" type="line"/>
      <point x="297" y="166" type="line"/>
      <point x="422" y="261"/>
      <point x="454" y="290"/>
      <point x="492" y="339" type="curve" smooth="yes"/>
      <point x="524" y="380"/>
      <point x="543" y="435"/>
      <point x="543" y="489" type="curve" smooth="yes"/>
      <point x="543" y="614"/>
      <point x="455" y="681"/>
      <point x="291" y="681" type="curve" smooth="yes"/>
      <point x="140" y="681"/>
      <point x="72" y="632"/>
      <point x="39" y="497" type="curve"/>
      <point x="208" y="415" type="line"/>
      <point x="211" y="429"/>
      <point x="213" y="439"/>
      <point x="215" y="446" type="curve" smooth="yes"/>
      <point x="225" y="492"/>
      <point x="245" y="511"/>
      <point x="282" y="511" type="curve" smooth="yes"/>
      <point x="323" y="511"/>
      <point x="348" y="489"/>
      <point x="348" y="452" type="curve" smooth="yes"/>
      <point x="348" y="410"/>
      <point x="324" y="380"/>
      <point x="227" y="304" type="curve" smooth="yes"/>
      <point x="190" y="274" type="line" smooth="yes"/>
      <point x="90" y="195"/>
      <point x="100" y="203"/>
      <point x="32" y="151" type="curve"/>
      <point x="32" y="0" type="line"/>
      <point x="571" y="0" type="line"/>
    </contour>
  </outline>
</glyph>
<glyph name="three" format="2">
  <advance width="607"/>
  <unicode hex="0033"/>
  <outline>
    <contour>
      <point x="222" y="271" type="line"/>
      <point x="264" y="271"/>
      <point x="283" y="270"/>
      <point x="298" y="268" type="curve" smooth="yes"/>
      <point x="340" y="261"/>
      <point x="363" y="240"/>
      <point x="363" y="206" type="curve" smooth="yes"/>
      <point x="363" y="167"/>
      <point x="332" y="142"/>
      <point x="283" y="142" type="curve" smooth="yes"/>
      <point x="233" y="142"/>
      <point x="213" y="164"/>
      <point x="201" y="232" type="curve"/>
      <point x="22" y="173" type="line"/>
      <point x="41" y="43"/>
      <point x="120" y="-13"/>
      <point x="285" y="-13" type="curve" smooth="yes"/>
      <point x="372" y="-13"/>
      <point x="434" y="2"/>
      <point x="481" y="34" type="curve" smooth="yes"/>
      <point x="533" y="70"/>
      <point x="567" y="135"/>
      <point x="567" y="199" type="curve" smooth="yes"/>
      <point x="567" y="277"/>
      <point x="533" y="323"/>
      <point x="461" y="341" type="curve"/>
      <point x="524" y="376"/>
      <point x="554" y="426" name="hr01"/>
      <point x="554" y="498" type="curve" smooth="yes"/>
      <point x="554" y="617"/>
      <point x="458" y="680"/>
      <point x="274" y="680" type="curve" smooth="yes"/>
      <point x="121" y="680"/>
      <point x="55" y="630"/>
      <point x="33" y="498" type="curve"/>
      <point x="204" y="440" type="line"/>
      <point x="214" y="500"/>
      <point x="238" y="526"/>
      <point x="287" y="526" type="curve" smooth="yes"/>
      <point x="329" y="526"/>
      <point x="357" y="504"/>
      <point x="357" y="471" type="curve" smooth="yes"/>
      <point x="357" y="423"/>
      <point x="318" y="398"/>
      <point x="242" y="398" type="curve" smooth="yes"/>
      <point x="222" y="398" type="line"/>
    </contour>
  </outline>
</glyph>
<glyph name="four" format="2">
  <advance width="607"/>
  <unicode hex="0034"/>
  <outline>
    <contour>
      <point x="509" y="667" type="line"/>
      <point x="303" y="667" type="line"/>
      <point x="32" y="279" type="line"/>
      <point x="32" y="133" type="line"/>
      <point x="324" y="133" type="line"/>
      <point x="324" y="0" type="line"/>
      <point x="509" y="0" type="line"/>
      <point x="509" y="133" type="line"/>
      <point x="592" y="133" type="line"/>
      <point x="592" y="279" type="line"/>
      <point x="509" y="279" type="line"/>
    </contour>
    <contour>
      <point x="324" y="512" type="line"/>
      <point x="324" y="279" type="line"/>
      <point x="176" y="279" type="line"/>
    </contour>
  </outline>
</glyph>
<glyph name="five" format="2">
  <advance width="607"/>
  <unicode hex="0035"/>
  <outline>
    <contour>
      <point x="538" y="667" type="line"/>
      <point x="76" y="667" type="line"/>
      <point x="38" y="310" type="line"/>
      <point x="201" y="262" type="line"/>
      <point x="223" y="298"/>
      <point x="244" y="311"/>
      <point x="280" y="311" type="curve" smooth="yes"/>
      <point x="330" y="311"/>
      <point x="362" y="278"/>
      <point x="362" y="228" type="curve" smooth="yes"/>
      <point x="362" y="178"/>
      <point x="328" y="143"/>
      <point x="279" y="143" type="curve" smooth="yes"/>
      <point x="241" y="143"/>
      <point x="217" y="162"/>
      <point x="206" y="201" type="curve"/>
      <point x="23" y="139" type="line"/>
      <point x="56" y="36"/>
      <point x="137" y="-13"/>
      <point x="276" y="-13" type="curve" smooth="yes"/>
      <point x="466" y="-13"/>
      <point x="566" y="76"/>
      <point x="566" y="244" type="curve" smooth="yes"/>
      <point x="566" y="376"/>
      <point x="485" y="460"/>
      <point x="356" y="460" type="curve" smooth="yes"/>
      <point x="295" y="460"/>
      <point x="264" y="449"/>
      <point x="220" y="414" type="curve"/>
      <point x="232" y="516" type="line"/>
      <point x="538" y="516" type="line"/>
    </contour>
  </outline>
</glyph>
<glyph name="six" format="2">
  <advance width="607"/>
  <unicode hex="0036"/>
  <outline>
    <contour>
      <point x="551" y="579" type="line"/>
      <point x="498" y="654"/>
      <point x="442" y="680"/>
      <point x="333" y="680" type="curve" smooth="yes"/>
      <point x="130" y="680"/>
      <point x="35" y="562"/>
      <point x="35" y="310" type="curve" smooth="yes"/>
      <point x="35" y="202"/>
      <point x="54" y="133"/>
      <point x="99" y="77" type="curve" smooth="yes"/>
      <point x="145" y="20"/>
      <point x="222" y="-13"/>
      <point x="311" y="-13" type="curve" smooth="yes"/>
      <point x="476" y="-13"/>
      <point x="572" y="79"/>
      <point x="572" y="237" type="curve" smooth="yes"/>
      <point x="572" y="302"/>
      <point x="555" y="354"/>
      <point x="522" y="390" type="curve" smooth="yes"/>
      <point x="489" y="425"/>
      <point x="431" y="450"/>
      <point x="380" y="450" type="curve" smooth="yes"/>
      <point x="322" y="450"/>
      <point x="282" y="436"/>
      <point x="237" y="398" type="curve"/>
      <point x="243" y="455"/>
      <point x="248" y="475"/>
      <point x="260" y="494" type="curve" smooth="yes"/>
      <point x="280" y="524"/>
      <point x="312" y="541"/>
      <point x="347" y="541" type="curve" smooth="yes"/>
      <point x="385" y="541"/>
      <point x="408" y="525"/>
      <point x="431" y="481" type="curve"/>
    </contour>
    <contour>
      <point x="311" y="311" type="curve" smooth="yes"/>
      <point x="357" y="311"/>
      <point x="385" y="279"/>
      <point x="385" y="228" type="curve" smooth="yes"/>
      <point x="385" y="172"/>
      <point x="352" y="134"/>
      <point x="304" y="134" type="curve" smooth="yes"/>
      <point x="257" y="134"/>
      <point x="228" y="166"/>
      <point x="228" y="217" type="curve" smooth="yes"/>
      <point x="228" y="274"/>
      <point x="260" y="311"/>
    </contour>
  </outline>
</glyph>
<glyph name="seven" format="2">
  <advance width="607"/>
  <unicode hex="0037"/>
  <outline>
    <contour>
      <point x="566" y="667" type="line"/>
      <point x="37" y="667" type="line"/>
      <point x="37" y="515" type="line"/>
      <point x="342" y="515" type="line"/>
      <point x="77" y="0" type="line"/>
      <point x="300" y="0" type="line"/>
      <point x="566" y="533" type="line"/>
    </contour>
  </outline>
</glyph>
<glyph name="eight" format="2">
  <advance width="607"/>
  <unicode hex="0038"/>
  <outline>
    <contour>
      <point x="131" y="346" type="curve"/>
      <point x="60" y="315"/>
      <point x="30" y="269"/>
      <point x="30" y="192" type="curve" smooth="yes"/>
      <point x="30" y="57"/>
      <point x="124" y="-13"/>
      <point x="304" y="-13" type="curve" smooth="yes"/>
      <point x="484" y="-13"/>
      <point x="577" y="57"/>
      <point x="577" y="191" type="curve" smooth="yes"/>
      <point x="577" y="269"/>
      <point x="547" y="315"/>
      <point x="476" y="346" type="curve"/>
      <point x="539" y="390"/>
      <point x="558" y="423" name="hr01"/>
      <point x="558" y="493" type="curve" smooth="yes"/>
      <point x="558" y="613"/>
      <point x="466" y="680"/>
      <point x="304" y="680" type="curve" smooth="yes"/>
      <point x="141" y="680"/>
      <point x="49" y="612"/>
      <point x="49" y="493" type="curve" smooth="yes"/>
      <point x="49" y="423"/>
      <point x="68" y="390"/>
    </contour>
    <contour>
      <point x="304" y="537" type="curve" smooth="yes"/>
      <point x="346" y="537"/>
      <point x="373" y="513"/>
      <point x="373" y="473" type="curve" smooth="yes"/>
      <point x="373" y="433"/>
      <point x="345" y="405"/>
      <point x="304" y="405" type="curve" smooth="yes"/>
      <point x="262" y="405"/>
      <point x="234" y="433"/>
      <point x="234" y="473" type="curve" smooth="yes"/>
      <point x="234" y="512"/>
      <point x="261" y="537"/>
    </contour>
    <contour>
      <point x="304" y="278" type="curve" smooth="yes"/>
      <point x="357" y="278"/>
      <point x="390" y="250"/>
      <point x="390" y="206" type="curve" smooth="yes"/>
      <point x="390" y="162" name="hr02"/>
      <point x="353" y="130"/>
      <point x="304" y="130" type="curve" smooth="yes"/>
      <point x="254" y="130"/>
      <point x="217" y="162"/>
      <point x="217" y="206" type="curve" smooth="yes"/>
      <point x="217" y="250"/>
      <point x="250" y="278"/>
    </contour>
  </outline>
</glyph>
<glyph name="nine" format="2">
  <advance width="607"/>
  <unicode hex="0039"/>
  <outline>
    <contour>
      <point x="42" y="76" type="line"/>
      <point x="105" y="5"/>
      <point x="151" y="-13"/>
      <point x="266" y="-13" type="curve" smooth="yes"/>
      <point x="353" y="-13"/>
      <point x="412" y="2"/>
      <point x="455" y="35" type="curve" smooth="yes"/>
      <point x="528" y="93"/>
      <point x="567" y="204"/>
      <point x="567" y="360" type="curve" smooth="yes"/>
      <point x="567" y="583"/>
      <point x="481" y="680"/>
      <point x="284" y="680" type="curve" smooth="yes"/>
      <point x="128" y="680"/>
      <point x="33" y="587"/>
      <point x="33" y="435" type="curve" smooth="yes"/>
      <point x="33" y="298"/>
      <point x="108" y="217"/>
      <point x="236" y="217" type="curve" smooth="yes"/>
      <point x="291" y="217"/>
      <point x="325" y="230"/>
      <point x="367" y="269" type="curve"/>
      <point x="355" y="163"/>
      <point x="326" y="126"/>
      <point x="256" y="126" type="curve" smooth="yes"/>
      <point x="218" y="126"/>
      <point x="190" y="143"/>
      <point x="164" y="182" type="curve"/>
    </contour>
    <contour>
      <point x="301" y="534" type="curve" smooth="yes"/>
      <point x="347" y="534"/>
      <point x="373" y="503"/>
      <point x="373" y="450" type="curve" smooth="yes"/>
      <point x="373" y="394"/>
      <point x="341" y="358"/>
      <point x="292" y="358" type="curve" smooth="yes"/>
      <point x="246" y="358"/>
      <point x="218" y="390"/>
      <point x="218" y="443" type="curve" smooth="yes"/>
      <point x="218" y="497"/>
      <point x="252" y="534"/>
    </contour>
  </outline>
</glyph>
<glyph name="colon" format="2">
  <advance width="298"/>
  <unicode hex="003A"/>
  <outline>
    <contour>
      <point x="149" y="183" type="curve" smooth="yes"/>
      <point x="91" y="183"/>
      <point x="47" y="141"/>
      <point x="47" y="85" type="curve" smooth="yes"/>
      <point x="47" y="29"/>
      <point x="90" y="-13"/>
      <point x="149" y="-13" type="curve" smooth="yes"/>
      <point x="209" y="-13"/>
      <point x="252" y="28"/>
      <point x="252" y="85" type="curve" smooth="yes"/>
      <point x="252" y="142"/>
      <point x="209" y="183"/>
    </contour>
    <contour>
      <point x="149" y="467" type="curve" smooth="yes"/>
      <point x="90" y="467"/>
      <point x="47" y="426"/>
      <point x="47" y="369" type="curve" smooth="yes"/>
      <point x="47" y="312"/>
      <point x="90" y="271"/>
      <point x="149" y="271" type="curve" smooth="yes"/>
      <point x="209" y="271"/>
      <point x="252" y="312"/>
      <point x="252" y="369" type="curve" smooth="yes"/>
      <point x="252" y="426"/>
      <point x="209" y="467"/>
    </contour>
  </outline>
</glyph>
<glyph name="semicolon" format="2">
  <advance width="298"/>
  <unicode hex="003B"/>
  <outline>
    <contour>
      <point x="229" y="197" type="line"/>
      <point x="72" y="197" type="line"/>
      <point x="72" y="103" type="line" smooth="yes"/>
      <point x="72" y="89"/>
      <point x="69" y="55"/>
      <point x="65" y="32" type="curve" smooth="yes"/>
      <point x="61" y="12"/>
      <point x="62" y="12"/>
      <point x="50" y="-29" type="curve" smooth="yes"/>
      <point x="17" y="-146" type="line"/>
      <point x="121" y="-132" type="line"/>
      <point x="229" y="57" type="line"/>
    </contour>
    <contour>
      <point x="149" y="467" type="curve" smooth="yes"/>
      <point x="90" y="467"/>
      <point x="47" y="426"/>
      <point x="47" y="369" type="curve" smooth="yes"/>
      <point x="47" y="312"/>
      <point x="90" y="271"/>
      <point x="149" y="271" type="curve" smooth="yes"/>
      <point x="209" y="271"/>
      <point x="252" y="312"/>
      <point x="252" y="369" type="curve" smooth="yes"/>
      <point x="252" y="426"/>
      <point x="209" y="467"/>
    </contour>
  </outline>
</glyph>
<glyph name="less" format="2">
  <advance width="607"/>
  <unicode hex="003C"/>
  <outline>
    <contour>
      <point x="553" y="667" type="line"/>
      <point x="53" y="423" type="line"/>
      <point x="53" y="255" type="line"/>
      <point x="553" y="11" type="line"/>
      <point x="552" y="210" type="line"/>
      <point x="266" y="338" type="line"/>
      <point x="553" y="466" type="line"/>
    </contour>
  </outline>
</glyph>
<glyph name="equal" format="2">
  <advance width="607"/>
  <unicode hex="003D"/>
  <outline>
    <contour>
      <point x="53" y="542" type="line"/>
      <point x="53" y="365" type="line"/>
      <point x="553" y="365" type="line"/>
      <point x="553" y="542" type="line"/>
    </contour>
    <contour>
      <point x="53" y="312" type="line"/>
      <point x="53" y="135" type="line"/>
      <point x="553" y="135" type="line"/>
      <point x="553" y="312" type="line"/>
    </contour>
  </outline>
</glyph>
<glyph name="greater" format="2">
  <advance width="607"/>
  <unicode hex="003E"/>
  <outline>
    <contour>
      <point x="53" y="11" type="line"/>
      <point x="553" y="255" type="line"/>
      <point x="553" y="422" type="line"/>
      <point x="53" y="667" type="line"/>
      <point x="54" y="468" type="line"/>
      <point x="340" y="339" type="line"/>
      <point x="53" y="211" type="line"/>
    </contour>
  </outline>
</glyph>
<glyph name="question" format="2">
  <advance width="499"/>
  <unicode hex="003F"/>
  <outline>
    <contour>
      <point x="171" y="448" type="line"/>
      <point x="178" y="512"/>
      <point x="192" y="531"/>
      <point x="230" y="531" type="curve" smooth="yes"/>
      <point x="261" y="531"/>
      <point x="281" y="510"/>
      <point x="281" y="476" type="curve" smooth="yes"/>
      <point x="281" y="440"/>
      <point x="259" y="413"/>
      <point x="208" y="385" type="curve" smooth="yes"/>
      <point x="143" y="350"/>
      <point x="125" y="325"/>
      <point x="125" y="273" type="curve" smooth="yes"/>
      <point x="125" y="260"/>
      <point x="127" y="249"/>
      <point x="131" y="232" type="curve"/>
      <point x="278" y="232" type="line"/>
      <point x="275" y="241"/>
      <point x="274" y="245"/>
      <point x="274" y="250" type="curve" smooth="yes"/>
      <point x="274" y="272"/>
      <point x="285" y="286"/>
      <point x="318" y="306" type="curve" smooth="yes"/>
      <point x="434" y="376"/>
      <point x="465" y="418"/>
      <point x="465" y="505" type="curve" smooth="yes"/>
      <point x="465" y="619"/>
      <point x="389" y="679"/>
      <point x="244" y="679" type="curve" smooth="yes"/>
      <point x="108" y="679"/>
      <point x="49" y="636"/>
      <point x="20" y="516" type="curve"/>
    </contour>
    <contour>
      <point x="209" y="183" type="curve" smooth="yes"/>
      <point x="150" y="183"/>
      <point x="107" y="141" name="hr01"/>
      <point x="107" y="85" type="curve" smooth="yes"/>
      <point x="107" y="29"/>
      <point x="150" y="-13"/>
      <point x="209" y="-13" type="curve" smooth="yes"/>
      <point x="269" y="-13"/>
      <point x="312" y="29"/>
      <point x="312" y="85" type="curve" smooth="yes"/>
      <point x="312" y="142"/>
      <point x="269" y="183"/>
    </contour>
  </outline>
</glyph>
<glyph name="at" format="2">
  <advance width="733"/>
  <unicode hex="0040"/>
  <outline>
    <contour>
      <point x="474" y="491" type="line"/>
      <point x="466" y="454" type="line"/>
      <point x="447" y="484"/>
      <point x="411" y="502"/>
      <point x="370" y="502" type="curve" smooth="yes"/>
      <point x="276" y="502"/>
      <point x="192" y="406"/>
      <point x="192" y="299" type="curve" smooth="yes"/>
      <point x="192" y="211"/>
      <point x="251" y="145"/>
      <point x="330" y="145" type="curve" smooth="yes"/>
      <point x="380" y="145"/>
      <point x="427" y="169"/>
      <point x="455" y="208" type="curve"/>
      <point x="463" y="175"/>
      <point x="494" y="154" name="hr01"/>
      <point x="534" y="154" type="curve" smooth="yes"/>
      <point x="624" y="154"/>
      <point x="705" y="265"/>
      <point x="705" y="390" type="curve" smooth="yes"/>
      <point x="705" y="560"/>
      <point x="575" y="679"/>
      <point x="389" y="679" type="curve" smooth="yes"/>
      <point x="191" y="679"/>
      <point x="30" y="519"/>
      <point x="30" y="321" type="curve" smooth="yes"/>
      <point x="30" y="229"/>
      <point x="68" y="138"/>
      <point x="133" y="77" type="curve" smooth="yes"/>
      <point x="197" y="17"/>
      <point x="278" y="-12"/>
      <point x="385" y="-12" type="curve" smooth="yes"/>
      <point x="456" y="-12"/>
      <point x="528" y="-1"/>
      <point x="586" y="18" type="curve"/>
      <point x="567" y="99" type="line"/>
      <point x="505" y="79"/>
      <point x="448" y="69"/>
      <point x="387" y="69" type="curve" smooth="yes"/>
      <point x="299" y="69"/>
      <point x="240" y="90"/>
      <point x="193" y="139" type="curve" smooth="yes"/>
      <point x="149" y="185"/>
      <point x="123" y="252"/>
      <point x="123" y="321" type="curve" smooth="yes"/>
      <point x="123" y="477"/>
      <point x="243" y="599"/>
      <point x="397" y="599" type="curve" smooth="yes"/>
      <point x="536" y="599"/>
      <point x="627" y="516"/>
      <point x="627" y="389" type="curve" smooth="yes"/>
      <point x="627" y="311"/>
      <point x="582" y="227"/>
      <point x="541" y="227" type="curve" smooth="yes"/>
      <point x="527" y="227"/>
      <point x="519" y="238"/>
      <point x="519" y="258" type="curve" smooth="yes"/>
      <point x="519" y="265"/>
      <point x="521" y="280"/>
      <point x="526" y="302" type="curve" smooth="yes"/>
      <point x="567" y="491" type="line"/>
    </contour>
    <contour>
      <point x="384" y="409" type="curve" smooth="yes"/>
      <point x="420" y="409"/>
      <point x="445" y="381"/>
      <point x="445" y="341" type="curve" smooth="yes"/>
      <point x="445" y="286"/>
      <point x="404" y="236" name="hr02"/>
      <point x="359" y="236" type="curve" smooth="yes"/>
      <point x="322" y="236"/>
      <point x="297" y="264"/>
      <point x="297" y="305" type="curve" smooth="yes"/>
      <point x="297" y="360"/>
      <point x="338" y="409"/>
    </contour>
  </outline>
</glyph>
<glyph name="A" format="2">
  <advance width="665"/>
  <unicode hex="0041"/>
  <outline>
    <contour>
      <point x="458" y="667" type="line"/>
      <point x="220" y="667" type="line"/>
      <point x="-20" y="0" type="line"/>
      <point x="174" y="0" type="line"/>
      <point x="207" y="99" type="line"/>
      <point x="423" y="99" type="line"/>
      <point x="449" y="0" type="line"/>
      <point x="663" y="0" type="line"/>
    </contour>
    <contour>
      <point x="387" y="238" type="line"/>
      <point x="254" y="238" type="line"/>
      <point x="328" y="446" type="line"/>
    </contour>
  </outline>
</glyph>
<glyph name="B" format="2">
  <advance width="692"/>
  <unicode hex="0042"/>
  <outline>
    <contour>
      <point x="67" y="0" type="line"/>
      <point x="405" y="0" type="line" smooth="yes"/>
      <point x="565" y="0"/>
      <point x="652" y="71"/>
      <point x="652" y="200" type="curve" smooth="yes"/>
      <point x="652" y="284"/>
      <point x="622" y="328"/>
      <point x="546" y="355" type="curve"/>
      <point x="608" y="390"/>
      <point x="636" y="436" name="hr01"/>
      <point x="636" y="503" type="curve" smooth="yes"/>
      <point x="636" y="604"/>
      <point x="560" y="667"/>
      <point x="439" y="667" type="curve" smooth="yes"/>
      <point x="67" y="667" type="line"/>
    </contour>
    <contour>
      <point x="267" y="400" type="line"/>
      <point x="267" y="514" type="line"/>
      <point x="316" y="514" type="line" smooth="yes"/>
      <point x="396" y="514"/>
      <point x="420" y="502"/>
      <point x="420" y="463" type="curve" smooth="yes"/>
      <point x="420" y="413"/>
      <point x="398" y="400"/>
      <point x="309" y="400" type="curve" smooth="yes"/>
    </contour>
    <contour>
      <point x="267" y="153" type="line"/>
      <point x="267" y="264" type="line"/>
      <point x="304" y="264" type="line" smooth="yes"/>
      <point x="376" y="264"/>
      <point x="372" y="264"/>
      <point x="381" y="262" type="curve" smooth="yes"/>
      <point x="411" y="257"/>
      <point x="428" y="239" name="hr02"/>
      <point x="428" y="213" type="curve" smooth="yes"/>
      <point x="428" y="190"/>
      <point x="419" y="172"/>
      <point x="402" y="163" type="curve" smooth="yes"/>
      <point x="386" y="154"/>
      <point x="375" y="153"/>
      <point x="317" y="153" type="curve" smooth="yes"/>
    </contour>
  </outline>
</glyph>
<glyph name="C" format="2">
  <advance width="670"/>
  <unicode hex="0043"/>
  <outline>
    <contour>
      <point x="667" y="477" type="line"/>
      <point x="644" y="627"/>
      <point x="569" y="684"/>
      <point x="393" y="684" type="curve" smooth="yes"/>
      <point x="278" y="684"/>
      <point x="203" y="659"/>
      <point x="137" y="599" type="curve" smooth="yes"/>
      <point x="65" y="533"/>
      <point x="35" y="455"/>
      <point x="35" y="337" type="curve" smooth="yes"/>
      <point x="35" y="98"/>
      <point x="146" y="-17"/>
      <point x="377" y="-17" type="curve" smooth="yes"/>
      <point x="544" y="-17"/>
      <point x="634" y="47"/>
      <point x="668" y="189" type="curve"/>
      <point x="478" y="259" type="line"/>
      <point x="462" y="177"/>
      <point x="431" y="142"/>
      <point x="374" y="142" type="curve" smooth="yes"/>
      <point x="301" y="142"/>
      <point x="257" y="210"/>
      <point x="257" y="325" type="curve" smooth="yes"/>
      <point x="257" y="452"/>
      <point x="299" y="524"/>
      <point x="374" y="524" type="curve" smooth="yes"/>
      <point x="442" y="524"/>
      <point x="472" y="491"/>
      <point x="478" y="408" type="curve"/>
    </contour>
  </outline>
</glyph>
<glyph name="D" format="2">
  <advance width="729"/>
  <unicode hex="0044"/>
  <outline>
    <contour>
      <point x="67" y="667" type="line"/>
      <point x="67" y="0" type="line"/>
      <point x="367" y="0" type="line" smooth="yes"/>
      <point x="579" y="0"/>
      <point x="695" y="121"/>
      <point x="695" y="341" type="curve" smooth="yes"/>
      <point x="695" y="475"/>
      <point x="662" y="553"/>
      <point x="583" y="609" type="curve"/>
      <point x="530" y="645"/>
      <point x="455" y="667"/>
      <point x="381" y="667" type="curve" smooth="yes"/>
    </contour>
    <contour>
      <point x="274" y="507" type="line"/>
      <point x="318" y="507" type="line" smooth="yes"/>
      <point x="365" y="507"/>
      <point x="390" y="503"/>
      <point x="412" y="492" type="curve" smooth="yes"/>
      <point x="454" y="470"/>
      <point x="478" y="417"/>
      <point x="478" y="344" type="curve" smooth="yes"/>
      <point x="478" y="282"/>
      <point x="459" y="223"/>
      <point x="428" y="193" type="curve" smooth="yes"/>
      <point x="403" y="168"/>
      <point x="376" y="160"/>
      <point x="321" y="160" type="curve" smooth="yes"/>
      <point x="274" y="160" type="line"/>
    </contour>
  </outline>
</glyph>
<glyph name="E" format="2">
  <advance width="607"/>
  <unicode hex="0045"/>
  <outline>
    <contour>
      <point x="274" y="410" type="line"/>
      <point x="274" y="507" type="line"/>
      <point x="528" y="507" type="line"/>
      <point x="528" y="667" type="line"/>
      <point x="67" y="667" type="line"/>
      <point x="67" y="0" type="line"/>
      <point x="568" y="0" type="line"/>
      <point x="568" y="160" type="line"/>
      <point x="274" y="160" type="line"/>
      <point x="274" y="260" type="line"/>
      <point x="528" y="260" type="line"/>
      <point x="528" y="410" type="line"/>
    </contour>
  </outline>
</glyph>
<glyph name="F" format="2">
  <advance width="551"/>
  <unicode hex="0046"/>
  <outline>
    <contour>
      <point x="274" y="397" type="line"/>
      <point x="274" y="507" type="line"/>
      <point x="528" y="507" type="line"/>
      <point x="528" y="667" type="line"/>
      <point x="67" y="667" type="line"/>
      <point x="67" y="0" type="line"/>
      <point x="274" y="0" type="line"/>
      <point x="274" y="247" type="line"/>
      <point x="528" y="247" type="line"/>
      <point x="528" y="397" type="line"/>
    </contour>
  </outline>
</glyph>
<glyph name="G" format="2">
  <advance width="728"/>
  <unicode hex="0047"/>
  <outline>
    <contour>
      <point x="372" y="372" type="line"/>
      <point x="372" y="215" type="line"/>
      <point x="468" y="215" type="line"/>
      <point x="468" y="141" type="line"/>
      <point x="461" y="141"/>
      <point x="456" y="141"/>
      <point x="453" y="140" type="curve"/>
      <point x="437" y="140"/>
      <point x="425" y="139"/>
      <point x="424" y="139" type="curve"/>
      <point x="387" y="139"/>
      <point x="361" y="142"/>
      <point x="343" y="148" type="curve" smooth="yes"/>
      <point x="289" y="167"/>
      <point x="257" y="230"/>
      <point x="257" y="316" type="curve" smooth="yes"/>
      <point x="257" y="444"/>
      <point x="305" y="523"/>
      <point x="381" y="523" type="curve" smooth="yes"/>
      <point x="442" y="523"/>
      <point x="470" y="500"/>
      <point x="487" y="440" type="curve"/>
      <point x="670" y="509" type="line"/>
      <point x="661" y="622"/>
      <point x="565" y="684"/>
      <point x="401" y="684" type="curve" smooth="yes"/>
      <point x="273" y="684"/>
      <point x="181" y="650"/>
      <point x="115" y="580" type="curve" smooth="yes"/>
      <point x="59" y="520"/>
      <point x="35" y="444"/>
      <point x="35" y="326" type="curve" smooth="yes"/>
      <point x="35" y="209"/>
      <point x="58" y="136"/>
      <point x="115" y="78" type="curve" smooth="yes"/>
      <point x="176" y="16"/>
      <point x="267" y="-17"/>
      <point x="373" y="-17" type="curve" smooth="yes"/>
      <point x="397" y="-17"/>
      <point x="442" y="-15"/>
      <point x="487" y="-11" type="curve" smooth="yes"/>
      <point x="552" y="-6"/>
      <point x="589" y="-4"/>
      <point x="671" y="0" type="curve"/>
      <point x="671" y="372" type="line"/>
    </contour>
  </outline>
</glyph>
<glyph name="H" format="2">
  <advance width="742"/>
  <unicode hex="0048"/>
  <outline>
    <contour>
      <point x="675" y="667" type="line"/>
      <point x="468" y="667" type="line"/>
      <point x="468" y="416" type="line"/>
      <point x="274" y="416" type="line"/>
      <point x="274" y="667" type="line"/>
      <point x="67" y="667" type="line"/>
      <point x="67" y="0" type="line"/>
      <point x="274" y="0" type="line"/>
      <point x="274" y="251" type="line"/>
      <point x="468" y="251" type="line"/>
      <point x="468" y="0" type="line"/>
      <point x="675" y="0" type="line"/>
    </contour>
  </outline>
</glyph>
<glyph name="I" format="2">
  <advance width="340"/>
  <unicode hex="0049"/>
  <outline>
    <contour>
      <point x="274" y="667" type="line"/>
      <point x="67" y="667" type="line"/>
      <point x="67" y="0" type="line"/>
      <point x="274" y="0" type="line"/>
    </contour>
  </outline>
</glyph>
<glyph name="J" format="2">
  <advance width="553"/>
  <unicode hex="004A"/>
  <outline>
    <contour>
      <point x="493" y="667" type="line"/>
      <point x="286" y="667" type="line"/>
      <point x="286" y="262" type="line" smooth="yes"/>
      <point x="286" y="222"/>
      <point x="285" y="205"/>
      <point x="281" y="193" type="curve" smooth="yes"/>
      <point x="273" y="166"/>
      <point x="251" y="149"/>
      <point x="224" y="149" type="curve" smooth="yes"/>
      <point x="187" y="149"/>
      <point x="173" y="169"/>
      <point x="172" y="225" type="curve"/>
      <point x="-25" y="168" type="line"/>
      <point x="-6" y="31"/>
      <point x="48" y="-17"/>
      <point x="182" y="-17" type="curve" smooth="yes"/>
      <point x="287" y="-17"/>
      <point x="375" y="9"/>
      <point x="427" y="55" type="curve" smooth="yes"/>
      <point x="475" y="96"/>
      <point x="493" y="154"/>
      <point x="493" y="262" type="curve" smooth="yes"/>
    </contour>
  </outline>
</glyph>
<glyph name="K" format="2">
  <advance width="695"/>
  <unicode hex="004B"/>
  <outline>
    <contour>
      <point x="270" y="667" type="line"/>
      <point x="67" y="667" type="line"/>
      <point x="67" y="0" type="line"/>
      <point x="270" y="0" type="line"/>
      <point x="270" y="281" type="line"/>
      <point x="451" y="0" type="line"/>
      <point x="715" y="0" type="line"/>
      <point x="479" y="357" type="line"/>
      <point x="681" y="667" type="line"/>
      <point x="449" y="667" type="line"/>
      <point x="270" y="388" type="line"/>
    </contour>
  </outline>
</glyph>
<glyph name="L" format="2">
  <advance width="519"/>
  <unicode hex="004C"/>
  <outline>
    <contour>
      <point x="274" y="667" type="line"/>
      <point x="67" y="667" type="line"/>
      <point x="67" y="0" type="line"/>
      <point x="512" y="0" type="line"/>
      <point x="512" y="160" type="line"/>
      <point x="274" y="160" type="line"/>
    </contour>
  </outline>
</glyph>
<glyph name="M" format="2">
  <advance width="964"/>
  <unicode hex="004D"/>
  <outline>
    <contour>
      <point x="897" y="667" type="line"/>
      <point x="629" y="667" type="line"/>
      <point x="483" y="317" type="line"/>
      <point x="341" y="667" type="line"/>
      <point x="67" y="667" type="line"/>
      <point x="67" y="0" type="line"/>
      <point x="267" y="0" type="line"/>
      <point x="267" y="386" type="line"/>
      <point x="405" y="0" type="line"/>
      <point x="563" y="0" type="line"/>
      <point x="697" y="386" type="line"/>
      <point x="697" y="0" type="line"/>
      <point x="897" y="0" type="line"/>
    </contour>
  </outline>
</glyph>
<glyph name="N" format="2">
  <advance width="797"/>
  <unicode hex="004E"/>
  <outline>
    <contour>
      <point x="731" y="667" type="line"/>
      <point x="524" y="667" type="line"/>
      <point x="524" y="320" type="line"/>
      <point x="264" y="667" type="line"/>
      <point x="67" y="667" type="line"/>
      <point x="67" y="0" type="line"/>
      <point x="274" y="0" type="line"/>
      <point x="274" y="331" type="line"/>
      <point x="524" y="0" type="line"/>
      <point x="731" y="0" type="line"/>
    </contour>
  </outline>
</glyph>
<glyph name="O" format="2">
  <advance width="779"/>
  <unicode hex="004F"/>
  <outline>
    <contour>
      <point x="390" y="684" type="curve" smooth="yes"/>
      <point x="165" y="684"/>
      <point x="35" y="558"/>
      <point x="35" y="340" type="curve" smooth="yes"/>
      <point x="35" y="199"/>
      <point x="70" y="114"/>
      <point x="156" y="51" type="curve" smooth="yes"/>
      <point x="218" y="5"/>
      <point x="294" y="-17"/>
      <point x="390" y="-17" type="curve" smooth="yes"/>
      <point x="486" y="-17"/>
      <point x="562" y="5"/>
      <point x="624" y="51" type="curve" smooth="yes"/>
      <point x="708" y="113"/>
      <point x="745" y="199"/>
      <point x="745" y="333" type="curve" smooth="yes"/>
      <point x="745" y="468"/>
      <point x="708" y="555"/>
      <point x="624" y="616" type="curve" smooth="yes"/>
      <point x="561" y="662"/>
      <point x="486" y="684"/>
    </contour>
    <contour>
      <point x="390" y="524" type="curve" smooth="yes"/>
      <point x="470" y="524"/>
      <point x="522" y="449"/>
      <point x="522" y="334" type="curve" smooth="yes"/>
      <point x="522" y="218"/>
      <point x="470" y="143"/>
      <point x="390" y="143" type="curve" smooth="yes"/>
      <point x="310" y="143"/>
      <point x="258" y="218"/>
      <point x="258" y="334" type="curve" smooth="yes"/>
      <point x="258" y="450"/>
      <point x="310" y="524"/>
    </contour>
  </outline>
</glyph>
<glyph name="P" format="2">
  <advance width="644"/>
  <unicode hex="0050"/>
  <outline>
    <contour>
      <point x="67" y="0" type="line"/>
      <point x="273" y="0" type="line"/>
      <point x="273" y="219" type="line"/>
      <point x="304" y="219" type="line" smooth="yes"/>
      <point x="392" y="219"/>
      <point x="428" y="223"/>
      <point x="476" y="240" type="curve" smooth="yes"/>
      <point x="571" y="274"/>
      <point x="624" y="351"/>
      <point x="624" y="455" type="curve" smooth="yes"/>
      <point x="624" y="527"/>
      <point x="597" y="586"/>
      <point x="546" y="624" type="curve" smooth="yes"/>
      <point x="502" y="657"/>
      <point x="463" y="667"/>
      <point x="383" y="667" type="curve" smooth="yes"/>
      <point x="67" y="667" type="line"/>
    </contour>
    <contour>
      <point x="273" y="383" type="line"/>
      <point x="273" y="506" type="line"/>
      <point x="295" y="506" type="line"/>
      <point x="326" y="506" type="line" smooth="yes"/>
      <point x="383" y="506"/>
      <point x="411" y="486"/>
      <point x="411" y="443" type="curve" smooth="yes"/>
      <point x="411" y="398"/>
      <point x="384" y="383"/>
      <point x="300" y="383" type="curve" smooth="yes"/>
    </contour>
  </outline>
</glyph>
<glyph name="Q" format="2">
  <advance width="782"/>
  <unicode hex="0051"/>
  <outline>
    <contour>
      <point x="959" y="-83" type="line"/>
      <point x="571" y="21" type="line"/>
      <point x="695" y="81"/>
      <point x="748" y="175"/>
      <point x="748" y="337" type="curve" smooth="yes"/>
      <point x="748" y="460"/>
      <point x="717" y="540"/>
      <point x="646" y="601" type="curve" smooth="yes"/>
      <point x="583" y="655"/>
      <point x="496" y="684"/>
      <point x="396" y="684" type="curve" smooth="yes"/>
      <point x="284" y="684"/>
      <point x="182" y="647"/>
      <point x="118" y="583" type="curve" smooth="yes"/>
      <point x="61" y="526"/>
      <point x="34" y="447"/>
      <point x="34" y="341" type="curve" smooth="yes"/>
      <point x="34" y="155"/>
      <point x="109" y="47"/>
      <point x="272" y="-3" type="curve"/>
      <point x="800" y="-211" type="line"/>
    </contour>
    <contour>
      <point x="390" y="524" type="curve" smooth="yes"/>
      <point x="472" y="524"/>
      <point x="522" y="451"/>
      <point x="522" y="334" type="curve" smooth="yes"/>
      <point x="522" y="217"/>
      <point x="471" y="144"/>
      <point x="390" y="144" type="curve" smooth="yes"/>
      <point x="309" y="144"/>
      <point x="258" y="217"/>
      <point x="258" y="334" type="curve" smooth="yes"/>
      <point x="258" y="452"/>
      <point x="308" y="524"/>
    </contour>
  </outline>
</glyph>
<glyph name="R" format="2">
  <advance width="678"/>
  <unicode hex="0052"/>
  <outline>
    <contour>
      <point x="67" y="0" type="line"/>
      <point x="271" y="0" type="line"/>
      <point x="271" y="239" type="line"/>
      <point x="325" y="239" type="line"/>
      <point x="422" y="0" type="line"/>
      <point x="659" y="0" type="line"/>
      <point x="520" y="279" type="line"/>
      <point x="591" y="325"/>
      <point x="620" y="379"/>
      <point x="620" y="465" type="curve" smooth="yes"/>
      <point x="620" y="538"/>
      <point x="589" y="597"/>
      <point x="533" y="634" type="curve" smooth="yes"/>
      <point x="493" y="660"/>
      <point x="456" y="667"/>
      <point x="367" y="667" type="curve" smooth="yes"/>
      <point x="352" y="667" type="line"/>
      <point x="67" y="667" type="line"/>
    </contour>
    <contour>
      <point x="271" y="390" type="line"/>
      <point x="271" y="503" type="line"/>
      <point x="293" y="505" type="line"/>
      <point x="308" y="505" type="line" smooth="yes"/>
      <point x="381" y="505"/>
      <point x="407" y="490"/>
      <point x="407" y="449" type="curve" smooth="yes"/>
      <point x="407" y="405"/>
      <point x="383" y="390"/>
      <point x="314" y="390" type="curve" smooth="yes"/>
      <point x="308" y="390" type="line"/>
    </contour>
  </outline>
</glyph>
<glyph name="S" format="2">
  <advance width="636"/>
  <unicode hex="0053"/>
  <outline>
    <contour>
      <point x="597" y="533" type="line"/>
      <point x="564" y="638"/>
      <point x="481" y="684"/>
      <point x="324" y="684" type="curve" smooth="yes"/>
      <point x="149" y="684"/>
      <point x="41" y="603"/>
      <point x="41" y="471" type="curve" smooth="yes"/>
      <point x="41" y="367"/>
      <point x="117" y="284"/>
      <point x="233" y="260" type="curve" smooth="yes"/>
      <point x="315" y="244"/>
      <point x="311" y="245"/>
      <point x="333" y="237" type="curve" smooth="yes"/>
      <point x="360" y="227"/>
      <point x="374" y="210"/>
      <point x="374" y="189" type="curve" smooth="yes"/>
      <point x="374" y="158"/>
      <point x="349" y="142"/>
      <point x="302" y="142" type="curve" smooth="yes"/>
      <point x="247" y="142"/>
      <point x="215" y="165"/>
      <point x="194" y="220" type="curve"/>
      <point x="-1" y="163" type="line"/>
      <point x="46" y="38"/>
      <point x="137" y="-17"/>
      <point x="299" y="-17" type="curve" smooth="yes"/>
      <point x="395" y="-17"/>
      <point x="455" y="-2"/>
      <point x="507" y="36" type="curve" smooth="yes"/>
      <point x="568" y="80"/>
      <point x="601" y="144"/>
      <point x="601" y="216" type="curve" smooth="yes"/>
      <point x="601" y="325"/>
      <point x="538" y="388"/>
      <point x="401" y="417" type="curve" smooth="yes"/>
      <point x="309" y="436"/>
      <point x="314" y="435"/>
      <point x="287" y="447" type="curve" smooth="yes"/>
      <point x="264" y="457"/>
      <point x="252" y="471"/>
      <point x="252" y="490" type="curve" smooth="yes"/>
      <point x="252" y="520"/>
      <point x="283" y="543"/>
      <point x="325" y="543" type="curve" smooth="yes"/>
      <point x="371" y="543"/>
      <point x="405" y="515"/>
      <point x="419" y="465" type="curve"/>
    </contour>
  </outline>
</glyph>
<glyph name="T" format="2">
  <advance width="501"/>
  <unicode hex="0054"/>
  <outline>
    <contour>
      <point x="354" y="509" type="line"/>
      <point x="528" y="509" type="line"/>
      <point x="528" y="667" type="line"/>
      <point x="-27" y="667" type="line"/>
      <point x="-27" y="509" type="line"/>
      <point x="147" y="509" type="line"/>
      <point x="147" y="0" type="line"/>
      <point x="354" y="0" type="line"/>
    </contour>
  </outline>
</glyph>
<glyph name="U" format="2">
  <advance width="728"/>
  <unicode hex="0055"/>
  <outline>
    <contour>
      <point x="60" y="667" type="line"/>
      <point x="60" y="278" type="line" smooth="yes"/>
      <point x="60" y="194"/>
      <point x="69" y="150"/>
      <point x="95" y="104" type="curve" smooth="yes"/>
      <point x="142" y="20"/>
      <point x="224" y="-17"/>
      <point x="364" y="-17" type="curve" smooth="yes"/>
      <point x="485" y="-17"/>
      <point x="559" y="9"/>
      <point x="610" y="70" type="curve" smooth="yes"/>
      <point x="653" y="121"/>
      <point x="668" y="176"/>
      <point x="668" y="278" type="curve" smooth="yes"/>
      <point x="668" y="667" type="line"/>
      <point x="461" y="667" type="line"/>
      <point x="461" y="281" type="line" smooth="yes"/>
      <point x="461" y="176"/>
      <point x="438" y="143"/>
      <point x="364" y="143" type="curve" smooth="yes"/>
      <point x="290" y="143"/>
      <point x="267" y="175"/>
      <point x="267" y="281" type="curve" smooth="yes"/>
      <point x="267" y="667" type="line"/>
    </contour>
  </outline>
</glyph>
<glyph name="V" format="2">
  <advance width="651"/>
  <unicode hex="0056"/>
  <outline>
    <contour>
      <point x="214" y="667" type="line"/>
      <point x="-8" y="667" type="line"/>
      <point x="207" y="0" type="line"/>
      <point x="427" y="0" type="line"/>
      <point x="679" y="667" type="line"/>
      <point x="477" y="667" type="line"/>
      <point x="331" y="245" type="line"/>
    </contour>
  </outline>
</glyph>
<glyph name="W" format="2">
  <advance width="1003"/>
  <unicode hex="0057"/>
  <outline>
    <contour>
      <point x="231" y="667" type="line"/>
      <point x="13" y="667" type="line"/>
      <point x="181" y="0" type="line"/>
      <point x="372" y="0" type="line"/>
      <point x="501" y="345" type="line"/>
      <point x="607" y="0" type="line"/>
      <point x="795" y="0" type="line"/>
      <point x="1017" y="667" type="line"/>
      <point x="811" y="667" type="line"/>
      <point x="692" y="329" type="line"/>
      <point x="602" y="667" type="line"/>
      <point x="423" y="667" type="line"/>
      <point x="311" y="336" type="line"/>
    </contour>
  </outline>
</glyph>
<glyph name="X" format="2">
  <advance width="637"/>
  <unicode hex="0058"/>
  <outline>
    <contour>
      <point x="417" y="667" type="line"/>
      <point x="333" y="542" type="line"/>
      <point x="259" y="667" type="line"/>
      <point x="14" y="667" type="line"/>
      <point x="201" y="349" type="line"/>
      <point x="-35" y="0" type="line"/>
      <point x="209" y="0" type="line"/>
      <point x="313" y="159" type="line"/>
      <point x="407" y="0" type="line"/>
      <point x="658" y="0" type="line"/>
      <point x="442" y="360" type="line"/>
      <point x="642" y="667" type="line"/>
    </contour>
  </outline>
</glyph>
<glyph name="Z" format="2">
  <advance width="581"/>
  <unicode hex="005A"/>
  <outline>
    <contour>
      <point x="35" y="667" type="line"/>
      <point x="35" y="507" type="line"/>
      <point x="291" y="507" type="line"/>
      <point x="6" y="145" type="line"/>
      <point x="6" y="0" type="line"/>
      <point x="578" y="0" type="line"/>
      <point x="578" y="160" type="line"/>
      <point x="278" y="160" type="line"/>
      <point x="546" y="514" type="line"/>
      <point x="546" y="667" type="line"/>
    </contour>
  </outline>
</glyph>
<glyph name="bracketleft" format="2">
  <advance width="326"/>
  <unicode hex="005B"/>
  <outline>
    <contour>
      <point x="189" y="-143" type="line" name="hr02"/>
      <point x="189" y="626" type="line"/>
      <point x="288" y="642" type="line" name="hr01"/>
      <point x="288" y="700" type="line"/>
      <point x="51" y="700" type="line"/>
      <point x="51" y="-213" type="line"/>
      <point x="288" y="-213" type="line"/>
      <point x="288" y="-154" type="line"/>
    </contour>
  </outline>
</glyph>
<glyph name="backslash" format="2">
  <advance width="461"/>
  <unicode hex="005C"/>
  <outline>
    <contour>
      <point x="59" y="695" type="line"/>
      <point x="342" y="-220" type="line"/>
      <point x="441" y="-206" type="line"/>
      <point x="157" y="707" type="line"/>
    </contour>
  </outline>
</glyph>
<glyph name="bracketright" format="2">
  <advance width="326"/>
  <unicode hex="005D"/>
  <outline>
    <contour>
      <point x="136" y="-139" type="line"/>
      <point x="38" y="-155" type="line" name="hr01"/>
      <point x="38" y="-213" type="line"/>
      <point x="274" y="-213" type="line"/>
      <point x="274" y="700" type="line"/>
      <point x="38" y="700" type="line"/>
      <point x="38" y="641" type="line"/>
      <point x="136" y="630" type="line" name="hr02"/>
    </contour>
  </outline>
</glyph>
<glyph name="asciicircum" format="2">
  <advance width="607"/>
  <unicode hex="005E"/>
  <outline>
    <contour>
      <point x="233" y="333" type="line"/>
      <point x="304" y="536" type="line"/>
      <point x="375" y="333" type="line"/>
      <point x="550" y="333" type="line"/>
      <point x="415" y="672" type="line"/>
      <point x="192" y="672" type="line"/>
      <point x="57" y="333" type="line"/>
    </contour>
  </outline>
</glyph>
<glyph name="underscore" format="2">
  <advance width="607"/>
  <unicode hex="005F"/>
  <outline>
    <contour>
      <point x="0" y="-46" type="line"/>
      <point x="0" y="-163" type="line"/>
      <point x="607" y="-163" type="line"/>
      <point x="607" y="-46" type="line"/>
    </contour>
  </outline>
</glyph>
<glyph name="grave" format="2">
  <advance width="500"/>
  <unicode hex="0060"/>
  <outline>
    <contour>
      <point x="179" y="715" type="line"/>
      <point x="34" y="666" type="line"/>
      <point x="266" y="519" type="line"/>
      <point x="333" y="532" type="line"/>
    </contour>
  </outline>
</glyph>
<glyph name="a" format="2">
  <advance width="633"/>
  <unicode hex="0061"/>
  <outline>
    <contour>
      <point x="582" y="467" type="line"/>
      <point x="389" y="467" type="line"/>
      <point x="389" y="413" type="line"/>
      <point x="358" y="464"/>
      <point x="327" y="480" name="hr01"/>
      <point x="259" y="480" type="curve" smooth="yes"/>
      <point x="113" y="480"/>
      <point x="33" y="392"/>
      <point x="33" y="229" type="curve" smooth="yes"/>
      <point x="33" y="76"/>
      <point x="109" y="-13"/>
      <point x="240" y="-13" type="curve" smooth="yes"/>
      <point x="311" y="-13"/>
      <point x="349" y="2"/>
      <point x="389" y="46" type="curve"/>
      <point x="389" y="0" type="line"/>
      <point x="582" y="0" type="line"/>
    </contour>
    <contour>
      <point x="315" y="343" type="curve" smooth="yes"/>
      <point x="361" y="343"/>
      <point x="389" y="303"/>
      <point x="389" y="235" type="curve" smooth="yes"/>
      <point x="389" y="159"/>
      <point x="364" y="123"/>
      <point x="311" y="123" type="curve" smooth="yes"/>
      <point x="264" y="123"/>
      <point x="238" y="162"/>
      <point x="238" y="233" type="curve" smooth="yes"/>
      <point x="238" y="305"/>
      <point x="265" y="343"/>
    </contour>
  </outline>
</glyph>
<glyph name="b" format="2">
  <advance width="635"/>
  <unicode hex="0062"/>
  <outline>
    <contour>
      <point x="243" y="700" type="line"/>
      <point x="50" y="700" type="line"/>
      <point x="50" y="0" type="line"/>
      <point x="218" y="0" type="line"/>
      <point x="243" y="41" type="line"/>
      <point x="295" y="0"/>
      <point x="327" y="-13"/>
      <point x="382" y="-13" type="curve" smooth="yes"/>
      <point x="518" y="-13"/>
      <point x="602" y="83"/>
      <point x="602" y="238" type="curve" smooth="yes"/>
      <point x="602" y="391"/>
      <point x="523" y="480"/>
      <point x="388" y="480" type="curve" smooth="yes"/>
      <point x="332" y="480"/>
      <point x="293" y="465"/>
      <point x="243" y="424" type="curve"/>
    </contour>
    <contour>
      <point x="323" y="343" type="curve" smooth="yes"/>
      <point x="370" y="343"/>
      <point x="397" y="303"/>
      <point x="397" y="233" type="curve" smooth="yes"/>
      <point x="397" y="164"/>
      <point x="369" y="123"/>
      <point x="322" y="123" type="curve" smooth="yes"/>
      <point x="272" y="123"/>
      <point x="243" y="163"/>
      <point x="243" y="235" type="curve" smooth="yes"/>
      <point x="243" y="302"/>
      <point x="273" y="343"/>
    </contour>
  </outline>
</glyph>
<glyph name="c" format="2">
  <advance width="550"/>
  <unicode hex="0063"/>
  <outline>
    <contour>
      <point x="546" y="325" type="line"/>
      <point x="521" y="436"/>
      <point x="451" y="480"/>
      <point x="302" y="480" type="curve" smooth="yes"/>
      <point x="212" y="480"/>
      <point x="155" y="464"/>
      <point x="112" y="427" type="curve" smooth="yes"/>
      <point x="61" y="383"/>
      <point x="33" y="314"/>
      <point x="33" y="231" type="curve" smooth="yes"/>
      <point x="33" y="145"/>
      <point x="64" y="70"/>
      <point x="116" y="30" type="curve" smooth="yes"/>
      <point x="153" y="2"/>
      <point x="211" y="-13"/>
      <point x="284" y="-13" type="curve" smooth="yes"/>
      <point x="359" y="-13"/>
      <point x="421" y="1"/>
      <point x="467" y="28" type="curve" smooth="yes"/>
      <point x="510" y="54"/>
      <point x="532" y="86"/>
      <point x="550" y="151" type="curve"/>
      <point x="365" y="198" type="line"/>
      <point x="359" y="133"/>
      <point x="339" y="103"/>
      <point x="302" y="103" type="curve" smooth="yes"/>
      <point x="259" y="103"/>
      <point x="238" y="141"/>
      <point x="238" y="218" type="curve" smooth="yes"/>
      <point x="238" y="314"/>
      <point x="264" y="366"/>
      <point x="312" y="366" type="curve" smooth="yes"/>
      <point x="350" y="366"/>
      <point x="368" y="336" name="hr01"/>
      <point x="368" y="274" type="curve"/>
    </contour>
  </outline>
</glyph>
<glyph name="d" format="2">
  <advance width="633"/>
  <unicode hex="0064"/>
  <outline>
    <contour>
      <point x="582" y="700" type="line"/>
      <point x="389" y="700" type="line"/>
      <point x="389" y="427" type="line"/>
      <point x="357" y="465"/>
      <point x="320" y="480"/>
      <point x="257" y="480" type="curve" smooth="yes"/>
      <point x="113" y="480"/>
      <point x="33" y="391"/>
      <point x="33" y="229" type="curve" smooth="yes"/>
      <point x="33" y="74"/>
      <point x="109" y="-13"/>
      <point x="245" y="-13" type="curve" smooth="yes"/>
      <point x="304" y="-13"/>
      <point x="341" y="0" name="hr01"/>
      <point x="389" y="40" type="curve"/>
      <point x="389" y="0" type="line"/>
      <point x="582" y="0" type="line"/>
    </contour>
    <contour>
      <point x="315" y="343" type="curve" smooth="yes"/>
      <point x="362" y="343"/>
      <point x="389" y="303"/>
      <point x="389" y="235" type="curve" smooth="yes"/>
      <point x="389" y="159"/>
      <point x="364" y="123" name="hr02"/>
      <point x="311" y="123" type="curve" smooth="yes"/>
      <point x="264" y="123"/>
      <point x="238" y="162"/>
      <point x="238" y="233" type="curve" smooth="yes"/>
      <point x="238" y="305"/>
      <point x="265" y="343"/>
    </contour>
  </outline>
</glyph>
<glyph name="e" format="2">
  <advance width="579"/>
  <unicode hex="0065"/>
  <outline>
    <contour>
      <point x="544" y="201" type="line"/>
      <point x="545" y="217"/>
      <point x="546" y="231"/>
      <point x="546" y="237" type="curve" smooth="yes"/>
      <point x="546" y="400"/>
      <point x="463" y="480"/>
      <point x="296" y="480" type="curve" smooth="yes"/>
      <point x="121" y="480"/>
      <point x="33" y="397"/>
      <point x="33" y="230" type="curve" smooth="yes"/>
      <point x="33" y="68"/>
      <point x="117" y="-13"/>
      <point x="286" y="-13" type="curve" smooth="yes"/>
      <point x="415" y="-13"/>
      <point x="492" y="29"/>
      <point x="525" y="119" type="curve"/>
      <point x="355" y="153" type="line"/>
      <point x="344" y="111"/>
      <point x="325" y="95"/>
      <point x="289" y="95" type="curve" smooth="yes"/>
      <point x="247" y="95"/>
      <point x="227" y="125"/>
      <point x="227" y="191" type="curve" smooth="yes"/>
      <point x="227" y="201" type="line"/>
    </contour>
    <contour>
      <point x="230" y="293" type="line"/>
      <point x="235" y="346"/>
      <point x="256" y="372"/>
      <point x="294" y="372" type="curve" smooth="yes"/>
      <point x="338" y="372"/>
      <point x="358" y="349"/>
      <point x="360" y="293" type="curve"/>
    </contour>
  </outline>
</glyph>
<glyph name="f" format="2">
  <advance width="359"/>
  <unicode hex="0066"/>
  <outline>
    <contour>
      <point x="348" y="467" type="line"/>
      <point x="264" y="467" type="line"/>
      <point x="264" y="489" type="line" smooth="yes"/>
      <point x="264" y="531"/>
      <point x="281" y="552"/>
      <point x="316" y="552" type="curve" smooth="yes"/>
      <point x="328" y="552"/>
      <point x="333" y="551"/>
      <point x="348" y="548" type="curve"/>
      <point x="378" y="686" type="line"/>
      <point x="327" y="697"/>
      <point x="303" y="700"/>
      <point x="263" y="700" type="curve" smooth="yes"/>
      <point x="124" y="700"/>
      <point x="70" y="642"/>
      <point x="70" y="491" type="curve" smooth="yes"/>
      <point x="70" y="467" type="line"/>
      <point x="5" y="467" type="line"/>
      <point x="5" y="317" type="line"/>
      <point x="70" y="317" type="line"/>
      <point x="70" y="0" type="line"/>
      <point x="264" y="0" type="line"/>
      <point x="264" y="317" type="line"/>
      <point x="348" y="317" type="line"/>
    </contour>
  </outline>
</glyph>
<glyph name="g" format="2">
  <advance width="632"/>
  <unicode hex="0067"/>
  <outline>
    <contour>
      <point x="582" y="467" type="line"/>
      <point x="389" y="467" type="line"/>
      <point x="389" y="420" type="line"/>
      <point x="352" y="464"/>
      <point x="317" y="480" name="hr01"/>
      <point x="252" y="480" type="curve" smooth="yes"/>
      <point x="196" y="480"/>
      <point x="142" y="461"/>
      <point x="104" y="428" type="curve" smooth="yes"/>
      <point x="55" y="386"/>
      <point x="32" y="322"/>
      <point x="32" y="228" type="curve" smooth="yes"/>
      <point x="32" y="75"/>
      <point x="108" y="-13"/>
      <point x="238" y="-13" type="curve" smooth="yes"/>
      <point x="303" y="-13"/>
      <point x="340" y="1"/>
      <point x="389" y="46" type="curve"/>
      <point x="389" y="9" type="line" smooth="yes"/>
      <point x="389" y="-53"/>
      <point x="357" y="-93"/>
      <point x="306" y="-93" type="curve" smooth="yes"/>
      <point x="270" y="-93"/>
      <point x="252" y="-76"/>
      <point x="244" y="-35" type="curve"/>
      <point x="57" y="-78" type="line"/>
      <point x="78" y="-185"/>
      <point x="134" y="-223"/>
      <point x="272" y="-223" type="curve" smooth="yes"/>
      <point x="479" y="-223"/>
      <point x="582" y="-146"/>
      <point x="582" y="7" type="curve" smooth="yes"/>
    </contour>
    <contour>
      <point x="314" y="343" type="curve" smooth="yes"/>
      <point x="361" y="343"/>
      <point x="388" y="303"/>
      <point x="388" y="235" type="curve" smooth="yes"/>
      <point x="388" y="159"/>
      <point x="363" y="123"/>
      <point x="310" y="123" type="curve" smooth="yes"/>
      <point x="263" y="123"/>
      <point x="237" y="162"/>
      <point x="237" y="233" type="curve" smooth="yes"/>
      <point x="237" y="305"/>
      <point x="264" y="343"/>
    </contour>
  </outline>
</glyph>
<glyph name="h" format="2">
  <advance width="623"/>
  <unicode hex="0068"/>
  <outline>
    <contour>
      <point x="243" y="700" type="line"/>
      <point x="50" y="700" type="line"/>
      <point x="50" y="0" type="line"/>
      <point x="243" y="0" type="line"/>
      <point x="243" y="207" type="line" smooth="yes"/>
      <point x="243" y="293"/>
      <point x="261" y="321"/>
      <point x="316" y="321" type="curve" smooth="yes"/>
      <point x="368" y="321"/>
      <point x="380" y="302"/>
      <point x="380" y="219" type="curve" smooth="yes"/>
      <point x="380" y="0" type="line"/>
      <point x="573" y="0" type="line"/>
      <point x="573" y="298" type="line" smooth="yes"/>
      <point x="573" y="358"/>
      <point x="566" y="390"/>
      <point x="547" y="417" type="curve" smooth="yes"/>
      <point x="519" y="457"/>
      <point x="466" y="480"/>
      <point x="403" y="480" type="curve" smooth="yes"/>
      <point x="336" y="480"/>
      <point x="295" y="461"/>
      <point x="243" y="405" type="curve"/>
    </contour>
  </outline>
</glyph>
<glyph name="i" format="2">
  <advance width="293"/>
  <unicode hex="0069"/>
  <outline>
    <contour>
      <point x="243" y="467" type="line"/>
      <point x="50" y="467" type="line"/>
      <point x="50" y="0" type="line"/>
      <point x="243" y="0" type="line"/>
    </contour>
    <contour>
      <point x="144" y="697" type="curve" smooth="yes"/>
      <point x="84" y="697"/>
      <point x="41" y="656"/>
      <point x="41" y="598" type="curve" smooth="yes"/>
      <point x="41" y="540"/>
      <point x="84" y="499"/>
      <point x="144" y="499" type="curve" smooth="yes"/>
      <point x="205" y="499"/>
      <point x="248" y="540"/>
      <point x="248" y="598" type="curve" smooth="yes"/>
      <point x="248" y="656"/>
      <point x="205" y="697"/>
    </contour>
  </outline>
</glyph>
<glyph name="j" format="2">
  <advance width="293"/>
  <unicode hex="006A"/>
  <outline>
    <contour>
      <point x="243" y="467" type="line"/>
      <point x="50" y="467" type="line"/>
      <point x="50" y="7" type="line" smooth="yes"/>
      <point x="50" y="-45"/>
      <point x="22" y="-66"/>
      <point x="-45" y="-66" type="curve" smooth="yes"/>
      <point x="-69" y="-66" type="line"/>
      <point x="-24" y="-213" type="line"/>
      <point x="36" y="-213"/>
      <point x="79" y="-208"/>
      <point x="122" y="-194" type="curve" smooth="yes"/>
      <point x="214" y="-166"/>
      <point x="243" y="-117"/>
      <point x="243" y="6" type="curve" smooth="yes"/>
    </contour>
    <contour>
      <point x="145" y="697" type="curve" smooth="yes"/>
      <point x="84" y="697"/>
      <point x="44" y="660" name="hr01"/>
      <point x="44" y="603" type="curve" smooth="yes"/>
      <point x="44" y="546"/>
      <point x="83" y="509"/>
      <point x="145" y="509" type="curve" smooth="yes"/>
      <point x="206" y="509"/>
      <point x="245" y="546"/>
      <point x="245" y="603" type="curve" smooth="yes"/>
      <point x="245" y="660"/>
      <point x="206" y="697"/>
    </contour>
  </outline>
</glyph>
<glyph name="k" format="2">
  <advance width="599"/>
  <unicode hex="006B"/>
  <outline>
    <contour>
      <point x="243" y="700" type="line"/>
      <point x="50" y="700" type="line"/>
      <point x="50" y="0" type="line"/>
      <point x="243" y="0" type="line"/>
      <point x="243" y="213" type="line"/>
      <point x="363" y="0" type="line"/>
      <point x="607" y="0" type="line"/>
      <point x="430" y="270" type="line"/>
      <point x="579" y="467" type="line"/>
      <point x="376" y="467" type="line"/>
      <point x="243" y="271" type="line"/>
    </contour>
  </outline>
</glyph>
<glyph name="m" format="2">
  <advance width="914"/>
  <unicode hex="006D"/>
  <outline>
    <contour>
      <point x="50" y="467" type="line"/>
      <point x="50" y="0" type="line"/>
      <point x="243" y="0" type="line"/>
      <point x="243" y="204" type="line" smooth="yes"/>
      <point x="243" y="288"/>
      <point x="260" y="320" name="hr01"/>
      <point x="304" y="320" type="curve" smooth="yes"/>
      <point x="343" y="320"/>
      <point x="361" y="292"/>
      <point x="361" y="233" type="curve" smooth="yes"/>
      <point x="361" y="0" type="line"/>
      <point x="554" y="0" type="line"/>
      <point x="554" y="221" type="line" smooth="yes"/>
      <point x="554" y="293"/>
      <point x="571" y="320"/>
      <point x="615" y="320" type="curve" smooth="yes"/>
      <point x="655" y="320"/>
      <point x="672" y="294"/>
      <point x="672" y="232" type="curve" smooth="yes"/>
      <point x="672" y="0" type="line"/>
      <point x="865" y="0" type="line"/>
      <point x="865" y="305" type="line" smooth="yes"/>
      <point x="865" y="421"/>
      <point x="807" y="480"/>
      <point x="692" y="480" type="curve" smooth="yes"/>
      <point x="629" y="480"/>
      <point x="584" y="460"/>
      <point x="534" y="408" type="curve"/>
      <point x="495" y="462"/>
      <point x="457" y="480"/>
      <point x="383" y="480" type="curve" smooth="yes"/>
      <point x="325" y="480"/>
      <point x="288" y="463"/>
      <point x="243" y="414" type="curve"/>
      <point x="243" y="467" type="line"/>
    </contour>
  </outline>
</glyph>
<glyph name="n" format="2">
  <advance width="623"/>
  <unicode hex="006E"/>
  <outline>
    <contour>
      <point x="243" y="467" type="line"/>
      <point x="50" y="467" type="line"/>
      <point x="50" y="0" type="line"/>
      <point x="243" y="0" type="line"/>
      <point x="243" y="207" type="line" smooth="yes"/>
      <point x="243" y="293"/>
      <point x="261" y="321" name="hr01"/>
      <point x="316" y="321" type="curve" smooth="yes"/>
      <point x="368" y="321"/>
      <point x="380" y="302"/>
      <point x="380" y="219" type="curve" smooth="yes"/>
      <point x="380" y="0" type="line"/>
      <point x="573" y="0" type="line"/>
      <point x="573" y="298" type="line" smooth="yes"/>
      <point x="573" y="357"/>
      <point x="566" y="390"/>
      <point x="547" y="417" type="curve" smooth="yes"/>
      <point x="520" y="457"/>
      <point x="466" y="480"/>
      <point x="403" y="480" type="curve" smooth="yes"/>
      <point x="336" y="480"/>
      <point x="296" y="461"/>
      <point x="243" y="405" type="curve"/>
    </contour>
  </outline>
</glyph>
<glyph name="o" format="2">
  <advance width="626"/>
  <unicode hex="006F"/>
  <outline>
    <contour>
      <point x="316" y="480" type="curve" smooth="yes"/>
      <point x="120" y="480"/>
      <point x="33" y="404"/>
      <point x="33" y="233" type="curve" smooth="yes"/>
      <point x="33" y="53"/>
      <point x="105" y="-14"/>
      <point x="298" y="-14" type="curve" smooth="yes"/>
      <point x="407" y="-14"/>
      <point x="473" y="2"/>
      <point x="517" y="40" type="curve" smooth="yes"/>
      <point x="566" y="83"/>
      <point x="593" y="153"/>
      <point x="593" y="239" type="curve" smooth="yes"/>
      <point x="593" y="325"/>
      <point x="566" y="396"/>
      <point x="518" y="433" type="curve" smooth="yes"/>
      <point x="474" y="466"/>
      <point x="416" y="480"/>
    </contour>
    <contour>
      <point x="313" y="345" type="curve" smooth="yes"/>
      <point x="361" y="345"/>
      <point x="388" y="304"/>
      <point x="388" y="234" type="curve" smooth="yes"/>
      <point x="388" y="163"/>
      <point x="361" y="122"/>
      <point x="313" y="122" type="curve" smooth="yes"/>
      <point x="265" y="122"/>
      <point x="238" y="163"/>
      <point x="238" y="234" type="curve" smooth="yes"/>
      <point x="238" y="304"/>
      <point x="265" y="345"/>
    </contour>
  </outline>
</glyph>
<glyph name="p" format="2">
  <advance width="635"/>
  <unicode hex="0070"/>
  <outline>
    <contour>
      <point x="243" y="467" type="line"/>
      <point x="50" y="467" type="line"/>
      <point x="50" y="-213" type="line"/>
      <point x="243" y="-213" type="line"/>
      <point x="243" y="41" type="line"/>
      <point x="294" y="0"/>
      <point x="326" y="-13"/>
      <point x="381" y="-13" type="curve" smooth="yes"/>
      <point x="518" y="-13"/>
      <point x="602" y="83"/>
      <point x="602" y="238" type="curve" smooth="yes"/>
      <point x="602" y="391"/>
      <point x="523" y="480" name="hr01"/>
      <point x="387" y="480" type="curve" smooth="yes"/>
      <point x="321" y="480"/>
      <point x="286" y="464"/>
      <point x="243" y="417" type="curve"/>
    </contour>
    <contour>
      <point x="323" y="343" type="curve" smooth="yes"/>
      <point x="370" y="343"/>
      <point x="397" y="303"/>
      <point x="397" y="233" type="curve" smooth="yes"/>
      <point x="397" y="164"/>
      <point x="369" y="123"/>
      <point x="322" y="123" type="curve" smooth="yes"/>
      <point x="272" y="123"/>
      <point x="243" y="164"/>
      <point x="243" y="235" type="curve" smooth="yes"/>
      <point x="243" y="302"/>
      <point x="273" y="343"/>
    </contour>
  </outline>
</glyph>
<glyph name="q" format="2">
  <advance width="632"/>
  <unicode hex="0071"/>
  <outline>
    <contour>
      <point x="389" y="-213" type="line"/>
      <point x="582" y="-213" type="line"/>
      <point x="582" y="467" type="line"/>
      <point x="424" y="467" type="line"/>
      <point x="389" y="427" type="line"/>
      <point x="357" y="465"/>
      <point x="320" y="480"/>
      <point x="257" y="480" type="curve" smooth="yes"/>
      <point x="113" y="480"/>
      <point x="33" y="391"/>
      <point x="33" y="230" type="curve" smooth="yes"/>
      <point x="33" y="73"/>
      <point x="109" y="-13"/>
      <point x="245" y="-13" type="curve" smooth="yes"/>
      <point x="304" y="-13"/>
      <point x="341" y="1"/>
      <point x="389" y="40" type="curve"/>
    </contour>
    <contour>
      <point x="315" y="343" type="curve" smooth="yes"/>
      <point x="361" y="343"/>
      <point x="389" y="303"/>
      <point x="389" y="235" type="curve" smooth="yes"/>
      <point x="389" y="159"/>
      <point x="364" y="123"/>
      <point x="311" y="123" type="curve" smooth="yes"/>
      <point x="264" y="123"/>
      <point x="238" y="162"/>
      <point x="238" y="233" type="curve" smooth="yes"/>
      <point x="238" y="305"/>
      <point x="265" y="343"/>
    </contour>
  </outline>
</glyph>
<glyph name="r" format="2">
  <advance width="441"/>
  <unicode hex="0072"/>
  <outline>
    <contour>
      <point x="50" y="467" type="line"/>
      <point x="50" y="0" type="line"/>
      <point x="243" y="0" type="line"/>
      <point x="243" y="139" type="line" smooth="yes"/>
      <point x="243" y="249"/>
      <point x="269" y="296" name="hr01"/>
      <point x="331" y="296" type="curve" smooth="yes"/>
      <point x="353" y="296"/>
      <point x="372" y="291"/>
      <point x="399" y="276" type="curve"/>
      <point x="457" y="460" type="line"/>
      <point x="415" y="476"/>
      <point x="394" y="481"/>
      <point x="369" y="481" type="curve" smooth="yes"/>
      <point x="314" y="481"/>
      <point x="280" y="458"/>
      <point x="237" y="390" type="curve"/>
      <point x="237" y="467" type="line"/>
    </contour>
  </outline>
</glyph>
<glyph name="t" format="2">
  <advance width="390"/>
  <unicode hex="0074"/>
  <outline>
    <contour>
      <point x="262" y="642" type="line"/>
      <point x="68" y="579" type="line"/>
      <point x="68" y="467" type="line"/>
      <point x="4" y="467" type="line"/>
      <point x="4" y="319" type="line"/>
      <point x="68" y="319" type="line"/>
      <point x="68" y="213" type="line" smooth="yes"/>
      <point x="68" y="56"/>
      <point x="115" y="0"/>
      <point x="247" y="0" type="curve" smooth="yes"/>
      <point x="301" y="0" type="line"/>
      <point x="341" y="0" type="line"/>
      <point x="376" y="149" type="line"/>
      <point x="288" y="150"/>
      <point x="262" y="174"/>
      <point x="262" y="255" type="curve" smooth="yes"/>
      <point x="262" y="319" type="line"/>
      <point x="359" y="319" type="line"/>
      <point x="359" y="467" type="line"/>
      <point x="262" y="467" type="line"/>
    </contour>
  </outline>
</glyph>
<glyph name="u" format="2">
  <advance width="622"/>
  <unicode hex="0075"/>
  <outline>
    <contour>
      <point x="379" y="0" type="line"/>
      <point x="572" y="0" type="line"/>
      <point x="572" y="467" type="line"/>
      <point x="379" y="467" type="line"/>
      <point x="379" y="262" type="line" smooth="yes"/>
      <point x="379" y="208"/>
      <point x="379" y="204"/>
      <point x="373" y="187" type="curve" smooth="yes"/>
      <point x="365" y="162"/>
      <point x="340" y="146" name="hr01"/>
      <point x="311" y="146" type="curve" smooth="yes"/>
      <point x="261" y="146"/>
      <point x="243" y="176"/>
      <point x="243" y="264" type="curve" smooth="yes"/>
      <point x="243" y="467" type="line"/>
      <point x="50" y="467" type="line"/>
      <point x="50" y="205" type="line"/>
      <point x="50" y="172" type="line" smooth="yes"/>
      <point x="50" y="102"/>
      <point x="66" y="57"/>
      <point x="101" y="27" type="curve" smooth="yes"/>
      <point x="131" y="2"/>
      <point x="179" y="-13"/>
      <point x="226" y="-13" type="curve" smooth="yes"/>
      <point x="287" y="-13"/>
      <point x="324" y="5"/>
      <point x="379" y="62" type="curve"/>
    </contour>
  </outline>
</glyph>
<glyph name="v" format="2">
  <advance width="501"/>
  <unicode hex="0076"/>
  <outline>
    <contour>
      <point x="141" y="0" type="line"/>
      <point x="327" y="0" type="line"/>
      <point x="527" y="467" type="line"/>
      <point x="348" y="467" type="line"/>
      <point x="261" y="261" type="line"/>
      <point x="200" y="467" type="line"/>
      <point x="0" y="467" type="line"/>
    </contour>
  </outline>
</glyph>
<glyph name="w" format="2">
  <advance width="823"/>
  <unicode hex="0077"/>
  <outline>
    <contour>
      <point x="828" y="467" type="line"/>
      <point x="643" y="467" type="line"/>
      <point x="577" y="229" type="line"/>
      <point x="514" y="467" type="line"/>
      <point x="333" y="467" type="line"/>
      <point x="263" y="240" type="line"/>
      <point x="212" y="467" type="line"/>
      <point x="11" y="467" type="line"/>
      <point x="131" y="0" type="line"/>
      <point x="332" y="0" type="line"/>
      <point x="407" y="250" type="line"/>
      <point x="469" y="0" type="line"/>
      <point x="671" y="0" type="line"/>
    </contour>
  </outline>
</glyph>
<glyph name="x" format="2">
  <advance width="546"/>
  <unicode hex="0078"/>
  <outline>
    <contour>
      <point x="534" y="467" type="line"/>
      <point x="335" y="467" type="line"/>
      <point x="283" y="396" type="line"/>
      <point x="236" y="467" type="line"/>
      <point x="18" y="467" type="line"/>
      <point x="165" y="246" type="line"/>
      <point x="-20" y="0" type="line"/>
      <point x="199" y="0" type="line"/>
      <point x="267" y="95" type="line"/>
      <point x="326" y="0" type="line"/>
      <point x="547" y="0" type="line"/>
      <point x="381" y="246" type="line"/>
    </contour>
  </outline>
</glyph>
<glyph name="y" format="2">
  <advance width="516"/>
  <unicode hex="0079"/>
  <outline>
    <contour>
      <point x="539" y="467" type="line"/>
      <point x="354" y="467" type="line"/>
      <point x="270" y="217" type="line"/>
      <point x="206" y="467" type="line"/>
      <point x="-9" y="467" type="line"/>
      <point x="155" y="-1" type="line"/>
      <point x="147" y="-17" type="line" smooth="yes"/>
      <point x="127" y="-57"/>
      <point x="120" y="-59"/>
      <point x="14" y="-59" type="curve" smooth="yes"/>
      <point x="7" y="-59"/>
      <point x="-5" y="-59"/>
      <point x="-23" y="-58" type="curve"/>
      <point x="19" y="-213" type="line"/>
      <point x="41" y="-213"/>
      <point x="58" y="-212"/>
      <point x="69" y="-212" type="curve"/>
      <point x="214" y="-213"/>
      <point x="249" y="-192"/>
      <point x="309" y="-70" type="curve" smooth="yes"/>
      <point x="324" y="-38"/>
      <point x="348" y="14"/>
      <point x="357" y="34" type="curve" smooth="yes"/>
    </contour>
  </outline>
</glyph>
<glyph name="z" format="2">
  <advance width="520"/>
  <unicode hex="007A"/>
  <outline>
    <contour>
      <point x="34" y="467" type="line"/>
      <point x="34" y="319" type="line"/>
      <point x="221" y="319" type="line"/>
      <point x="13" y="123" type="line"/>
      <point x="13" y="0" type="line"/>
      <point x="503" y="0" type="line"/>
      <point x="503" y="148" type="line"/>
      <point x="286" y="148" type="line"/>
      <point x="479" y="328" type="line"/>
      <point x="479" y="467" type="line"/>
    </contour>
  </outline>
</glyph>
<glyph name="braceleft" format="2">
  <advance width="330"/>
  <unicode hex="007B"/>
  <outline>
    <contour>
      <point x="199" y="520" type="line" smooth="yes"/>
      <point x="199" y="580"/>
      <point x="204" y="585"/>
      <point x="274" y="586" type="curve"/>
      <point x="293" y="586" type="line"/>
      <point x="293" y="698" type="line"/>
      <point x="278" y="698"/>
      <point x="266" y="699"/>
      <point x="258" y="699" type="curve"/>
      <point x="237" y="700"/>
      <point x="221" y="700"/>
      <point x="216" y="700" type="curve" smooth="yes"/>
      <point x="108" y="700"/>
      <point x="66" y="661"/>
      <point x="66" y="560" type="curve" smooth="yes"/>
      <point x="66" y="376" type="line" smooth="yes"/>
      <point x="66" y="332"/>
      <point x="50" y="310"/>
      <point x="13" y="302" type="curve"/>
      <point x="13" y="195" type="line"/>
      <point x="52" y="187"/>
      <point x="66" y="165"/>
      <point x="66" y="111" type="curve" smooth="yes"/>
      <point x="66" y="-73" type="line" smooth="yes"/>
      <point x="66" y="-172"/>
      <point x="109" y="-213"/>
      <point x="214" y="-213" type="curve" smooth="yes"/>
      <point x="218" y="-213"/>
      <point x="234" y="-213"/>
      <point x="258" y="-212" type="curve"/>
      <point x="266" y="-212"/>
      <point x="278" y="-211"/>
      <point x="293" y="-211" type="curve"/>
      <point x="293" y="-100" type="line"/>
      <point x="279" y="-100" type="line" smooth="yes"/>
      <point x="205" y="-100"/>
      <point x="199" y="-95" name="hr02"/>
      <point x="199" y="-33" type="curve" smooth="yes"/>
      <point x="199" y="120" type="line" smooth="yes"/>
      <point x="199" y="185"/>
      <point x="185" y="215"/>
      <point x="139" y="243" type="curve"/>
      <point x="187" y="276"/>
      <point x="199" y="300"/>
      <point x="199" y="367" type="curve" smooth="yes"/>
    </contour>
  </outline>
</glyph>
<glyph name="bar" format="2">
  <advance width="607"/>
  <unicode hex="007C"/>
  <outline>
    <contour>
      <point x="207" y="667" type="line"/>
      <point x="207" y="-167" type="line"/>
      <point x="400" y="-167" type="line"/>
      <point x="400" y="667" type="line"/>
    </contour>
  </outline>
</glyph>
<glyph name="braceright" format="2">
  <advance width="330"/>
  <unicode hex="007D"/>
  <outline>
    <contour>
      <point x="130" y="-32" type="line" smooth="yes"/>
      <point x="130" y="-92"/>
      <point x="122" y="-99"/>
      <point x="57" y="-99" type="curve" smooth="yes"/>
      <point x="37" y="-99" type="line"/>
      <point x="37" y="-211" type="line"/>
      <point x="52" y="-211"/>
      <point x="64" y="-211"/>
      <point x="71" y="-212" type="curve"/>
      <point x="92" y="-212"/>
      <point x="108" y="-213"/>
      <point x="111" y="-213" type="curve" smooth="yes"/>
      <point x="221" y="-213"/>
      <point x="263" y="-174"/>
      <point x="263" y="-72" type="curve" smooth="yes"/>
      <point x="263" y="112" type="line" smooth="yes"/>
      <point x="263" y="156"/>
      <point x="279" y="178"/>
      <point x="317" y="186" type="curve"/>
      <point x="317" y="293" type="line"/>
      <point x="278" y="300"/>
      <point x="263" y="323"/>
      <point x="263" y="376" type="curve" smooth="yes"/>
      <point x="263" y="560" type="line" smooth="yes"/>
      <point x="263" y="662"/>
      <point x="221" y="701"/>
      <point x="111" y="701" type="curve"/>
      <point x="109" y="701"/>
      <point x="93" y="700"/>
      <point x="71" y="699" type="curve" name="hr02"/>
      <point x="37" y="699" type="line"/>
      <point x="37" y="587" type="line"/>
      <point x="43" y="588"/>
      <point x="50" y="588"/>
      <point x="51" y="588" type="curve"/>
      <point x="124" y="588"/>
      <point x="130" y="583" name="hr03"/>
      <point x="130" y="520" type="curve" smooth="yes"/>
      <point x="130" y="367" type="line" smooth="yes"/>
      <point x="130" y="302"/>
      <point x="144" y="273"/>
      <point x="190" y="244" type="curve"/>
      <point x="142" y="211"/>
      <point x="130" y="187"/>
      <point x="130" y="121" type="curve" smooth="yes"/>
    </contour>
  </outline>
</glyph>
<glyph name="asciitilde" format="2">
  <advance width="607"/>
  <unicode hex="007E"/>
  <outline>
    <contour>
      <point x="153" y="525" type="line"/>
      <point x="174" y="564"/>
      <point x="189" y="578"/>
      <point x="209" y="578" type="curve" smooth="yes"/>
      <point x="224" y="578"/>
      <point x="235" y="575"/>
      <point x="278" y="559" type="curve" smooth="yes"/>
      <point x="346" y="534"/>
      <point x="367" y="528" name="hr01"/>
      <point x="392" y="528" type="curve" smooth="yes"/>
      <point x="464" y="528"/>
      <point x="509" y="571"/>
      <point x="555" y="682" type="curve"/>
      <point x="457" y="763" type="line"/>
      <point x="435" y="723"/>
      <point x="422" y="711"/>
      <point x="398" y="711" type="curve" smooth="yes"/>
      <point x="390" y="711"/>
      <point x="380" y="713"/>
      <point x="366" y="718" type="curve" smooth="yes"/>
      <point x="259" y="756"/>
      <point x="244" y="760" name="hr02"/>
      <point x="219" y="760" type="curve" smooth="yes"/>
      <point x="146" y="760"/>
      <point x="98" y="715"/>
      <point x="55" y="606" type="curve"/>
    </contour>
  </outline>
</glyph>
<glyph name="exclamdown" format="2">
  <advance width="325"/>
  <unicode hex="00A1"/>
  <outline>
    <contour>
      <point x="263" y="-140" type="line"/>
      <point x="263" y="60" type="line"/>
      <point x="225" y="292" type="line"/>
      <point x="101" y="292" type="line"/>
      <point x="63" y="60" type="line"/>
      <point x="63" y="-140" type="line"/>
    </contour>
    <contour>
      <point x="163" y="540" type="curve" smooth="yes"/>
      <point x="103" y="540"/>
      <point x="60" y="499"/>
      <point x="60" y="442" type="curve" smooth="yes"/>
      <point x="60" y="385"/>
      <point x="103" y="344"/>
      <point x="163" y="344" type="curve" smooth="yes"/>
      <point x="222" y="344"/>
      <point x="265" y="385"/>
      <point x="265" y="442" type="curve" smooth="yes"/>
      <point x="265" y="499"/>
      <point x="222" y="540"/>
    </contour>
  </outline>
</glyph>
<glyph name="cent" format="2">
  <advance width="560"/>
  <unicode hex="00A2"/>
  <outline>
    <contour>
      <point x="368" y="261" type="line"/>
      <point x="350" y="212"/>
      <point x="344" y="204"/>
      <point x="314" y="192" type="curve"/>
      <point x="314" y="473" type="line"/>
      <point x="347" y="470"/>
      <point x="359" y="454"/>
      <point x="368" y="406" type="curve"/>
      <point x="524" y="442" type="line"/>
      <point x="516" y="488"/>
      <point x="500" y="516"/>
      <point x="463" y="543" type="curve" smooth="yes"/>
      <point x="429" y="568"/>
      <point x="396" y="576"/>
      <point x="314" y="581" type="curve"/>
      <point x="314" y="650" type="line"/>
      <point x="279" y="650" type="line"/>
      <point x="279" y="581" type="line"/>
      <point x="211" y="575"/>
      <point x="176" y="565"/>
      <point x="140" y="543" type="curve" smooth="yes"/>
      <point x="70" y="501"/>
      <point x="37" y="432"/>
      <point x="37" y="332" type="curve" smooth="yes"/>
      <point x="37" y="172"/>
      <point x="122" y="86"/>
      <point x="279" y="87" type="curve"/>
      <point x="279" y="-3" type="line"/>
      <point x="314" y="-3" type="line"/>
      <point x="314" y="87" type="line"/>
      <point x="424" y="92"/>
      <point x="485" y="130"/>
      <point x="523" y="216" type="curve"/>
    </contour>
    <contour>
      <point x="279" y="194" type="line"/>
      <point x="233" y="205"/>
      <point x="213" y="247"/>
      <point x="213" y="331" type="curve" smooth="yes"/>
      <point x="213" y="417"/>
      <point x="236" y="465"/>
      <point x="279" y="474" type="curve"/>
    </contour>
  </outline>
</glyph>
<glyph name="sterling" format="2">
  <advance width="607"/>
  <unicode hex="00A3"/>
  <outline>
    <contour>
      <point x="352" y="426" type="line"/>
      <point x="355" y="447" type="line" smooth="yes"/>
      <point x="365" y="506"/>
      <point x="398" y="536"/>
      <point x="451" y="536" type="curve" smooth="yes"/>
      <point x="479" y="536"/>
      <point x="499" y="528"/>
      <point x="549" y="497" type="curve"/>
      <point x="566" y="633" type="line"/>
      <point x="513" y="666"/>
      <point x="471" y="677"/>
      <point x="401" y="677" type="curve" smooth="yes"/>
      <point x="324" y="677"/>
      <point x="269" y="657"/>
      <point x="225" y="614" type="curve" smooth="yes"/>
      <point x="188" y="577"/>
      <point x="179" y="553"/>
      <point x="166" y="461" type="curve"/>
      <point x="162" y="426" type="line"/>
      <point x="69" y="426" type="line"/>
      <point x="69" y="292" type="line"/>
      <point x="145" y="292" type="line"/>
      <point x="135" y="181"/>
      <point x="109" y="151"/>
      <point x="21" y="150" type="curve"/>
      <point x="21" y="0" type="line"/>
      <point x="585" y="0" type="line"/>
      <point x="585" y="155" type="line" name="hr01"/>
      <point x="246" y="155" type="line"/>
      <point x="293" y="193"/>
      <point x="321" y="235"/>
      <point x="336" y="292" type="curve"/>
      <point x="503" y="292" type="line"/>
      <point x="503" y="426" type="line"/>
    </contour>
  </outline>
</glyph>
<glyph name="currency" format="2">
  <advance width="733"/>
  <unicode hex="00A4"/>
  <outline>
    <contour>
      <point x="27" y="107" type="line"/>
      <point x="129" y="6" type="line"/>
      <point x="234" y="109" type="line"/>
      <point x="284" y="84"/>
      <point x="319" y="74"/>
      <point x="365" y="74" type="curve" smooth="yes"/>
      <point x="414" y="74"/>
      <point x="456" y="85"/>
      <point x="500" y="110" type="curve"/>
      <point x="605" y="5" type="line"/>
      <point x="706" y="108" type="line"/>
      <point x="601" y="214" type="line"/>
      <point x="624" y="259"/>
      <point x="632" y="293"/>
      <point x="632" y="339" type="curve" smooth="yes"/>
      <point x="632" y="385"/>
      <point x="621" y="424"/>
      <point x="596" y="469" type="curve"/>
      <point x="702" y="575" type="line"/>
      <point x="600" y="677" type="line"/>
      <point x="490" y="569" type="line"/>
      <point x="446" y="589"/>
      <point x="411" y="598"/>
      <point x="367" y="598" type="curve" smooth="yes"/>
      <point x="322" y="598"/>
      <point x="288" y="590"/>
      <point x="242" y="568" type="curve"/>
      <point x="131" y="679" type="line"/>
      <point x="28" y="575" type="line"/>
      <point x="137" y="467" type="line"/>
      <point x="115" y="424"/>
      <point x="103" y="381"/>
      <point x="103" y="340" type="curve" smooth="yes"/>
      <point x="103" y="296"/>
      <point x="113" y="253"/>
      <point x="133" y="213" type="curve"/>
    </contour>
    <contour>
      <point x="368" y="429" type="curve" smooth="yes"/>
      <point x="417" y="429"/>
      <point x="458" y="389"/>
      <point x="458" y="339" type="curve" smooth="yes"/>
      <point x="458" y="289"/>
      <point x="418" y="248"/>
      <point x="368" y="248" type="curve" smooth="yes"/>
      <point x="318" y="248"/>
      <point x="278" y="289"/>
      <point x="278" y="339" type="curve" smooth="yes"/>
      <point x="278" y="389"/>
      <point x="318" y="429"/>
    </contour>
  </outline>
</glyph>
<glyph name="yen" format="2">
  <advance width="667"/>
  <unicode hex="00A5"/>
  <outline>
    <contour>
      <point x="472" y="667" type="line"/>
      <point x="347" y="429" type="line"/>
      <point x="222" y="667" type="line"/>
      <point x="-20" y="667" type="line"/>
      <point x="113" y="446" type="line"/>
      <point x="27" y="446" type="line"/>
      <point x="27" y="387" type="line"/>
      <point x="148" y="387" type="line"/>
      <point x="201" y="300" type="line"/>
      <point x="27" y="300" type="line"/>
      <point x="27" y="238" type="line"/>
      <point x="234" y="238" type="line"/>
      <point x="234" y="0" type="line"/>
      <point x="435" y="0" type="line"/>
      <point x="435" y="238" type="line"/>
      <point x="643" y="238" type="line"/>
      <point x="643" y="300" type="line"/>
      <point x="455" y="300" type="line"/>
      <point x="504" y="387" type="line"/>
      <point x="643" y="387" type="line"/>
      <point x="643" y="446" type="line"/>
      <point x="538" y="446" type="line"/>
      <point x="663" y="667" type="line"/>
    </contour>
  </outline>
</glyph>
<glyph name="brokenbar" format="2">
  <advance width="607"/>
  <unicode hex="00A6"/>
  <outline>
    <contour>
      <point x="207" y="667" type="line"/>
      <point x="207" y="302" type="line"/>
      <point x="400" y="302" type="line"/>
      <point x="400" y="667" type="line"/>
    </contour>
    <contour>
      <point x="207" y="153" type="line"/>
      <point x="207" y="-167" type="line"/>
      <point x="400" y="-167" type="line"/>
      <point x="400" y="153" type="line"/>
    </contour>
  </outline>
</glyph>
<glyph name="section" format="2">
  <advance width="607"/>
  <unicode hex="00A7"/>
  <outline>
    <contour>
      <point x="561" y="551" type="line"/>
      <point x="534" y="643"/>
      <point x="462" y="684"/>
      <point x="327" y="684" type="curve" smooth="yes"/>
      <point x="178" y="684"/>
      <point x="85" y="609"/>
      <point x="85" y="488" type="curve" smooth="yes"/>
      <point x="85" y="458"/>
      <point x="88" y="441"/>
      <point x="102" y="403" type="curve"/>
      <point x="51" y="358"/>
      <point x="28" y="309" name="hr01"/>
      <point x="28" y="250" type="curve" smooth="yes"/>
      <point x="28" y="190"/>
      <point x="59" y="125"/>
      <point x="104" y="90" type="curve"/>
      <point x="140" y="64"/>
      <point x="189" y="46"/>
      <point x="268" y="33" type="curve" smooth="yes"/>
      <point x="352" y="19"/>
      <point x="371" y="7"/>
      <point x="371" y="-30" type="curve" smooth="yes"/>
      <point x="371" y="-64"/>
      <point x="345" y="-83"/>
      <point x="297" y="-83" type="curve" smooth="yes"/>
      <point x="230" y="-83"/>
      <point x="187" y="-45"/>
      <point x="183" y="16" type="curve"/>
      <point x="26" y="-25" type="line"/>
      <point x="52" y="-157"/>
      <point x="142" y="-223"/>
      <point x="296" y="-223" type="curve" smooth="yes"/>
      <point x="455" y="-223"/>
      <point x="563" y="-135"/>
      <point x="563" y="-5" type="curve" smooth="yes"/>
      <point x="563" y="43"/>
      <point x="549" y="80"/>
      <point x="518" y="114" type="curve"/>
      <point x="560" y="165"/>
      <point x="580" y="213" name="hr02"/>
      <point x="580" y="265" type="curve" smooth="yes"/>
      <point x="580" y="361"/>
      <point x="528" y="407"/>
      <point x="383" y="441" type="curve" smooth="yes"/>
      <point x="307" y="459"/>
      <point x="304" y="460"/>
      <point x="283" y="471" type="curve" smooth="yes"/>
      <point x="265" y="481"/>
      <point x="254" y="498"/>
      <point x="254" y="517" type="curve" smooth="yes"/>
      <point x="254" y="549"/>
      <point x="282" y="569"/>
      <point x="327" y="569" type="curve" smooth="yes"/>
      <point x="380" y="569"/>
      <point x="400" y="550"/>
      <point x="415" y="480" type="curve"/>
    </contour>
    <contour>
      <point x="347" y="180" type="line"/>
      <point x="328" y="184" type="line"/>
      <point x="308" y="188" type="line" smooth="yes"/>
      <point x="285" y="193"/>
      <point x="258" y="201"/>
      <point x="242" y="208" type="curve" smooth="yes"/>
      <point x="202" y="225"/>
      <point x="180" y="250" name="hr03"/>
      <point x="180" y="280" type="curve" smooth="yes"/>
      <point x="180" y="292"/>
      <point x="185" y="306"/>
      <point x="193" y="319" type="curve"/>
      <point x="216" y="311"/>
      <point x="219" y="310"/>
      <point x="267" y="297" type="curve" smooth="yes"/>
      <point x="385" y="266"/>
      <point x="409" y="250"/>
      <point x="409" y="210" type="curve" smooth="yes"/>
      <point x="409" y="194"/>
      <point x="405" y="183"/>
      <point x="395" y="169" type="curve"/>
      <point x="380" y="173"/>
      <point x="370" y="175"/>
      <point x="366" y="176" type="curve" smooth="yes"/>
    </contour>
  </outline>
</glyph>
<glyph name="dieresis" format="2">
  <advance width="500"/>
  <unicode hex="00A8"/>
  <outline>
    <contour>
      <point x="142" y="693" type="curve" smooth="yes"/>
      <point x="91" y="693"/>
      <point x="56" y="659"/>
      <point x="56" y="612" type="curve" smooth="yes"/>
      <point x="56" y="564"/>
      <point x="92" y="530"/>
      <point x="142" y="530" type="curve" smooth="yes"/>
      <point x="192" y="530"/>
      <point x="228" y="564"/>
      <point x="228" y="612" type="curve" smooth="yes"/>
      <point x="228" y="660"/>
      <point x="193" y="693"/>
    </contour>
    <contour>
      <point x="357" y="693" type="curve" smooth="yes"/>
      <point x="305" y="693"/>
      <point x="271" y="660"/>
      <point x="271" y="612" type="curve" smooth="yes"/>
      <point x="271" y="563"/>
      <point x="305" y="530"/>
      <point x="357" y="530" type="curve" smooth="yes"/>
      <point x="407" y="530"/>
      <point x="443" y="564"/>
      <point x="443" y="612" type="curve" smooth="yes"/>
      <point x="443" y="660"/>
      <point x="408" y="693"/>
    </contour>
  </outline>
</glyph>
<glyph name="copyright" format="2">
  <advance width="763"/>
  <unicode hex="00A9"/>
  <outline>
    <contour>
      <point x="551" y="412" type="line"/>
      <point x="538" y="496"/>
      <point x="496" y="527"/>
      <point x="397" y="527" type="curve" smooth="yes"/>
      <point x="270" y="527"/>
      <point x="197" y="459"/>
      <point x="197" y="339" type="curve" smooth="yes"/>
      <point x="197" y="211"/>
      <point x="260" y="148"/>
      <point x="388" y="148" type="curve" smooth="yes"/>
      <point x="482" y="148"/>
      <point x="533" y="183"/>
      <point x="552" y="263" type="curve"/>
      <point x="441" y="302" type="line"/>
      <point x="433" y="257"/>
      <point x="417" y="239"/>
      <point x="387" y="239" type="curve" smooth="yes"/>
      <point x="349" y="239"/>
      <point x="326" y="274"/>
      <point x="326" y="333" type="curve" smooth="yes"/>
      <point x="326" y="399"/>
      <point x="348" y="436"/>
      <point x="387" y="436" type="curve" smooth="yes"/>
      <point x="424" y="436"/>
      <point x="438" y="419"/>
      <point x="441" y="373" type="curve"/>
    </contour>
    <contour>
      <point x="384" y="684" type="curve" smooth="yes"/>
      <point x="189" y="684"/>
      <point x="33" y="528"/>
      <point x="33" y="334" type="curve" smooth="yes"/>
      <point x="33" y="140"/>
      <point x="189" y="-17"/>
      <point x="384" y="-17" type="curve" smooth="yes"/>
      <point x="574" y="-17"/>
      <point x="729" y="141"/>
      <point x="729" y="334" type="curve" smooth="yes"/>
      <point x="729" y="526"/>
      <point x="573" y="684"/>
    </contour>
    <contour>
      <point x="383" y="621" type="curve" smooth="yes"/>
      <point x="535" y="621"/>
      <point x="659" y="492"/>
      <point x="659" y="334" type="curve" smooth="yes"/>
      <point x="659" y="176"/>
      <point x="535" y="46"/>
      <point x="383" y="46" type="curve" smooth="yes"/>
      <point x="228" y="46"/>
      <point x="103" y="175"/>
      <point x="103" y="334" type="curve" smooth="yes"/>
      <point x="103" y="493"/>
      <point x="228" y="621"/>
    </contour>
  </outline>
</glyph>
<glyph name="ordfeminine" format="2">
  <advance width="365"/>
  <unicode hex="00AA"/>
  <outline>
    <contour>
      <point x="333" y="667" type="line"/>
      <point x="215" y="667" type="line"/>
      <point x="215" y="644" type="line"/>
      <point x="199" y="666"/>
      <point x="180" y="674" name="hr01"/>
      <point x="144" y="674" type="curve" smooth="yes"/>
      <point x="59" y="674"/>
      <point x="10" y="623"/>
      <point x="10" y="535" type="curve" smooth="yes"/>
      <point x="10" y="442"/>
      <point x="53" y="393"/>
      <point x="135" y="393" type="curve" smooth="yes"/>
      <point x="171" y="393"/>
      <point x="194" y="401"/>
      <point x="215" y="421" type="curve"/>
      <point x="215" y="400" type="line"/>
      <point x="333" y="400" type="line"/>
    </contour>
    <contour>
      <point x="175" y="591" type="curve" smooth="yes"/>
      <point x="200" y="591"/>
      <point x="215" y="570"/>
      <point x="215" y="535" type="curve" smooth="yes"/>
      <point x="215" y="495"/>
      <point x="202" y="476"/>
      <point x="173" y="476" type="curve" smooth="yes"/>
      <point x="148" y="476"/>
      <point x="134" y="496"/>
      <point x="134" y="534" type="curve" smooth="yes"/>
      <point x="134" y="571"/>
      <point x="148" y="591"/>
    </contour>
    <contour>
      <point x="365" y="345" type="line"/>
      <point x="0" y="345" type="line"/>
      <point x="0" y="282" type="line"/>
      <point x="365" y="282" type="line"/>
    </contour>
  </outline>
</glyph>
<glyph name="guillemotleft" format="2">
  <advance width="485"/>
  <unicode hex="00AB"/>
  <outline>
    <contour>
      <point x="449" y="0" type="line"/>
      <point x="378" y="233" type="line"/>
      <point x="448" y="467" type="line"/>
      <point x="348" y="467" type="line"/>
      <point x="223" y="233" type="line"/>
      <point x="349" y="0" type="line"/>
    </contour>
    <contour>
      <point x="255" y="0" type="line"/>
      <point x="185" y="233" type="line"/>
      <point x="255" y="467" type="line"/>
      <point x="155" y="467" type="line"/>
      <point x="30" y="233" type="line"/>
      <point x="155" y="0" type="line"/>
    </contour>
  </outline>
</glyph>
<glyph name="logicalnot" format="2">
  <advance width="607"/>
  <unicode hex="00AC"/>
  <outline>
    <contour>
      <point x="360" y="47" type="line"/>
      <point x="553" y="47" type="line"/>
      <point x="553" y="347" type="line"/>
      <point x="53" y="347" type="line"/>
      <point x="53" y="170" type="line"/>
      <point x="360" y="170" type="line"/>
    </contour>
  </outline>
</glyph>
<glyph name="registered" format="2">
  <advance width="763"/>
  <unicode hex="00AE"/>
  <outline>
    <contour>
      <point x="231" y="153" type="line"/>
      <point x="349" y="153" type="line"/>
      <point x="349" y="281" type="line"/>
      <point x="374" y="281" type="line"/>
      <point x="427" y="153" type="line"/>
      <point x="565" y="153" type="line"/>
      <point x="487" y="304" type="line"/>
      <point x="530" y="329"/>
      <point x="548" y="358"/>
      <point x="548" y="404" type="curve" smooth="yes"/>
      <point x="548" y="443"/>
      <point x="529" y="476"/>
      <point x="496" y="496" type="curve" smooth="yes"/>
      <point x="471" y="511"/>
      <point x="452" y="514"/>
      <point x="390" y="514" type="curve" smooth="yes"/>
      <point x="231" y="514" type="line"/>
    </contour>
    <contour>
      <point x="349" y="354" type="line"/>
      <point x="349" y="434" type="line"/>
      <point x="358" y="435" type="line"/>
      <point x="365" y="435" type="line" smooth="yes"/>
      <point x="412" y="435"/>
      <point x="428" y="425"/>
      <point x="428" y="395" type="curve" smooth="yes"/>
      <point x="428" y="364"/>
      <point x="414" y="354"/>
      <point x="371" y="354" type="curve" smooth="yes"/>
      <point x="366" y="354" type="line"/>
    </contour>
    <contour>
      <point x="384" y="684" type="curve" smooth="yes"/>
      <point x="189" y="684"/>
      <point x="33" y="528"/>
      <point x="33" y="334" type="curve" smooth="yes"/>
      <point x="33" y="140"/>
      <point x="189" y="-17"/>
      <point x="384" y="-17" type="curve" smooth="yes"/>
      <point x="574" y="-17"/>
      <point x="729" y="141"/>
      <point x="729" y="334" type="curve" smooth="yes"/>
      <point x="729" y="526"/>
      <point x="573" y="684"/>
    </contour>
    <contour>
      <point x="383" y="621" type="curve" smooth="yes"/>
      <point x="535" y="621"/>
      <point x="659" y="492"/>
      <point x="659" y="334" type="curve" smooth="yes"/>
      <point x="659" y="176"/>
      <point x="535" y="46"/>
      <point x="383" y="46" type="curve" smooth="yes"/>
      <point x="228" y="46"/>
      <point x="103" y="175"/>
      <point x="103" y="334" type="curve" smooth="yes"/>
      <point x="103" y="493"/>
      <point x="228" y="621"/>
    </contour>
  </outline>
</glyph>
<glyph name="macron" format="2">
  <advance width="500"/>
  <unicode hex="00AF"/>
  <outline>
    <contour>
      <point x="92" y="648" type="line"/>
      <point x="92" y="570" type="line"/>
      <point x="409" y="570" type="line"/>
      <point x="409" y="648" type="line"/>
    </contour>
  </outline>
</glyph>
<glyph name="degree" format="2">
  <advance width="362"/>
  <unicode hex="00B0"/>
  <outline>
    <contour>
      <point x="182" y="660" type="curve" smooth="yes"/>
      <point x="97" y="660"/>
      <point x="27" y="592"/>
      <point x="27" y="511" type="curve" smooth="yes"/>
      <point x="27" y="425"/>
      <point x="95" y="357"/>
      <point x="182" y="357" type="curve" smooth="yes"/>
      <point x="266" y="357"/>
      <point x="336" y="426"/>
      <point x="336" y="509" type="curve" smooth="yes"/>
      <point x="336" y="592"/>
      <point x="267" y="660"/>
    </contour>
    <contour>
      <point x="181" y="584" type="curve" smooth="yes"/>
      <point x="224" y="584"/>
      <point x="259" y="550"/>
      <point x="259" y="509" type="curve" smooth="yes"/>
      <point x="259" y="467"/>
      <point x="224" y="433"/>
      <point x="182" y="433" type="curve" smooth="yes"/>
      <point x="138" y="433"/>
      <point x="104" y="467"/>
      <point x="104" y="510" type="curve" smooth="yes"/>
      <point x="104" y="550"/>
      <point x="139" y="584"/>
    </contour>
  </outline>
</glyph>
<glyph name="plusminus" format="2">
  <advance width="633"/>
  <unicode hex="00B1"/>
  <outline>
    <contour>
      <point x="48" y="432" type="line"/>
      <point x="48" y="349" type="line"/>
      <point x="273" y="349" type="line"/>
      <point x="273" y="125" type="line"/>
      <point x="361" y="125" type="line"/>
      <point x="361" y="349" type="line"/>
      <point x="586" y="349" type="line"/>
      <point x="586" y="432" type="line"/>
      <point x="361" y="432" type="line"/>
      <point x="361" y="657" type="line"/>
      <point x="273" y="657" type="line"/>
      <point x="273" y="432" type="line"/>
    </contour>
    <contour>
      <point x="48" y="85" type="line"/>
      <point x="48" y="0" type="line"/>
      <point x="586" y="0" type="line"/>
      <point x="586" y="85" type="line"/>
    </contour>
  </outline>
</glyph>
<glyph name="twosuperior" format="2">
  <advance width="383"/>
  <unicode hex="00B2"/>
  <outline>
    <contour>
      <point x="341" y="371" type="line"/>
      <point x="194" y="371" type="line"/>
      <point x="311" y="458"/>
      <point x="337" y="492"/>
      <point x="337" y="558" type="curve" smooth="yes"/>
      <point x="337" y="634"/>
      <point x="282" y="675"/>
      <point x="180" y="675" type="curve" smooth="yes"/>
      <point x="85" y="675"/>
      <point x="44" y="645"/>
      <point x="22" y="562" type="curve"/>
      <point x="132" y="510" type="line"/>
      <point x="134" y="520"/>
      <point x="136" y="527"/>
      <point x="137" y="532" type="curve" smooth="yes"/>
      <point x="143" y="558"/>
      <point x="154" y="568"/>
      <point x="175" y="568" type="curve" smooth="yes"/>
      <point x="196" y="568"/>
      <point x="211" y="556"/>
      <point x="211" y="538" type="curve" smooth="yes"/>
      <point x="211" y="510"/>
      <point x="201" y="500"/>
      <point x="116" y="434" type="curve" smooth="yes"/>
      <point x="55" y="387"/>
      <point x="62" y="392"/>
      <point x="19" y="361" type="curve"/>
      <point x="19" y="267" type="line"/>
      <point x="341" y="267" type="line"/>
    </contour>
  </outline>
</glyph>
<glyph name="threesuperior" format="2">
  <advance width="383"/>
  <unicode hex="00B3"/>
  <outline>
    <contour>
      <point x="140" y="427" type="line"/>
      <point x="169" y="427"/>
      <point x="180" y="426"/>
      <point x="189" y="425" type="curve" smooth="yes"/>
      <point x="213" y="421"/>
      <point x="226" y="410" name="hr01"/>
      <point x="226" y="391" type="curve" smooth="yes"/>
      <point x="226" y="370"/>
      <point x="209" y="357"/>
      <point x="180" y="357" type="curve" smooth="yes"/>
      <point x="151" y="357"/>
      <point x="140" y="369" name="hr02"/>
      <point x="133" y="412" type="curve"/>
      <point x="18" y="375" type="line"/>
      <point x="28" y="294"/>
      <point x="78" y="259"/>
      <point x="181" y="259" type="curve" smooth="yes"/>
      <point x="292" y="259"/>
      <point x="357" y="306"/>
      <point x="357" y="387" type="curve" smooth="yes"/>
      <point x="357" y="432"/>
      <point x="337" y="461"/>
      <point x="298" y="472" type="curve"/>
      <point x="332" y="493"/>
      <point x="349" y="524" name="hr03"/>
      <point x="349" y="564" type="curve" smooth="yes"/>
      <point x="349" y="637"/>
      <point x="289" y="675"/>
      <point x="175" y="675" type="curve" smooth="yes"/>
      <point x="79" y="675"/>
      <point x="38" y="644"/>
      <point x="24" y="562" type="curve"/>
      <point x="135" y="525" type="line"/>
      <point x="140" y="562" name="hr04"/>
      <point x="154" y="578"/>
      <point x="181" y="578" type="curve" smooth="yes"/>
      <point x="207" y="578"/>
      <point x="222" y="567" name="hr05"/>
      <point x="222" y="549" type="curve" smooth="yes"/>
      <point x="222" y="521"/>
      <point x="200" y="508"/>
      <point x="155" y="508" type="curve" smooth="yes"/>
      <point x="140" y="508" type="line" name="hr06"/>
    </contour>
  </outline>
</glyph>
<glyph name="acute" format="2">
  <advance width="500"/>
  <unicode hex="00B4"/>
  <outline>
    <contour>
      <point x="317" y="714" type="line"/>
      <point x="161" y="530" type="line"/>
      <point x="230" y="517" type="line"/>
      <point x="460" y="665" type="line"/>
    </contour>
  </outline>
</glyph>
<glyph name="micro" format="2">
  <advance width="516"/>
  <unicode hex="00B5"/>
  <outline>
    <contour>
      <point x="61" y="464" type="line"/>
      <point x="61" y="95" type="line" smooth="yes"/>
      <point x="61" y="16"/>
      <point x="60" y="-11"/>
      <point x="51" y="-194" type="curve"/>
      <point x="181" y="-194" type="line"/>
      <point x="173" y="11" type="line"/>
      <point x="200" y="-1"/>
      <point x="215" y="-5"/>
      <point x="238" y="-5" type="curve" smooth="yes"/>
      <point x="274" y="-5"/>
      <point x="297" y="5"/>
      <point x="329" y="35" type="curve"/>
      <point x="329" y="0" type="line"/>
      <point x="468" y="0" type="line"/>
      <point x="468" y="464" type="line"/>
      <point x="325" y="464" type="line"/>
      <point x="325" y="254" type="line" smooth="yes"/>
      <point x="325" y="187"/>
      <point x="323" y="172"/>
      <point x="314" y="156" type="curve" smooth="yes"/>
      <point x="304" y="139"/>
      <point x="279" y="126" name="hr03"/>
      <point x="256" y="126" type="curve" smooth="yes"/>
      <point x="213" y="126"/>
      <point x="198" y="160"/>
      <point x="198" y="258" type="curve" smooth="yes"/>
      <point x="198" y="464" type="line"/>
    </contour>
  </outline>
</glyph>
<glyph name="paragraph" format="2">
  <advance width="733"/>
  <unicode hex="00B6"/>
  <outline>
    <contour>
      <point x="200" y="-84" type="line"/>
      <point x="363" y="-84" type="line"/>
      <point x="363" y="512" type="line"/>
      <point x="432" y="512" type="line"/>
      <point x="432" y="-84" type="line"/>
      <point x="595" y="-84" type="line"/>
      <point x="595" y="512" type="line"/>
      <point x="685" y="512" type="line"/>
      <point x="685" y="667" type="line"/>
      <point x="218" y="667" type="line" smooth="yes"/>
      <point x="162" y="667"/>
      <point x="136" y="662"/>
      <point x="106" y="646" type="curve" smooth="yes"/>
      <point x="53" y="616"/>
      <point x="20" y="559"/>
      <point x="20" y="497" type="curve" smooth="yes"/>
      <point x="20" y="404"/>
      <point x="96" y="329"/>
      <point x="190" y="329" type="curve" smooth="yes"/>
      <point x="200" y="329" type="line"/>
    </contour>
  </outline>
</glyph>
<glyph name="cedilla" format="2">
  <advance width="500"/>
  <unicode hex="00B8"/>
  <outline>
    <contour>
      <point x="208" y="-73" type="line"/>
      <point x="229" y="-97"/>
      <point x="237" y="-111"/>
      <point x="237" y="-127" type="curve" smooth="yes"/>
      <point x="237" y="-164"/>
      <point x="208" y="-186"/>
      <point x="158" y="-188" type="curve"/>
      <point x="173" y="-218" type="line"/>
      <point x="282" y="-208"/>
      <point x="343" y="-164"/>
      <point x="343" y="-96" type="curve" smooth="yes"/>
      <point x="343" y="-71"/>
      <point x="334" y="-51"/>
      <point x="307" y="-13" type="curve"/>
    </contour>
  </outline>
</glyph>
<glyph name="onesuperior" format="2">
  <advance width="383"/>
  <unicode hex="00B9"/>
  <outline>
    <contour>
      <point x="286" y="667" type="line"/>
      <point x="178" y="667" type="line"/>
      <point x="157" y="618"/>
      <point x="125" y="602"/>
      <point x="42" y="599" type="curve"/>
      <point x="42" y="511" type="line"/>
      <point x="161" y="520" type="line"/>
      <point x="161" y="267" type="line"/>
      <point x="286" y="267" type="line"/>
    </contour>
  </outline>
</glyph>
<glyph name="ordmasculine" format="2">
  <advance width="365"/>
  <unicode hex="00BA"/>
  <outline>
    <contour>
      <point x="185" y="674" type="curve" smooth="yes"/>
      <point x="71" y="674"/>
      <point x="19" y="630"/>
      <point x="19" y="533" type="curve" smooth="yes"/>
      <point x="19" y="432"/>
      <point x="62" y="393"/>
      <point x="175" y="393" type="curve" smooth="yes"/>
      <point x="296" y="393"/>
      <point x="348" y="436"/>
      <point x="348" y="537" type="curve" smooth="yes"/>
      <point x="348" y="634"/>
      <point x="301" y="674"/>
    </contour>
    <contour>
      <point x="184" y="592" type="curve" smooth="yes"/>
      <point x="209" y="592"/>
      <point x="224" y="571"/>
      <point x="224" y="534" type="curve" smooth="yes"/>
      <point x="224" y="496"/>
      <point x="209" y="475"/>
      <point x="184" y="475" type="curve" smooth="yes"/>
      <point x="158" y="475"/>
      <point x="143" y="496"/>
      <point x="143" y="534" type="curve" smooth="yes"/>
      <point x="143" y="571"/>
      <point x="158" y="592"/>
    </contour>
    <contour>
      <point x="365" y="345" type="line"/>
      <point x="0" y="345" type="line"/>
      <point x="0" y="282" type="line"/>
      <point x="365" y="282" type="line"/>
    </contour>
  </outline>
</glyph>
<glyph name="guillemotright" format="2">
  <advance width="485"/>
  <unicode hex="00BB"/>
  <outline>
    <contour>
      <point x="37" y="467" type="line"/>
      <point x="107" y="234" type="line"/>
      <point x="38" y="0" type="line"/>
      <point x="138" y="0" type="line"/>
      <point x="262" y="234" type="line"/>
      <point x="137" y="467" type="line"/>
    </contour>
    <contour>
      <point x="230" y="467" type="line"/>
      <point x="300" y="234" type="line"/>
      <point x="231" y="0" type="line"/>
      <point x="331" y="0" type="line"/>
      <point x="456" y="234" type="line"/>
      <point x="330" y="467" type="line"/>
    </contour>
  </outline>
</glyph>
<glyph name="onequarter" format="2">
  <advance width="887"/>
  <unicode hex="00BC"/>
  <outline>
    <contour>
      <point x="286" y="667" type="line"/>
      <point x="178" y="667" type="line"/>
      <point x="157" y="618"/>
      <point x="125" y="602"/>
      <point x="42" y="599" type="curve"/>
      <point x="42" y="511" type="line"/>
      <point x="161" y="520" type="line"/>
      <point x="161" y="267" type="line"/>
      <point x="286" y="267" type="line"/>
    </contour>
    <contour>
      <point x="719" y="691" type="line"/>
      <point x="649" y="702" type="line"/>
      <point x="179" y="-23" type="line"/>
      <point x="250" y="-33" type="line"/>
    </contour>
    <contour>
      <point x="824" y="400" type="line"/>
      <point x="694" y="400" type="line"/>
      <point x="527" y="170" type="line"/>
      <point x="527" y="79" type="line"/>
      <point x="705" y="79" type="line"/>
      <point x="705" y="0" type="line"/>
      <point x="824" y="0" type="line"/>
      <point x="824" y="79" type="line"/>
      <point x="875" y="79" type="line"/>
      <point x="875" y="172" type="line"/>
      <point x="824" y="172" type="line"/>
    </contour>
    <contour>
      <point x="705" y="294" type="line"/>
      <point x="705" y="172" type="line"/>
      <point x="624" y="172" type="line"/>
    </contour>
  </outline>
</glyph>
<glyph name="onehalf" format="2">
  <advance width="887"/>
  <unicode hex="00BD"/>
  <outline>
    <contour>
      <point x="286" y="667" type="line"/>
      <point x="178" y="667" type="line"/>
      <point x="157" y="618"/>
      <point x="125" y="602"/>
      <point x="42" y="599" type="curve"/>
      <point x="42" y="511" type="line"/>
      <point x="161" y="520" type="line"/>
      <point x="161" y="267" type="line"/>
      <point x="286" y="267" type="line"/>
    </contour>
    <contour>
      <point x="719" y="691" type="line"/>
      <point x="649" y="702" type="line"/>
      <point x="179" y="-23" type="line"/>
      <point x="250" y="-33" type="line"/>
    </contour>
    <contour>
      <point x="845" y="104" type="line"/>
      <point x="698" y="104" type="line"/>
      <point x="815" y="191"/>
      <point x="841" y="225"/>
      <point x="841" y="291" type="curve" smooth="yes"/>
      <point x="841" y="367"/>
      <point x="786" y="408"/>
      <point x="684" y="408" type="curve" smooth="yes"/>
      <point x="589" y="408"/>
      <point x="548" y="378"/>
      <point x="526" y="294" type="curve"/>
      <point x="636" y="243" type="line"/>
      <point x="638" y="253"/>
      <point x="640" y="260"/>
      <point x="641" y="265" type="curve" smooth="yes"/>
      <point x="647" y="291"/>
      <point x="658" y="301"/>
      <point x="679" y="301" type="curve" smooth="yes"/>
      <point x="700" y="301"/>
      <point x="715" y="289"/>
      <point x="715" y="271" type="curve" smooth="yes"/>
      <point x="715" y="243"/>
      <point x="705" y="233"/>
      <point x="620" y="167" type="curve" smooth="yes"/>
      <point x="559" y="120"/>
      <point x="565" y="125"/>
      <point x="523" y="94" type="curve"/>
      <point x="523" y="0" type="line"/>
      <point x="845" y="0" type="line"/>
    </contour>
  </outline>
</glyph>
<glyph name="threequarters" format="2">
  <advance width="887"/>
  <unicode hex="00BE"/>
  <outline>
    <contour>
      <point x="140" y="427" type="line"/>
      <point x="169" y="427"/>
      <point x="180" y="426"/>
      <point x="189" y="425" type="curve" smooth="yes"/>
      <point x="213" y="421"/>
      <point x="226" y="410" name="hr01"/>
      <point x="226" y="391" type="curve" smooth="yes"/>
      <point x="226" y="370"/>
      <point x="209" y="357"/>
      <point x="180" y="357" type="curve" smooth="yes"/>
      <point x="151" y="357"/>
      <point x="140" y="369" name="hr02"/>
      <point x="133" y="412" type="curve"/>
      <point x="18" y="375" type="line"/>
      <point x="28" y="294"/>
      <point x="78" y="259"/>
      <point x="181" y="259" type="curve" smooth="yes"/>
      <point x="292" y="259"/>
      <point x="357" y="306"/>
      <point x="357" y="387" type="curve" smooth="yes"/>
      <point x="357" y="432"/>
      <point x="337" y="461"/>
      <point x="298" y="472" type="curve"/>
      <point x="332" y="493"/>
      <point x="349" y="524" name="hr03"/>
      <point x="349" y="564" type="curve" smooth="yes"/>
      <point x="349" y="637"/>
      <point x="289" y="675"/>
      <point x="175" y="675" type="curve" smooth="yes"/>
      <point x="79" y="675"/>
      <point x="38" y="644"/>
      <point x="24" y="562" type="curve"/>
      <point x="135" y="525" type="line"/>
      <point x="140" y="562" name="hr04"/>
      <point x="154" y="578"/>
      <point x="181" y="578" type="curve" smooth="yes"/>
      <point x="207" y="578"/>
      <point x="222" y="567" name="hr05"/>
      <point x="222" y="549" type="curve" smooth="yes"/>
      <point x="222" y="521"/>
      <point x="200" y="508"/>
      <point x="155" y="508" type="curve" smooth="yes"/>
      <point x="140" y="508" type="line" name="hr06"/>
    </contour>
    <contour>
      <point x="719" y="691" type="line"/>
      <point x="649" y="702" type="line"/>
      <point x="179" y="-23" type="line"/>
      <point x="250" y="-33" type="line"/>
    </contour>
    <contour>
      <point x="824" y="400" type="line"/>
      <point x="694" y="400" type="line"/>
      <point x="527" y="170" type="line"/>
      <point x="527" y="79" type="line"/>
      <point x="705" y="79" type="line"/>
      <point x="705" y="0" type="line"/>
      <point x="824" y="0" type="line"/>
      <point x="824" y="79" type="line"/>
      <point x="875" y="79" type="line"/>
      <point x="875" y="172" type="line"/>
      <point x="824" y="172" type="line"/>
    </contour>
    <contour>
      <point x="705" y="294" type="line"/>
      <point x="705" y="172" type="line"/>
      <point x="624" y="172" type="line"/>
    </contour>
  </outline>
</glyph>
<glyph name="questiondown" format="2">
  <advance width="518"/>
  <unicode hex="00BF"/>
  <outline>
    <contour>
      <point x="330" y="96" type="line"/>
      <point x="330" y="83" type="line" smooth="yes"/>
      <point x="330" y="21"/>
      <point x="313" y="-4"/>
      <point x="273" y="-4" type="curve" smooth="yes"/>
      <point x="242" y="-4"/>
      <point x="222" y="18"/>
      <point x="222" y="51" type="curve" smooth="yes"/>
      <point x="222" y="87"/>
      <point x="237" y="107"/>
      <point x="281" y="133" type="curve" smooth="yes"/>
      <point x="363" y="180"/>
      <point x="386" y="213"/>
      <point x="386" y="282" type="curve" smooth="yes"/>
      <point x="386" y="297" type="line"/>
      <point x="202" y="297" type="line"/>
      <point x="201" y="259"/>
      <point x="190" y="237" name="hr01"/>
      <point x="163" y="222" type="curve" smooth="yes"/>
      <point x="112" y="195"/>
      <point x="107" y="192"/>
      <point x="88" y="175" type="curve" smooth="yes"/>
      <point x="53" y="142"/>
      <point x="33" y="91" name="hr02"/>
      <point x="33" y="33" type="curve" smooth="yes"/>
      <point x="33" y="-87"/>
      <point x="113" y="-152"/>
      <point x="263" y="-152" type="curve" smooth="yes"/>
      <point x="406" y="-152"/>
      <point x="480" y="-94"/>
      <point x="498" y="30" type="curve"/>
    </contour>
    <contour>
      <point x="293" y="540" type="curve" smooth="yes"/>
      <point x="233" y="540"/>
      <point x="190" y="499" name="hr03"/>
      <point x="190" y="442" type="curve" smooth="yes"/>
      <point x="190" y="385"/>
      <point x="233" y="344"/>
      <point x="293" y="344" type="curve" smooth="yes"/>
      <point x="352" y="344"/>
      <point x="395" y="385"/>
      <point x="395" y="442" type="curve" smooth="yes"/>
      <point x="395" y="499"/>
      <point x="352" y="540"/>
    </contour>
  </outline>
</glyph>
<glyph name="Agrave" format="2">
  <advance width="665"/>
  <unicode hex="00C0"/>
  <outline>
    <contour>
      <point x="458" y="667" type="line"/>
      <point x="220" y="667" type="line"/>
      <point x="-20" y="0" type="line"/>
      <point x="174" y="0" type="line"/>
      <point x="207" y="99" type="line"/>
      <point x="423" y="99" type="line"/>
      <point x="449" y="0" type="line"/>
      <point x="663" y="0" type="line"/>
    </contour>
    <contour>
      <point x="387" y="238" type="line"/>
      <point x="254" y="238" type="line"/>
      <point x="328" y="446" type="line"/>
    </contour>
    <contour>
      <point x="265" y="914" type="line"/>
      <point x="123" y="865" type="line"/>
      <point x="353" y="717" type="line"/>
      <point x="422" y="730" type="line"/>
    </contour>
  </outline>
</glyph>
<glyph name="Acircumflex" format="2">
  <advance width="665"/>
  <unicode hex="00C2"/>
  <outline>
    <contour>
      <point x="458" y="667" type="line"/>
      <point x="220" y="667" type="line"/>
      <point x="-20" y="0" type="line"/>
      <point x="174" y="0" type="line"/>
      <point x="207" y="99" type="line"/>
      <point x="423" y="99" type="line"/>
      <point x="449" y="0" type="line"/>
      <point x="663" y="0" type="line"/>
    </contour>
    <contour>
      <point x="387" y="238" type="line"/>
      <point x="254" y="238" type="line"/>
      <point x="328" y="446" type="line"/>
    </contour>
    <contour>
      <point x="380" y="900" type="line"/>
      <point x="290" y="900" type="line"/>
      <point x="132" y="740" type="line"/>
      <point x="187" y="722" type="line"/>
      <point x="335" y="816" type="line"/>
      <point x="489" y="722" type="line"/>
      <point x="544" y="740" type="line"/>
    </contour>
  </outline>
</glyph>
<glyph name="Atilde" format="2">
  <advance width="665"/>
  <unicode hex="00C3"/>
  <outline>
    <contour>
      <point x="458" y="667" type="line"/>
      <point x="220" y="667" type="line"/>
      <point x="-20" y="0" type="line"/>
      <point x="174" y="0" type="line"/>
      <point x="207" y="99" type="line"/>
      <point x="423" y="99" type="line"/>
      <point x="449" y="0" type="line"/>
      <point x="663" y="0" type="line"/>
    </contour>
    <contour>
      <point x="387" y="238" type="line"/>
      <point x="254" y="238" type="line"/>
      <point x="328" y="446" type="line"/>
    </contour>
    <contour>
      <point x="518" y="871" type="line"/>
      <point x="499" y="842"/>
      <point x="465" y="822"/>
      <point x="435" y="822" type="curve" smooth="yes"/>
      <point x="413" y="822"/>
      <point x="388" y="829"/>
      <point x="358" y="843" type="curve" smooth="yes"/>
      <point x="309" y="866"/>
      <point x="288" y="873" name="hr01"/>
      <point x="266" y="873" type="curve" smooth="yes"/>
      <point x="210" y="873"/>
      <point x="166" y="833"/>
      <point x="138" y="756" type="curve"/>
      <point x="165" y="742" type="line"/>
      <point x="190" y="787"/>
      <point x="204" y="799"/>
      <point x="232" y="799" type="curve" smooth="yes"/>
      <point x="249" y="799"/>
      <point x="265" y="794"/>
      <point x="305" y="776" type="curve" smooth="yes"/>
      <point x="324" y="768"/>
      <point x="343" y="759"/>
      <point x="345" y="758" type="curve" smooth="yes"/>
      <point x="373" y="745"/>
      <point x="381" y="743" name="hr02"/>
      <point x="401" y="743" type="curve" smooth="yes"/>
      <point x="459" y="743"/>
      <point x="508" y="781"/>
      <point x="545" y="856" type="curve"/>
    </contour>
  </outline>
</glyph>
<glyph name="Adieresis" format="2">
  <advance width="665"/>
  <unicode hex="00C4"/>
  <outline>
    <contour>
      <point x="458" y="667" type="line"/>
      <point x="220" y="667" type="line"/>
      <point x="-20" y="0" type="line"/>
      <point x="174" y="0" type="line"/>
      <point x="207" y="99" type="line"/>
      <point x="423" y="99" type="line"/>
      <point x="449" y="0" type="line"/>
      <point x="663" y="0" type="line"/>
    </contour>
    <contour>
      <point x="387" y="238" type="line"/>
      <point x="254" y="238" type="line"/>
      <point x="328" y="446" type="line"/>
    </contour>
    <contour>
      <point x="224" y="893" type="curve" smooth="yes"/>
      <point x="172" y="893"/>
      <point x="135" y="858"/>
      <point x="135" y="808" type="curve" smooth="yes"/>
      <point x="135" y="758"/>
      <point x="172" y="723"/>
      <point x="224" y="723" type="curve" smooth="yes"/>
      <point x="277" y="723"/>
      <point x="314" y="758"/>
      <point x="314" y="808" type="curve" smooth="yes"/>
      <point x="314" y="858"/>
      <point x="277" y="893"/>
    </contour>
    <contour>
      <point x="446" y="893" type="curve" smooth="yes"/>
      <point x="393" y="893"/>
      <point x="357" y="859"/>
      <point x="357" y="808" type="curve" smooth="yes"/>
      <point x="357" y="757"/>
      <point x="393" y="723"/>
      <point x="446" y="723" type="curve" smooth="yes"/>
      <point x="499" y="723"/>
      <point x="536" y="758"/>
      <point x="536" y="808" type="curve" smooth="yes"/>
      <point x="536" y="858"/>
      <point x="499" y="893"/>
    </contour>
  </outline>
</glyph>
<glyph name="Aring" format="2">
  <advance width="665"/>
  <unicode hex="00C5"/>
  <outline>
    <contour>
      <point x="458" y="667" type="line"/>
      <point x="220" y="667" type="line"/>
      <point x="-20" y="0" type="line"/>
      <point x="174" y="0" type="line"/>
      <point x="207" y="99" type="line"/>
      <point x="423" y="99" type="line"/>
      <point x="449" y="0" type="line"/>
      <point x="663" y="0" type="line"/>
    </contour>
    <contour>
      <point x="387" y="238" type="line"/>
      <point x="254" y="238" type="line"/>
      <point x="328" y="446" type="line"/>
    </contour>
    <contour>
      <point x="335" y="908" type="curve" smooth="yes"/>
      <point x="251" y="908"/>
      <point x="201" y="871"/>
      <point x="201" y="809" type="curve" smooth="yes"/>
      <point x="201" y="747"/>
      <point x="251" y="710"/>
      <point x="335" y="710" type="curve" smooth="yes"/>
      <point x="419" y="710"/>
      <point x="469" y="747"/>
      <point x="469" y="809" type="curve" smooth="yes"/>
      <point x="469" y="871"/>
      <point x="419" y="908"/>
    </contour>
    <contour>
      <point x="335" y="863" type="curve" smooth="yes"/>
      <point x="369" y="863"/>
      <point x="391" y="841"/>
      <point x="391" y="809" type="curve" smooth="yes"/>
      <point x="391" y="777"/>
      <point x="369" y="755"/>
      <point x="335" y="755" type="curve" smooth="yes"/>
      <point x="301" y="755"/>
      <point x="279" y="777"/>
      <point x="279" y="809" type="curve" smooth="yes"/>
      <point x="279" y="841"/>
      <point x="301" y="863"/>
    </contour>
  </outline>
</glyph>
<glyph name="AE" format="2">
  <advance width="888"/>
  <unicode hex="00C6"/>
  <outline>
    <contour>
      <point x="586" y="505" type="line"/>
      <point x="810" y="505" type="line"/>
      <point x="810" y="667" type="line"/>
      <point x="297" y="667" type="line"/>
      <point x="-47" y="0" type="line"/>
      <point x="188" y="0" type="line"/>
      <point x="234" y="108" type="line" name="hr01"/>
      <point x="399" y="108" type="line"/>
      <point x="399" y="0" type="line" name="hr02"/>
      <point x="849" y="0" type="line"/>
      <point x="849" y="160" type="line"/>
      <point x="586" y="160" type="line"/>
      <point x="586" y="257" type="line"/>
      <point x="810" y="257" type="line"/>
      <point x="810" y="408" type="line"/>
      <point x="586" y="408" type="line"/>
    </contour>
    <contour>
      <point x="399" y="499" type="line"/>
      <point x="399" y="249" type="line" name="hr03"/>
      <point x="291" y="249" type="line"/>
    </contour>
  </outline>
</glyph>
<glyph name="Ccedilla" format="2">
  <advance width="670"/>
  <unicode hex="00C7"/>
  <outline>
    <contour>
      <point x="667" y="477" type="line"/>
      <point x="644" y="627"/>
      <point x="569" y="684"/>
      <point x="393" y="684" type="curve" smooth="yes"/>
      <point x="278" y="684"/>
      <point x="203" y="659"/>
      <point x="137" y="599" type="curve" smooth="yes"/>
      <point x="65" y="533"/>
      <point x="35" y="455"/>
      <point x="35" y="337" type="curve" smooth="yes"/>
      <point x="35" y="98"/>
      <point x="146" y="-17"/>
      <point x="377" y="-17" type="curve" smooth="yes"/>
      <point x="544" y="-17"/>
      <point x="634" y="47"/>
      <point x="668" y="189" type="curve"/>
      <point x="478" y="259" type="line"/>
      <point x="462" y="177"/>
      <point x="431" y="142"/>
      <point x="374" y="142" type="curve" smooth="yes"/>
      <point x="301" y="142"/>
      <point x="257" y="210"/>
      <point x="257" y="325" type="curve" smooth="yes"/>
      <point x="257" y="452"/>
      <point x="299" y="524"/>
      <point x="374" y="524" type="curve" smooth="yes"/>
      <point x="442" y="524"/>
      <point x="472" y="491"/>
      <point x="478" y="408" type="curve"/>
    </contour>
    <contour>
      <point x="282" y="-77" type="line"/>
      <point x="304" y="-101"/>
      <point x="311" y="-114" name="hr02"/>
      <point x="311" y="-131" type="curve" smooth="yes"/>
      <point x="311" y="-167"/>
      <point x="283" y="-189"/>
      <point x="233" y="-191" type="curve"/>
      <point x="248" y="-221" type="line"/>
      <point x="356" y="-211"/>
      <point x="417" y="-167"/>
      <point x="417" y="-99" type="curve" smooth="yes"/>
      <point x="417" y="-74"/>
      <point x="408" y="-54"/>
      <point x="382" y="-17" type="curve"/>
    </contour>
  </outline>
</glyph>
<glyph name="Egrave" format="2">
  <advance width="607"/>
  <unicode hex="00C8"/>
  <outline>
    <contour>
      <point x="274" y="410" type="line"/>
      <point x="274" y="507" type="line"/>
      <point x="528" y="507" type="line"/>
      <point x="528" y="667" type="line"/>
      <point x="67" y="667" type="line"/>
      <point x="67" y="0" type="line"/>
      <point x="568" y="0" type="line"/>
      <point x="568" y="160" type="line"/>
      <point x="274" y="160" type="line"/>
      <point x="274" y="260" type="line"/>
      <point x="528" y="260" type="line"/>
      <point x="528" y="410" type="line"/>
    </contour>
    <contour>
      <point x="236" y="914" type="line"/>
      <point x="94" y="865" type="line"/>
      <point x="324" y="717" type="line"/>
      <point x="393" y="730" type="line"/>
    </contour>
  </outline>
</glyph>
<glyph name="Ecircumflex" format="2">
  <advance width="607"/>
  <unicode hex="00CA"/>
  <outline>
    <contour>
      <point x="274" y="410" type="line"/>
      <point x="274" y="507" type="line"/>
      <point x="528" y="507" type="line"/>
      <point x="528" y="667" type="line"/>
      <point x="67" y="667" type="line"/>
      <point x="67" y="0" type="line"/>
      <point x="568" y="0" type="line"/>
      <point x="568" y="160" type="line"/>
      <point x="274" y="160" type="line"/>
      <point x="274" y="260" type="line"/>
      <point x="528" y="260" type="line"/>
      <point x="528" y="410" type="line"/>
    </contour>
    <contour>
      <point x="343" y="900" type="line"/>
      <point x="253" y="900" type="line"/>
      <point x="95" y="740" type="line"/>
      <point x="150" y="722" type="line"/>
      <point x="298" y="816" type="line"/>
      <point x="452" y="722" type="line"/>
      <point x="507" y="740" type="line"/>
    </contour>
  </outline>
</glyph>
<glyph name="Edieresis" format="2">
  <advance width="607"/>
  <unicode hex="00CB"/>
  <outline>
    <contour>
      <point x="274" y="410" type="line"/>
      <point x="274" y="507" type="line"/>
      <point x="528" y="507" type="line"/>
      <point x="528" y="667" type="line"/>
      <point x="67" y="667" type="line"/>
      <point x="67" y="0" type="line"/>
      <point x="568" y="0" type="line"/>
      <point x="568" y="160" type="line"/>
      <point x="274" y="160" type="line"/>
      <point x="274" y="260" type="line"/>
      <point x="528" y="260" type="line"/>
      <point x="528" y="410" type="line"/>
    </contour>
    <contour>
      <point x="190" y="893" type="curve" smooth="yes"/>
      <point x="138" y="893"/>
      <point x="101" y="858" name="hr01"/>
      <point x="101" y="808" type="curve" smooth="yes"/>
      <point x="101" y="758"/>
      <point x="138" y="723"/>
      <point x="190" y="723" type="curve" smooth="yes"/>
      <point x="243" y="723"/>
      <point x="280" y="758"/>
      <point x="280" y="808" type="curve" smooth="yes"/>
      <point x="280" y="858"/>
      <point x="243" y="893"/>
    </contour>
    <contour>
      <point x="412" y="893" type="curve" smooth="yes"/>
      <point x="359" y="893"/>
      <point x="323" y="859"/>
      <point x="323" y="808" type="curve" smooth="yes"/>
      <point x="323" y="757"/>
      <point x="359" y="723"/>
      <point x="412" y="723" type="curve" smooth="yes"/>
      <point x="465" y="723"/>
      <point x="502" y="758"/>
      <point x="502" y="808" type="curve" smooth="yes"/>
      <point x="502" y="858"/>
      <point x="465" y="893"/>
    </contour>
  </outline>
</glyph>
<glyph name="Igrave" format="2">
  <advance width="340"/>
  <unicode hex="00CC"/>
  <outline>
    <contour>
      <point x="274" y="667" type="line"/>
      <point x="67" y="667" type="line"/>
      <point x="67" y="0" type="line"/>
      <point x="274" y="0" type="line"/>
    </contour>
    <contour>
      <point x="116" y="914" type="line"/>
      <point x="-26" y="865" type="line"/>
      <point x="184" y="717" type="line"/>
      <point x="253" y="730" type="line"/>
    </contour>
  </outline>
</glyph>
<glyph name="Iacute" format="2">
  <advance width="340"/>
  <unicode hex="00CD"/>
  <outline>
    <contour>
      <point x="274" y="667" type="line"/>
      <point x="67" y="667" type="line"/>
      <point x="67" y="0" type="line"/>
      <point x="274" y="0" type="line"/>
    </contour>
    <contour>
      <point x="224" y="914" type="line"/>
      <point x="88" y="730" type="line"/>
      <point x="157" y="717" type="line"/>
      <point x="366" y="865" type="line"/>
    </contour>
  </outline>
</glyph>
<glyph name="Icircumflex" format="2">
  <advance width="340"/>
  <unicode hex="00CE"/>
  <outline>
    <contour>
      <point x="274" y="667" type="line"/>
      <point x="67" y="667" type="line"/>
      <point x="67" y="0" type="line"/>
      <point x="274" y="0" type="line"/>
    </contour>
    <contour>
      <point x="212" y="900" type="line"/>
      <point x="122" y="900" type="line"/>
      <point x="-19" y="740" type="line"/>
      <point x="36" y="722" type="line"/>
      <point x="167" y="816" type="line"/>
      <point x="305" y="722" type="line"/>
      <point x="360" y="740" type="line"/>
    </contour>
  </outline>
</glyph>
<glyph name="Idieresis" format="2">
  <advance width="340"/>
  <unicode hex="00CF"/>
  <outline>
    <contour>
      <point x="274" y="667" type="line"/>
      <point x="67" y="667" type="line"/>
      <point x="67" y="0" type="line"/>
      <point x="274" y="0" type="line"/>
    </contour>
    <contour>
      <point x="73" y="865" type="curve" smooth="yes"/>
      <point x="26" y="865"/>
      <point x="-7" y="834"/>
      <point x="-7" y="789" type="curve" smooth="yes"/>
      <point x="-7" y="744"/>
      <point x="26" y="713"/>
      <point x="73" y="713" type="curve" smooth="yes"/>
      <point x="120" y="713"/>
      <point x="153" y="744"/>
      <point x="153" y="789" type="curve" smooth="yes"/>
      <point x="153" y="834"/>
      <point x="120" y="865"/>
    </contour>
    <contour>
      <point x="268" y="865" type="curve" smooth="yes"/>
      <point x="221" y="865"/>
      <point x="188" y="834"/>
      <point x="188" y="789" type="curve" smooth="yes"/>
      <point x="188" y="745"/>
      <point x="221" y="713"/>
      <point x="268" y="713" type="curve" smooth="yes"/>
      <point x="315" y="713"/>
      <point x="348" y="744"/>
      <point x="348" y="789" type="curve" smooth="yes"/>
      <point x="348" y="834"/>
      <point x="315" y="865"/>
    </contour>
  </outline>
</glyph>
<glyph name="Eth" format="2">
  <advance width="729"/>
  <unicode hex="00D0"/>
  <outline>
    <contour>
      <point x="67" y="383" type="line"/>
      <point x="0" y="383" type="line"/>
      <point x="0" y="320" type="line"/>
      <point x="67" y="320" type="line"/>
      <point x="67" y="0" type="line"/>
      <point x="367" y="0" type="line" smooth="yes"/>
      <point x="578" y="0"/>
      <point x="695" y="121"/>
      <point x="695" y="341" type="curve" smooth="yes"/>
      <point x="695" y="475"/>
      <point x="662" y="553"/>
      <point x="583" y="609" type="curve"/>
      <point x="530" y="645"/>
      <point x="455" y="667"/>
      <point x="380" y="667" type="curve" smooth="yes"/>
      <point x="67" y="667" type="line"/>
    </contour>
    <contour>
      <point x="274" y="383" type="line"/>
      <point x="274" y="507" type="line"/>
      <point x="317" y="507" type="line" smooth="yes"/>
      <point x="364" y="507"/>
      <point x="390" y="503"/>
      <point x="412" y="492" type="curve" smooth="yes"/>
      <point x="454" y="470"/>
      <point x="478" y="417"/>
      <point x="478" y="344" type="curve" smooth="yes"/>
      <point x="478" y="281"/>
      <point x="459" y="222"/>
      <point x="428" y="193" type="curve" smooth="yes"/>
      <point x="403" y="168"/>
      <point x="375" y="160"/>
      <point x="321" y="160" type="curve" smooth="yes"/>
      <point x="274" y="160" type="line"/>
      <point x="274" y="320" type="line"/>
      <point x="387" y="320" type="line"/>
      <point x="387" y="383" type="line"/>
    </contour>
  </outline>
</glyph>
<glyph name="Ntilde" format="2">
  <advance width="797"/>
  <unicode hex="00D1"/>
  <outline>
    <contour>
      <point x="731" y="667" type="line"/>
      <point x="524" y="667" type="line"/>
      <point x="524" y="320" type="line"/>
      <point x="264" y="667" type="line"/>
      <point x="67" y="667" type="line"/>
      <point x="67" y="0" type="line"/>
      <point x="274" y="0" type="line"/>
      <point x="274" y="331" type="line"/>
      <point x="524" y="0" type="line"/>
      <point x="731" y="0" type="line"/>
    </contour>
    <contour>
      <point x="582" y="871" type="line"/>
      <point x="563" y="842"/>
      <point x="529" y="822"/>
      <point x="499" y="822" type="curve" smooth="yes"/>
      <point x="477" y="822"/>
      <point x="452" y="829"/>
      <point x="422" y="843" type="curve" smooth="yes"/>
      <point x="373" y="866"/>
      <point x="352" y="873" name="hr01"/>
      <point x="330" y="873" type="curve" smooth="yes"/>
      <point x="274" y="873"/>
      <point x="230" y="833"/>
      <point x="202" y="756" type="curve"/>
      <point x="229" y="742" type="line"/>
      <point x="254" y="787"/>
      <point x="268" y="799"/>
      <point x="296" y="799" type="curve" smooth="yes"/>
      <point x="313" y="799"/>
      <point x="329" y="794"/>
      <point x="369" y="776" type="curve" smooth="yes"/>
      <point x="388" y="768"/>
      <point x="407" y="759"/>
      <point x="409" y="758" type="curve" smooth="yes"/>
      <point x="437" y="745"/>
      <point x="445" y="743" name="hr02"/>
      <point x="465" y="743" type="curve" smooth="yes"/>
      <point x="523" y="743"/>
      <point x="572" y="781"/>
      <point x="609" y="856" type="curve"/>
    </contour>
  </outline>
</glyph>
<glyph name="Ograve" format="2">
  <advance width="779"/>
  <unicode hex="00D2"/>
  <outline>
    <contour>
      <point x="390" y="684" type="curve" smooth="yes"/>
      <point x="165" y="684"/>
      <point x="35" y="558"/>
      <point x="35" y="340" type="curve" smooth="yes"/>
      <point x="35" y="199"/>
      <point x="70" y="114"/>
      <point x="156" y="51" type="curve" smooth="yes"/>
      <point x="218" y="5"/>
      <point x="294" y="-17"/>
      <point x="390" y="-17" type="curve" smooth="yes"/>
      <point x="486" y="-17"/>
      <point x="562" y="5"/>
      <point x="624" y="51" type="curve" smooth="yes"/>
      <point x="708" y="113"/>
      <point x="745" y="199"/>
      <point x="745" y="333" type="curve" smooth="yes"/>
      <point x="745" y="468"/>
      <point x="708" y="555"/>
      <point x="624" y="616" type="curve" smooth="yes"/>
      <point x="561" y="662"/>
      <point x="486" y="684"/>
    </contour>
    <contour>
      <point x="390" y="524" type="curve" smooth="yes"/>
      <point x="470" y="524"/>
      <point x="522" y="449"/>
      <point x="522" y="334" type="curve" smooth="yes"/>
      <point x="522" y="218"/>
      <point x="470" y="143"/>
      <point x="390" y="143" type="curve" smooth="yes"/>
      <point x="310" y="143"/>
      <point x="258" y="218"/>
      <point x="258" y="334" type="curve" smooth="yes"/>
      <point x="258" y="450"/>
      <point x="310" y="524"/>
    </contour>
    <contour>
      <point x="323" y="914" type="line"/>
      <point x="181" y="865" type="line"/>
      <point x="411" y="717" type="line"/>
      <point x="480" y="730" type="line"/>
    </contour>
  </outline>
</glyph>
<glyph name="Oacute" format="2">
  <advance width="779"/>
  <unicode hex="00D3"/>
  <outline>
    <contour>
      <point x="390" y="684" type="curve" smooth="yes"/>
      <point x="165" y="684"/>
      <point x="35" y="558"/>
      <point x="35" y="340" type="curve" smooth="yes"/>
      <point x="35" y="199"/>
      <point x="70" y="114"/>
      <point x="156" y="51" type="curve" smooth="yes"/>
      <point x="218" y="5"/>
      <point x="294" y="-17"/>
      <point x="390" y="-17" type="curve" smooth="yes"/>
      <point x="486" y="-17"/>
      <point x="562" y="5"/>
      <point x="624" y="51" type="curve" smooth="yes"/>
      <point x="708" y="113"/>
      <point x="745" y="199"/>
      <point x="745" y="333" type="curve" smooth="yes"/>
      <point x="745" y="468"/>
      <point x="708" y="555"/>
      <point x="624" y="616" type="curve" smooth="yes"/>
      <point x="561" y="662"/>
      <point x="486" y="684"/>
    </contour>
    <contour>
      <point x="390" y="524" type="curve" smooth="yes"/>
      <point x="470" y="524"/>
      <point x="522" y="449"/>
      <point x="522" y="334" type="curve" smooth="yes"/>
      <point x="522" y="218"/>
      <point x="470" y="143"/>
      <point x="390" y="143" type="curve" smooth="yes"/>
      <point x="310" y="143"/>
      <point x="258" y="218"/>
      <point x="258" y="334" type="curve" smooth="yes"/>
      <point x="258" y="450"/>
      <point x="310" y="524"/>
    </contour>
    <contour>
      <point x="457" y="914" type="line"/>
      <point x="301" y="730" type="line"/>
      <point x="370" y="717" type="line"/>
      <point x="600" y="865" type="line"/>
    </contour>
  </outline>
</glyph>
<glyph name="Ocircumflex" format="2">
  <advance width="779"/>
  <unicode hex="00D4"/>
  <outline>
    <contour>
      <point x="390" y="684" type="curve" smooth="yes"/>
      <point x="165" y="684"/>
      <point x="35" y="558"/>
      <point x="35" y="340" type="curve" smooth="yes"/>
      <point x="35" y="199"/>
      <point x="70" y="114"/>
      <point x="156" y="51" type="curve" smooth="yes"/>
      <point x="218" y="5"/>
      <point x="294" y="-17"/>
      <point x="390" y="-17" type="curve" smooth="yes"/>
      <point x="486" y="-17"/>
      <point x="562" y="5"/>
      <point x="624" y="51" type="curve" smooth="yes"/>
      <point x="708" y="113"/>
      <point x="745" y="199"/>
      <point x="745" y="333" type="curve" smooth="yes"/>
      <point x="745" y="468"/>
      <point x="708" y="555"/>
      <point x="624" y="616" type="curve" smooth="yes"/>
      <point x="561" y="662"/>
      <point x="486" y="684"/>
    </contour>
    <contour>
      <point x="390" y="524" type="curve" smooth="yes"/>
      <point x="470" y="524"/>
      <point x="522" y="449"/>
      <point x="522" y="334" type="curve" smooth="yes"/>
      <point x="522" y="218"/>
      <point x="470" y="143"/>
      <point x="390" y="143" type="curve" smooth="yes"/>
      <point x="310" y="143"/>
      <point x="258" y="218"/>
      <point x="258" y="334" type="curve" smooth="yes"/>
      <point x="258" y="450"/>
      <point x="310" y="524"/>
    </contour>
    <contour>
      <point x="432" y="900" type="line"/>
      <point x="342" y="900" type="line"/>
      <point x="184" y="740" type="line"/>
      <point x="239" y="722" type="line"/>
      <point x="387" y="816" type="line"/>
      <point x="541" y="722" type="line"/>
      <point x="596" y="740" type="line"/>
    </contour>
  </outline>
</glyph>
<glyph name="Otilde" format="2">
  <advance width="779"/>
  <unicode hex="00D5"/>
  <outline>
    <contour>
      <point x="390" y="684" type="curve" smooth="yes"/>
      <point x="165" y="684"/>
      <point x="35" y="558"/>
      <point x="35" y="340" type="curve" smooth="yes"/>
      <point x="35" y="199"/>
      <point x="70" y="114"/>
      <point x="156" y="51" type="curve" smooth="yes"/>
      <point x="218" y="5"/>
      <point x="294" y="-17"/>
      <point x="390" y="-17" type="curve" smooth="yes"/>
      <point x="486" y="-17"/>
      <point x="562" y="5"/>
      <point x="624" y="51" type="curve" smooth="yes"/>
      <point x="708" y="113"/>
      <point x="745" y="199"/>
      <point x="745" y="333" type="curve" smooth="yes"/>
      <point x="745" y="468"/>
      <point x="708" y="555"/>
      <point x="624" y="616" type="curve" smooth="yes"/>
      <point x="561" y="662"/>
      <point x="486" y="684"/>
    </contour>
    <contour>
      <point x="390" y="524" type="curve" smooth="yes"/>
      <point x="470" y="524"/>
      <point x="522" y="449"/>
      <point x="522" y="334" type="curve" smooth="yes"/>
      <point x="522" y="218"/>
      <point x="470" y="143"/>
      <point x="390" y="143" type="curve" smooth="yes"/>
      <point x="310" y="143"/>
      <point x="258" y="218"/>
      <point x="258" y="334" type="curve" smooth="yes"/>
      <point x="258" y="450"/>
      <point x="310" y="524"/>
    </contour>
    <contour>
      <point x="573" y="871" type="line"/>
      <point x="554" y="842"/>
      <point x="520" y="822"/>
      <point x="490" y="822" type="curve" smooth="yes"/>
      <point x="468" y="822"/>
      <point x="443" y="829"/>
      <point x="413" y="843" type="curve" smooth="yes"/>
      <point x="364" y="866"/>
      <point x="343" y="873"/>
      <point x="321" y="873" type="curve" smooth="yes"/>
      <point x="265" y="873" name="hr01"/>
      <point x="221" y="833"/>
      <point x="193" y="756" type="curve"/>
      <point x="220" y="742" type="line"/>
      <point x="245" y="787"/>
      <point x="259" y="799"/>
      <point x="287" y="799" type="curve" smooth="yes"/>
      <point x="304" y="799"/>
      <point x="320" y="794"/>
      <point x="360" y="776" type="curve" smooth="yes"/>
      <point x="379" y="768"/>
      <point x="398" y="759"/>
      <point x="400" y="758" type="curve" smooth="yes"/>
      <point x="428" y="745"/>
      <point x="436" y="743"/>
      <point x="456" y="743" type="curve" smooth="yes"/>
      <point x="514" y="743" name="hr02"/>
      <point x="563" y="781"/>
      <point x="600" y="856" type="curve"/>
    </contour>
  </outline>
</glyph>
<glyph name="Odieresis" format="2">
  <advance width="779"/>
  <unicode hex="00D6"/>
  <outline>
    <contour>
      <point x="390" y="684" type="curve" smooth="yes"/>
      <point x="165" y="684"/>
      <point x="35" y="558"/>
      <point x="35" y="340" type="curve" smooth="yes"/>
      <point x="35" y="199"/>
      <point x="70" y="114"/>
      <point x="156" y="51" type="curve" smooth="yes"/>
      <point x="218" y="5"/>
      <point x="294" y="-17"/>
      <point x="390" y="-17" type="curve" smooth="yes"/>
      <point x="486" y="-17"/>
      <point x="562" y="5"/>
      <point x="624" y="51" type="curve" smooth="yes"/>
      <point x="708" y="113"/>
      <point x="745" y="199"/>
      <point x="745" y="333" type="curve" smooth="yes"/>
      <point x="745" y="468"/>
      <point x="708" y="555"/>
      <point x="624" y="616" type="curve" smooth="yes"/>
      <point x="561" y="662"/>
      <point x="486" y="684"/>
    </contour>
    <contour>
      <point x="390" y="524" type="curve" smooth="yes"/>
      <point x="470" y="524"/>
      <point x="522" y="449"/>
      <point x="522" y="334" type="curve" smooth="yes"/>
      <point x="522" y="218"/>
      <point x="470" y="143"/>
      <point x="390" y="143" type="curve" smooth="yes"/>
      <point x="310" y="143"/>
      <point x="258" y="218"/>
      <point x="258" y="334" type="curve" smooth="yes"/>
      <point x="258" y="450"/>
      <point x="310" y="524"/>
    </contour>
    <contour>
      <point x="279" y="893" type="curve" smooth="yes"/>
      <point x="227" y="893"/>
      <point x="190" y="858"/>
      <point x="190" y="808" type="curve" smooth="yes"/>
      <point x="190" y="758" name="hr01"/>
      <point x="227" y="723"/>
      <point x="279" y="723" type="curve" smooth="yes"/>
      <point x="332" y="723"/>
      <point x="369" y="758"/>
      <point x="369" y="808" type="curve" smooth="yes"/>
      <point x="369" y="858"/>
      <point x="332" y="893"/>
    </contour>
    <contour>
      <point x="501" y="893" type="curve" smooth="yes"/>
      <point x="448" y="893"/>
      <point x="412" y="859"/>
      <point x="412" y="808" type="curve" smooth="yes"/>
      <point x="412" y="757"/>
      <point x="448" y="723"/>
      <point x="501" y="723" type="curve" smooth="yes"/>
      <point x="554" y="723"/>
      <point x="591" y="758"/>
      <point x="591" y="808" type="curve" smooth="yes"/>
      <point x="591" y="858"/>
      <point x="554" y="893"/>
    </contour>
  </outline>
</glyph>
<glyph name="multiply" format="2">
  <advance width="607"/>
  <unicode hex="00D7"/>
  <outline>
    <contour>
      <point x="43" y="205" type="line"/>
      <point x="168" y="80" type="line"/>
      <point x="301" y="213" type="line"/>
      <point x="433" y="80" type="line"/>
      <point x="563" y="210" type="line"/>
      <point x="430" y="342" type="line"/>
      <point x="563" y="475" type="line"/>
      <point x="438" y="600" type="line"/>
      <point x="305" y="467" type="line"/>
      <point x="173" y="600" type="line"/>
      <point x="43" y="470" type="line"/>
      <point x="176" y="338" type="line"/>
    </contour>
  </outline>
</glyph>
<glyph name="Oslash" format="2">
  <advance width="779"/>
  <unicode hex="00D8"/>
  <outline>
    <contour>
      <point x="665" y="702" type="line"/>
      <point x="601" y="633" type="line"/>
      <point x="511" y="676"/>
      <point x="478" y="684"/>
      <point x="390" y="684" type="curve" smooth="yes"/>
      <point x="297" y="684"/>
      <point x="218" y="661"/>
      <point x="156" y="615" type="curve" smooth="yes"/>
      <point x="72" y="553"/>
      <point x="35" y="468"/>
      <point x="35" y="334" type="curve" smooth="yes"/>
      <point x="35" y="217"/>
      <point x="57" y="153"/>
      <point x="123" y="77" type="curve"/>
      <point x="61" y="3" type="line"/>
      <point x="111" y="-34" type="line"/>
      <point x="171" y="38" type="line"/>
      <point x="250" y="-3"/>
      <point x="304" y="-17"/>
      <point x="391" y="-17" type="curve" smooth="yes"/>
      <point x="483" y="-17"/>
      <point x="565" y="7"/>
      <point x="625" y="51" type="curve" smooth="yes"/>
      <point x="708" y="113"/>
      <point x="745" y="206"/>
      <point x="745" y="353" type="curve" smooth="yes"/>
      <point x="745" y="454"/>
      <point x="716" y="529"/>
      <point x="652" y="596" type="curve"/>
      <point x="713" y="663" type="line"/>
    </contour>
    <contour>
      <point x="505" y="435" type="line"/>
      <point x="518" y="393"/>
      <point x="521" y="374"/>
      <point x="521" y="338" type="curve" smooth="yes"/>
      <point x="521" y="214"/>
      <point x="474" y="144"/>
      <point x="390" y="144" type="curve" smooth="yes"/>
      <point x="355" y="144"/>
      <point x="329" y="155"/>
      <point x="301" y="182" type="curve"/>
    </contour>
    <contour>
      <point x="272" y="243" type="line"/>
      <point x="262" y="285"/>
      <point x="259" y="306"/>
      <point x="259" y="334" type="curve" smooth="yes"/>
      <point x="259" y="451"/>
      <point x="309" y="524"/>
      <point x="390" y="524" type="curve" smooth="yes"/>
      <point x="420" y="524"/>
      <point x="442" y="515"/>
      <point x="471" y="491" type="curve"/>
    </contour>
  </outline>
</glyph>
<glyph name="Ugrave" format="2">
  <advance width="728"/>
  <unicode hex="00D9"/>
  <outline>
    <contour>
      <point x="60" y="667" type="line"/>
      <point x="60" y="278" type="line" smooth="yes"/>
      <point x="60" y="194"/>
      <point x="69" y="150"/>
      <point x="95" y="104" type="curve" smooth="yes"/>
      <point x="142" y="20"/>
      <point x="224" y="-17"/>
      <point x="364" y="-17" type="curve" smooth="yes"/>
      <point x="485" y="-17"/>
      <point x="559" y="9"/>
      <point x="610" y="70" type="curve" smooth="yes"/>
      <point x="653" y="121"/>
      <point x="668" y="176"/>
      <point x="668" y="278" type="curve" smooth="yes"/>
      <point x="668" y="667" type="line"/>
      <point x="461" y="667" type="line"/>
      <point x="461" y="281" type="line" smooth="yes"/>
      <point x="461" y="176"/>
      <point x="438" y="143"/>
      <point x="364" y="143" type="curve" smooth="yes"/>
      <point x="290" y="143"/>
      <point x="267" y="175"/>
      <point x="267" y="281" type="curve" smooth="yes"/>
      <point x="267" y="667" type="line"/>
    </contour>
    <contour>
      <point x="300" y="914" type="line"/>
      <point x="158" y="865" type="line"/>
      <point x="388" y="717" type="line"/>
      <point x="457" y="730" type="line"/>
    </contour>
  </outline>
</glyph>
<glyph name="Uacute" format="2">
  <advance width="728"/>
  <unicode hex="00DA"/>
  <outline>
    <contour>
      <point x="60" y="667" type="line"/>
      <point x="60" y="278" type="line" smooth="yes"/>
      <point x="60" y="194"/>
      <point x="69" y="150"/>
      <point x="95" y="104" type="curve" smooth="yes"/>
      <point x="142" y="20"/>
      <point x="224" y="-17"/>
      <point x="364" y="-17" type="curve" smooth="yes"/>
      <point x="485" y="-17"/>
      <point x="559" y="9"/>
      <point x="610" y="70" type="curve" smooth="yes"/>
      <point x="653" y="121"/>
      <point x="668" y="176"/>
      <point x="668" y="278" type="curve" smooth="yes"/>
      <point x="668" y="667" type="line"/>
      <point x="461" y="667" type="line"/>
      <point x="461" y="281" type="line" smooth="yes"/>
      <point x="461" y="176"/>
      <point x="438" y="143"/>
      <point x="364" y="143" type="curve" smooth="yes"/>
      <point x="290" y="143"/>
      <point x="267" y="175"/>
      <point x="267" y="281" type="curve" smooth="yes"/>
      <point x="267" y="667" type="line"/>
    </contour>
    <contour>
      <point x="427" y="914" type="line"/>
      <point x="271" y="730" type="line"/>
      <point x="340" y="717" type="line"/>
      <point x="570" y="865" type="line"/>
    </contour>
  </outline>
</glyph>
<glyph name="Ucircumflex" format="2">
  <advance width="728"/>
  <unicode hex="00DB"/>
  <outline>
    <contour>
      <point x="60" y="667" type="line"/>
      <point x="60" y="278" type="line" smooth="yes"/>
      <point x="60" y="194"/>
      <point x="69" y="150"/>
      <point x="95" y="104" type="curve" smooth="yes"/>
      <point x="142" y="20"/>
      <point x="224" y="-17"/>
      <point x="364" y="-17" type="curve" smooth="yes"/>
      <point x="485" y="-17"/>
      <point x="559" y="9"/>
      <point x="610" y="70" type="curve" smooth="yes"/>
      <point x="653" y="121"/>
      <point x="668" y="176"/>
      <point x="668" y="278" type="curve" smooth="yes"/>
      <point x="668" y="667" type="line"/>
      <point x="461" y="667" type="line"/>
      <point x="461" y="281" type="line" smooth="yes"/>
      <point x="461" y="176"/>
      <point x="438" y="143"/>
      <point x="364" y="143" type="curve" smooth="yes"/>
      <point x="290" y="143"/>
      <point x="267" y="175"/>
      <point x="267" y="281" type="curve" smooth="yes"/>
      <point x="267" y="667" type="line"/>
    </contour>
    <contour>
      <point x="406" y="900" type="line"/>
      <point x="316" y="900" type="line"/>
      <point x="158" y="740" type="line"/>
      <point x="213" y="722" type="line"/>
      <point x="361" y="816" type="line"/>
      <point x="515" y="722" type="line"/>
      <point x="570" y="740" type="line"/>
    </contour>
  </outline>
</glyph>
<glyph name="Udieresis" format="2">
  <advance width="728"/>
  <unicode hex="00DC"/>
  <outline>
    <contour>
      <point x="60" y="667" type="line"/>
      <point x="60" y="278" type="line" smooth="yes"/>
      <point x="60" y="194"/>
      <point x="69" y="150"/>
      <point x="95" y="104" type="curve" smooth="yes"/>
      <point x="142" y="20"/>
      <point x="224" y="-17"/>
      <point x="364" y="-17" type="curve" smooth="yes"/>
      <point x="485" y="-17"/>
      <point x="559" y="9"/>
      <point x="610" y="70" type="curve" smooth="yes"/>
      <point x="653" y="121"/>
      <point x="668" y="176"/>
      <point x="668" y="278" type="curve" smooth="yes"/>
      <point x="668" y="667" type="line"/>
      <point x="461" y="667" type="line"/>
      <point x="461" y="281" type="line" smooth="yes"/>
      <point x="461" y="176"/>
      <point x="438" y="143"/>
      <point x="364" y="143" type="curve" smooth="yes"/>
      <point x="290" y="143"/>
      <point x="267" y="175"/>
      <point x="267" y="281" type="curve" smooth="yes"/>
      <point x="267" y="667" type="line"/>
    </contour>
    <contour>
      <point x="253" y="893" type="curve" smooth="yes"/>
      <point x="201" y="893"/>
      <point x="164" y="858" name="hr01"/>
      <point x="164" y="808" type="curve" smooth="yes"/>
      <point x="164" y="758"/>
      <point x="201" y="723"/>
      <point x="253" y="723" type="curve" smooth="yes"/>
      <point x="306" y="723"/>
      <point x="343" y="758"/>
      <point x="343" y="808" type="curve" smooth="yes"/>
      <point x="343" y="858"/>
      <point x="306" y="893"/>
    </contour>
    <contour>
      <point x="475" y="893" type="curve" smooth="yes"/>
      <point x="422" y="893"/>
      <point x="386" y="859"/>
      <point x="386" y="808" type="curve" smooth="yes"/>
      <point x="386" y="757"/>
      <point x="422" y="723"/>
      <point x="475" y="723" type="curve" smooth="yes"/>
      <point x="528" y="723"/>
      <point x="565" y="758"/>
      <point x="565" y="808" type="curve" smooth="yes"/>
      <point x="565" y="858"/>
      <point x="528" y="893"/>
    </contour>
  </outline>
</glyph>
<glyph name="Yacute" format="2">
  <advance width="619"/>
  <unicode hex="00DD"/>
  <outline>
    <contour>
      <point x="445" y="667" type="line"/>
      <point x="325" y="440" type="line"/>
      <point x="189" y="667" type="line"/>
      <point x="-40" y="667" type="line"/>
      <point x="206" y="258" type="line"/>
      <point x="206" y="0" type="line"/>
      <point x="413" y="0" type="line"/>
      <point x="413" y="267" type="line"/>
      <point x="656" y="667" type="line"/>
    </contour>
    <contour>
      <point x="383" y="914" type="line"/>
      <point x="227" y="730" type="line"/>
      <point x="296" y="717" type="line"/>
      <point x="526" y="865" type="line"/>
    </contour>
  </outline>
</glyph>
<glyph name="Thorn" format="2">
  <advance width="640"/>
  <unicode hex="00DE"/>
  <outline>
    <contour>
      <point x="67" y="0" type="line"/>
      <point x="272" y="0" type="line"/>
      <point x="272" y="143" type="line"/>
      <point x="305" y="143" type="line" smooth="yes"/>
      <point x="313" y="143"/>
      <point x="325" y="143"/>
      <point x="340" y="144" type="curve" smooth="yes"/>
      <point x="410" y="147"/>
      <point x="431" y="149"/>
      <point x="455" y="156" type="curve" smooth="yes"/>
      <point x="566" y="186"/>
      <point x="627" y="266"/>
      <point x="627" y="380" type="curve" smooth="yes"/>
      <point x="627" y="444"/>
      <point x="608" y="496"/>
      <point x="572" y="530" type="curve" smooth="yes"/>
      <point x="528" y="573"/>
      <point x="480" y="588"/>
      <point x="386" y="590" type="curve" smooth="yes"/>
      <point x="300" y="592"/>
      <point x="328" y="591"/>
      <point x="299" y="592" type="curve"/>
      <point x="272" y="592" type="line"/>
      <point x="272" y="667" type="line"/>
      <point x="67" y="667" type="line"/>
    </contour>
    <contour>
      <point x="272" y="308" type="line"/>
      <point x="272" y="432" type="line"/>
      <point x="285" y="432" type="line" smooth="yes"/>
      <point x="330" y="432"/>
      <point x="343" y="431"/>
      <point x="354" y="430" type="curve"/>
      <point x="393" y="424"/>
      <point x="412" y="405"/>
      <point x="412" y="370" type="curve" smooth="yes"/>
      <point x="412" y="325"/>
      <point x="385" y="308"/>
      <point x="314" y="308" type="curve" smooth="yes"/>
      <point x="285" y="308" type="line"/>
    </contour>
  </outline>
</glyph>
<glyph name="germandbls" format="2">
  <advance width="635"/>
  <unicode hex="00DF"/>
  <outline>
    <contour>
      <point x="56" y="0" type="line"/>
      <point x="252" y="0" type="line"/>
      <point x="252" y="446" type="line" smooth="yes"/>
      <point x="252" y="528"/>
      <point x="274" y="564"/>
      <point x="322" y="564" type="curve" smooth="yes"/>
      <point x="356" y="564"/>
      <point x="380" y="541"/>
      <point x="380" y="509" type="curve" smooth="yes"/>
      <point x="380" y="487"/>
      <point x="370" y="462"/>
      <point x="348" y="428" type="curve" smooth="yes"/>
      <point x="323" y="390"/>
      <point x="317" y="373" name="hr01"/>
      <point x="317" y="345" type="curve" smooth="yes"/>
      <point x="317" y="321"/>
      <point x="327" y="297"/>
      <point x="352" y="264" type="curve" smooth="yes"/>
      <point x="391" y="214"/>
      <point x="396" y="205" name="hr02"/>
      <point x="396" y="189" type="curve" smooth="yes"/>
      <point x="396" y="166"/>
      <point x="378" y="149"/>
      <point x="353" y="149" type="curve" smooth="yes"/>
      <point x="344" y="149"/>
      <point x="336" y="151"/>
      <point x="322" y="155" type="curve"/>
      <point x="301" y="0" type="line"/>
      <point x="347" y="-10"/>
      <point x="374" y="-13"/>
      <point x="409" y="-13" type="curve" smooth="yes"/>
      <point x="531" y="-13"/>
      <point x="618" y="64"/>
      <point x="618" y="173" type="curve" smooth="yes"/>
      <point x="618" y="217"/>
      <point x="605" y="249"/>
      <point x="569" y="291" type="curve" smooth="yes"/>
      <point x="513" y="358"/>
      <point x="510" y="363" name="hr03"/>
      <point x="510" y="391" type="curve" smooth="yes"/>
      <point x="510" y="406"/>
      <point x="512" y="417"/>
      <point x="521" y="441" type="curve" smooth="yes"/>
      <point x="535" y="481"/>
      <point x="543" y="517" name="hr04"/>
      <point x="543" y="539" type="curve" smooth="yes"/>
      <point x="543" y="643"/>
      <point x="457" y="707"/>
      <point x="316" y="707" type="curve" smooth="yes"/>
      <point x="154" y="707"/>
      <point x="56" y="622"/>
      <point x="56" y="481" type="curve" smooth="yes"/>
      <point x="56" y="467" type="line"/>
      <point x="-8" y="467" type="line"/>
      <point x="-8" y="319" type="line"/>
      <point x="56" y="319" type="line"/>
    </contour>
  </outline>
</glyph>
<glyph name="agrave" format="2">
  <advance width="633"/>
  <unicode hex="00E0"/>
  <outline>
    <contour>
      <point x="582" y="467" type="line"/>
      <point x="389" y="467" type="line"/>
      <point x="389" y="413" type="line"/>
      <point x="358" y="464"/>
      <point x="327" y="480" name="hr01"/>
      <point x="259" y="480" type="curve" smooth="yes"/>
      <point x="113" y="480"/>
      <point x="33" y="392"/>
      <point x="33" y="229" type="curve" smooth="yes"/>
      <point x="33" y="76"/>
      <point x="109" y="-13"/>
      <point x="240" y="-13" type="curve" smooth="yes"/>
      <point x="311" y="-13"/>
      <point x="349" y="2"/>
      <point x="389" y="46" type="curve"/>
      <point x="389" y="0" type="line"/>
      <point x="582" y="0" type="line"/>
    </contour>
    <contour>
      <point x="315" y="343" type="curve" smooth="yes"/>
      <point x="361" y="343"/>
      <point x="389" y="303"/>
      <point x="389" y="235" type="curve" smooth="yes"/>
      <point x="389" y="159"/>
      <point x="364" y="123"/>
      <point x="311" y="123" type="curve" smooth="yes"/>
      <point x="264" y="123"/>
      <point x="238" y="162"/>
      <point x="238" y="233" type="curve" smooth="yes"/>
      <point x="238" y="305"/>
      <point x="265" y="343"/>
    </contour>
    <contour>
      <point x="261" y="715" type="line"/>
      <point x="116" y="666" type="line"/>
      <point x="348" y="519" type="line"/>
      <point x="415" y="532" type="line"/>
    </contour>
  </outline>
</glyph>
<glyph name="aacute" format="2">
  <advance width="633"/>
  <unicode hex="00E1"/>
  <outline>
    <contour>
      <point x="582" y="467" type="line"/>
      <point x="389" y="467" type="line"/>
      <point x="389" y="413" type="line"/>
      <point x="358" y="464"/>
      <point x="327" y="480"/>
      <point x="259" y="480" type="curve" smooth="yes"/>
      <point x="113" y="480"/>
      <point x="33" y="392"/>
      <point x="33" y="229" type="curve" smooth="yes"/>
      <point x="33" y="76"/>
      <point x="109" y="-13"/>
      <point x="240" y="-13" type="curve" smooth="yes"/>
      <point x="311" y="-13"/>
      <point x="349" y="2"/>
      <point x="389" y="46" type="curve"/>
      <point x="389" y="0" type="line"/>
      <point x="582" y="0" type="line"/>
    </contour>
    <contour>
      <point x="315" y="343" type="curve" smooth="yes"/>
      <point x="361" y="343"/>
      <point x="389" y="303"/>
      <point x="389" y="235" type="curve" smooth="yes"/>
      <point x="389" y="159"/>
      <point x="364" y="123"/>
      <point x="311" y="123" type="curve" smooth="yes"/>
      <point x="264" y="123"/>
      <point x="238" y="162"/>
      <point x="238" y="233" type="curve" smooth="yes"/>
      <point x="238" y="305"/>
      <point x="265" y="343"/>
    </contour>
    <contour>
      <point x="393" y="714" type="line"/>
      <point x="237" y="530" type="line"/>
      <point x="306" y="517" type="line"/>
      <point x="536" y="665" type="line"/>
    </contour>
  </outline>
</glyph>
<glyph name="acircumflex" format="2">
  <advance width="633"/>
  <unicode hex="00E2"/>
  <outline>
    <contour>
      <point x="582" y="467" type="line"/>
      <point x="389" y="467" type="line"/>
      <point x="389" y="413" type="line"/>
      <point x="358" y="464"/>
      <point x="327" y="480" name="hr01"/>
      <point x="259" y="480" type="curve" smooth="yes"/>
      <point x="113" y="480"/>
      <point x="33" y="392"/>
      <point x="33" y="229" type="curve" smooth="yes"/>
      <point x="33" y="76"/>
      <point x="109" y="-13"/>
      <point x="240" y="-13" type="curve" smooth="yes"/>
      <point x="311" y="-13"/>
      <point x="349" y="2"/>
      <point x="389" y="46" type="curve"/>
      <point x="389" y="0" type="line"/>
      <point x="582" y="0" type="line"/>
    </contour>
    <contour>
      <point x="315" y="343" type="curve" smooth="yes"/>
      <point x="361" y="343"/>
      <point x="389" y="303"/>
      <point x="389" y="235" type="curve" smooth="yes"/>
      <point x="389" y="159"/>
      <point x="364" y="123"/>
      <point x="311" y="123" type="curve" smooth="yes"/>
      <point x="264" y="123"/>
      <point x="238" y="162"/>
      <point x="238" y="233" type="curve" smooth="yes"/>
      <point x="238" y="305"/>
      <point x="265" y="343"/>
    </contour>
    <contour>
      <point x="370" y="700" type="line"/>
      <point x="280" y="700" type="line"/>
      <point x="132" y="540" type="line"/>
      <point x="187" y="522" type="line"/>
      <point x="325" y="616" type="line"/>
      <point x="469" y="522" type="line"/>
      <point x="524" y="540" type="line"/>
    </contour>
  </outline>
</glyph>
<glyph name="atilde" format="2">
  <advance width="633"/>
  <unicode hex="00E3"/>
  <outline>
    <contour>
      <point x="582" y="467" type="line"/>
      <point x="389" y="467" type="line"/>
      <point x="389" y="413" type="line"/>
      <point x="358" y="464"/>
      <point x="327" y="480"/>
      <point x="259" y="480" type="curve" smooth="yes"/>
      <point x="113" y="480"/>
      <point x="33" y="392"/>
      <point x="33" y="229" type="curve" smooth="yes"/>
      <point x="33" y="76"/>
      <point x="109" y="-13"/>
      <point x="240" y="-13" type="curve" smooth="yes"/>
      <point x="311" y="-13"/>
      <point x="349" y="2"/>
      <point x="389" y="46" type="curve"/>
      <point x="389" y="0" type="line"/>
      <point x="582" y="0" type="line"/>
    </contour>
    <contour>
      <point x="315" y="343" type="curve" smooth="yes"/>
      <point x="361" y="343"/>
      <point x="389" y="303"/>
      <point x="389" y="235" type="curve" smooth="yes"/>
      <point x="389" y="159"/>
      <point x="364" y="123"/>
      <point x="311" y="123" type="curve" smooth="yes"/>
      <point x="264" y="123"/>
      <point x="238" y="162"/>
      <point x="238" y="233" type="curve" smooth="yes"/>
      <point x="238" y="305"/>
      <point x="265" y="343"/>
    </contour>
    <contour>
      <point x="495" y="671" type="line"/>
      <point x="472" y="639"/>
      <point x="441" y="620"/>
      <point x="411" y="620" type="curve" smooth="yes"/>
      <point x="389" y="620"/>
      <point x="370" y="626"/>
      <point x="344" y="642" type="curve" smooth="yes"/>
      <point x="303" y="666"/>
      <point x="283" y="673"/>
      <point x="257" y="673" type="curve" smooth="yes" name="hr01"/>
      <point x="205" y="673"/>
      <point x="158" y="629"/>
      <point x="132" y="557" type="curve"/>
      <point x="159" y="543" type="line"/>
      <point x="185" y="589" name="hr02"/>
      <point x="198" y="601"/>
      <point x="227" y="601" type="curve" smooth="yes" name="hr03"/>
      <point x="243" y="601"/>
      <point x="272" y="590"/>
      <point x="303" y="572" type="curve" smooth="yes"/>
      <point x="344" y="548"/>
      <point x="358" y="543"/>
      <point x="386" y="543" type="curve" smooth="yes" name="hr04"/>
      <point x="439" y="543"/>
      <point x="486" y="582"/>
      <point x="523" y="657" type="curve"/>
    </contour>
  </outline>
</glyph>
<glyph name="adieresis" format="2">
  <advance width="633"/>
  <unicode hex="00E4"/>
  <outline>
    <contour>
      <point x="582" y="467" type="line"/>
      <point x="389" y="467" type="line"/>
      <point x="389" y="413" type="line"/>
      <point x="358" y="464"/>
      <point x="327" y="480" name="hr01"/>
      <point x="259" y="480" type="curve" smooth="yes"/>
      <point x="113" y="480"/>
      <point x="33" y="392"/>
      <point x="33" y="229" type="curve" smooth="yes"/>
      <point x="33" y="76"/>
      <point x="109" y="-13"/>
      <point x="240" y="-13" type="curve" smooth="yes"/>
      <point x="311" y="-13"/>
      <point x="349" y="2"/>
      <point x="389" y="46" type="curve" name="hr02"/>
      <point x="389" y="0" type="line"/>
      <point x="582" y="0" type="line"/>
    </contour>
    <contour>
      <point x="315" y="343" type="curve" smooth="yes"/>
      <point x="361" y="343"/>
      <point x="389" y="303"/>
      <point x="389" y="235" type="curve" smooth="yes"/>
      <point x="389" y="159"/>
      <point x="364" y="123"/>
      <point x="311" y="123" type="curve" smooth="yes"/>
      <point x="264" y="123"/>
      <point x="238" y="162"/>
      <point x="238" y="233" type="curve" smooth="yes"/>
      <point x="238" y="305"/>
      <point x="265" y="343"/>
    </contour>
    <contour>
      <point x="220" y="693" type="curve" smooth="yes"/>
      <point x="169" y="693"/>
      <point x="134" y="659"/>
      <point x="134" y="612" type="curve" smooth="yes"/>
      <point x="134" y="564"/>
      <point x="170" y="530"/>
      <point x="220" y="530" type="curve" smooth="yes"/>
      <point x="270" y="530"/>
      <point x="306" y="564"/>
      <point x="306" y="612" type="curve" smooth="yes"/>
      <point x="306" y="660"/>
      <point x="271" y="693"/>
    </contour>
    <contour>
      <point x="435" y="693" type="curve" smooth="yes"/>
      <point x="383" y="693"/>
      <point x="349" y="660"/>
      <point x="349" y="612" type="curve" smooth="yes"/>
      <point x="349" y="563"/>
      <point x="383" y="530"/>
      <point x="435" y="530" type="curve" smooth="yes"/>
      <point x="485" y="530"/>
      <point x="521" y="564"/>
      <point x="521" y="612" type="curve" smooth="yes"/>
      <point x="521" y="660"/>
      <point x="486" y="693"/>
    </contour>
  </outline>
</glyph>
<glyph name="aring" format="2">
  <advance width="633"/>
  <unicode hex="00E5"/>
  <outline>
    <contour>
      <point x="582" y="467" type="line"/>
      <point x="389" y="467" type="line"/>
      <point x="389" y="413" type="line"/>
      <point x="358" y="464"/>
      <point x="327" y="480" name="hr01"/>
      <point x="259" y="480" type="curve" smooth="yes"/>
      <point x="113" y="480"/>
      <point x="33" y="392"/>
      <point x="33" y="229" type="curve" smooth="yes"/>
      <point x="33" y="76"/>
      <point x="109" y="-13"/>
      <point x="240" y="-13" type="curve" smooth="yes"/>
      <point x="311" y="-13"/>
      <point x="349" y="2"/>
      <point x="389" y="46" type="curve"/>
      <point x="389" y="0" type="line"/>
      <point x="582" y="0" type="line"/>
    </contour>
    <contour>
      <point x="315" y="343" type="curve" smooth="yes"/>
      <point x="361" y="343"/>
      <point x="389" y="303"/>
      <point x="389" y="235" type="curve" smooth="yes"/>
      <point x="389" y="159"/>
      <point x="364" y="123"/>
      <point x="311" y="123" type="curve" smooth="yes"/>
      <point x="264" y="123"/>
      <point x="238" y="162"/>
      <point x="238" y="233" type="curve" smooth="yes"/>
      <point x="238" y="305"/>
      <point x="265" y="343"/>
    </contour>
    <contour>
      <point x="327" y="710" type="curve" smooth="yes"/>
      <point x="245" y="710"/>
      <point x="196" y="674"/>
      <point x="196" y="613" type="curve" smooth="yes"/>
      <point x="196" y="552"/>
      <point x="245" y="516"/>
      <point x="326" y="516" type="curve" smooth="yes"/>
      <point x="408" y="516"/>
      <point x="457" y="552"/>
      <point x="457" y="613" type="curve" smooth="yes"/>
      <point x="457" y="674"/>
      <point x="408" y="710"/>
    </contour>
    <contour>
      <point x="327" y="667" type="curve" smooth="yes"/>
      <point x="360" y="667"/>
      <point x="383" y="645"/>
      <point x="383" y="613" type="curve" smooth="yes"/>
      <point x="383" y="581"/>
      <point x="360" y="559"/>
      <point x="327" y="559" type="curve" smooth="yes"/>
      <point x="293" y="559"/>
      <point x="270" y="581"/>
      <point x="270" y="613" type="curve" smooth="yes"/>
      <point x="270" y="645"/>
      <point x="293" y="667"/>
    </contour>
  </outline>
</glyph>
<glyph name="ae" format="2">
  <advance width="857"/>
  <unicode hex="00E6"/>
  <outline>
    <contour>
      <point x="822" y="204" type="line"/>
      <point x="823" y="222"/>
      <point x="824" y="236"/>
      <point x="824" y="244" type="curve" smooth="yes"/>
      <point x="824" y="316"/>
      <point x="794" y="392"/>
      <point x="751" y="431" type="curve" smooth="yes"/>
      <point x="714" y="464"/>
      <point x="652" y="481"/>
      <point x="568" y="481" type="curve" smooth="yes"/>
      <point x="509" y="481"/>
      <point x="471" y="473"/>
      <point x="429" y="451" type="curve"/>
      <point x="385" y="472"/>
      <point x="344" y="480" name="hr01"/>
      <point x="284" y="480" type="curve" smooth="yes"/>
      <point x="151" y="480"/>
      <point x="80" y="436"/>
      <point x="51" y="337" type="curve"/>
      <point x="207" y="291" type="line"/>
      <point x="218" y="342"/>
      <point x="240" y="365"/>
      <point x="278" y="365" type="curve" smooth="yes"/>
      <point x="304" y="365"/>
      <point x="321" y="352"/>
      <point x="321" y="332" type="curve" smooth="yes"/>
      <point x="321" y="310"/>
      <point x="303" y="297"/>
      <point x="255" y="286" type="curve" smooth="yes"/>
      <point x="70" y="244"/>
      <point x="23" y="213"/>
      <point x="23" y="130" type="curve" smooth="yes"/>
      <point x="23" y="43"/>
      <point x="82" y="-14"/>
      <point x="172" y="-14" type="curve" smooth="yes"/>
      <point x="246" y="-14"/>
      <point x="306" y="13"/>
      <point x="359" y="71" type="curve"/>
      <point x="407" y="10"/>
      <point x="462" y="-13" name="hr02"/>
      <point x="556" y="-13" type="curve" smooth="yes"/>
      <point x="694" y="-13"/>
      <point x="765" y="23"/>
      <point x="803" y="112" type="curve"/>
      <point x="636" y="155" type="line"/>
      <point x="621" y="110"/>
      <point x="605" y="95"/>
      <point x="569" y="95" type="curve" smooth="yes"/>
      <point x="521" y="95"/>
      <point x="504" y="122"/>
      <point x="504" y="195" type="curve" smooth="yes"/>
      <point x="504" y="204" type="line"/>
    </contour>
    <contour>
      <point x="507" y="292" type="line"/>
      <point x="512" y="348"/>
      <point x="533" y="373"/>
      <point x="574" y="373" type="curve" smooth="yes"/>
      <point x="616" y="373"/>
      <point x="635" y="348"/>
      <point x="637" y="292" type="curve"/>
    </contour>
    <contour>
      <point x="326" y="201" type="line" smooth="yes"/>
      <point x="326" y="147"/>
      <point x="301" y="113" name="hr03"/>
      <point x="263" y="113" type="curve" smooth="yes"/>
      <point x="235" y="113"/>
      <point x="219" y="128"/>
      <point x="219" y="154" type="curve" smooth="yes"/>
      <point x="219" y="184"/>
      <point x="241" y="197"/>
      <point x="326" y="217" type="curve"/>
    </contour>
  </outline>
</glyph>
<glyph name="ccedilla" format="2">
  <advance width="550"/>
  <unicode hex="00E7"/>
  <outline>
    <contour>
      <point x="546" y="325" type="line"/>
      <point x="521" y="436"/>
      <point x="451" y="480"/>
      <point x="302" y="480" type="curve" smooth="yes"/>
      <point x="212" y="480"/>
      <point x="155" y="464"/>
      <point x="112" y="427" type="curve" smooth="yes"/>
      <point x="61" y="383"/>
      <point x="33" y="314"/>
      <point x="33" y="231" type="curve" smooth="yes"/>
      <point x="33" y="145"/>
      <point x="64" y="70"/>
      <point x="116" y="30" type="curve" smooth="yes"/>
      <point x="153" y="2"/>
      <point x="211" y="-13"/>
      <point x="284" y="-13" type="curve" smooth="yes"/>
      <point x="359" y="-13"/>
      <point x="421" y="1"/>
      <point x="467" y="28" type="curve" smooth="yes"/>
      <point x="510" y="54"/>
      <point x="532" y="86"/>
      <point x="550" y="151" type="curve"/>
      <point x="365" y="198" type="line"/>
      <point x="359" y="133"/>
      <point x="339" y="103"/>
      <point x="302" y="103" type="curve" smooth="yes"/>
      <point x="259" y="103"/>
      <point x="238" y="141"/>
      <point x="238" y="218" type="curve" smooth="yes"/>
      <point x="238" y="314"/>
      <point x="264" y="366"/>
      <point x="312" y="366" type="curve" smooth="yes"/>
      <point x="350" y="366"/>
      <point x="368" y="336" name="hr01"/>
      <point x="368" y="274" type="curve"/>
    </contour>
    <contour>
      <point x="209" y="-73" type="line"/>
      <point x="231" y="-97"/>
      <point x="238" y="-111"/>
      <point x="238" y="-127" type="curve" smooth="yes"/>
      <point x="238" y="-164"/>
      <point x="210" y="-186"/>
      <point x="159" y="-188" type="curve"/>
      <point x="174" y="-218" type="line"/>
      <point x="283" y="-208"/>
      <point x="344" y="-164" name="hr02"/>
      <point x="344" y="-96" type="curve" smooth="yes"/>
      <point x="344" y="-71"/>
      <point x="335" y="-51"/>
      <point x="308" y="-13" type="curve"/>
    </contour>
  </outline>
</glyph>
<glyph name="egrave" format="2">
  <advance width="579"/>
  <unicode hex="00E8"/>
  <outline>
    <contour>
      <point x="544" y="201" type="line"/>
      <point x="545" y="217"/>
      <point x="546" y="231"/>
      <point x="546" y="237" type="curve" smooth="yes"/>
      <point x="546" y="400"/>
      <point x="463" y="480"/>
      <point x="296" y="480" type="curve" smooth="yes"/>
      <point x="121" y="480"/>
      <point x="33" y="397"/>
      <point x="33" y="230" type="curve" smooth="yes"/>
      <point x="33" y="68"/>
      <point x="117" y="-13"/>
      <point x="286" y="-13" type="curve" smooth="yes"/>
      <point x="415" y="-13"/>
      <point x="492" y="29"/>
      <point x="525" y="119" type="curve"/>
      <point x="355" y="153" type="line"/>
      <point x="344" y="111"/>
      <point x="325" y="95"/>
      <point x="289" y="95" type="curve" smooth="yes"/>
      <point x="247" y="95"/>
      <point x="227" y="125"/>
      <point x="227" y="191" type="curve" smooth="yes"/>
      <point x="227" y="201" type="line"/>
    </contour>
    <contour>
      <point x="230" y="293" type="line"/>
      <point x="235" y="346"/>
      <point x="256" y="372"/>
      <point x="294" y="372" type="curve" smooth="yes"/>
      <point x="338" y="372"/>
      <point x="358" y="349"/>
      <point x="360" y="293" type="curve"/>
    </contour>
    <contour>
      <point x="228" y="715" type="line"/>
      <point x="83" y="666" type="line"/>
      <point x="315" y="519" type="line"/>
      <point x="382" y="532" type="line"/>
    </contour>
  </outline>
</glyph>
<glyph name="eacute" format="2">
  <advance width="579"/>
  <unicode hex="00E9"/>
  <outline>
    <contour>
      <point x="544" y="201" type="line"/>
      <point x="545" y="217"/>
      <point x="546" y="231"/>
      <point x="546" y="237" type="curve" smooth="yes"/>
      <point x="546" y="400"/>
      <point x="463" y="480"/>
      <point x="296" y="480" type="curve" smooth="yes"/>
      <point x="121" y="480"/>
      <point x="33" y="397"/>
      <point x="33" y="230" type="curve" smooth="yes"/>
      <point x="33" y="68"/>
      <point x="117" y="-13"/>
      <point x="286" y="-13" type="curve" smooth="yes"/>
      <point x="415" y="-13"/>
      <point x="492" y="29"/>
      <point x="525" y="119" type="curve"/>
      <point x="355" y="153" type="line"/>
      <point x="344" y="111"/>
      <point x="325" y="95"/>
      <point x="289" y="95" type="curve" smooth="yes"/>
      <point x="247" y="95"/>
      <point x="227" y="125"/>
      <point x="227" y="191" type="curve" smooth="yes"/>
      <point x="227" y="201" type="line"/>
    </contour>
    <contour>
      <point x="230" y="293" type="line"/>
      <point x="235" y="346"/>
      <point x="256" y="372"/>
      <point x="294" y="372" type="curve" smooth="yes"/>
      <point x="338" y="372"/>
      <point x="358" y="349"/>
      <point x="360" y="293" type="curve"/>
    </contour>
    <contour>
      <point x="362" y="714" type="line"/>
      <point x="206" y="530" type="line"/>
      <point x="275" y="517" type="line"/>
      <point x="505" y="665" type="line"/>
    </contour>
  </outline>
</glyph>
